<svg width="402" height="231" viewBox="0 0 402 231" fill="none" xmlns="http://www.w3.org/2000/svg">
<g clip-path="url(#clip0_850_9605)">
<path d="M310.606 34.7552H364.702C369.502 34.7552 373.393 38.6462 373.393 43.446V99.5332C373.393 104.333 369.502 108.224 364.702 108.224H272.171" stroke="#DFE1E7" stroke-width="1.08634"/>
<path d="M349.356 34.7552H364.702C369.502 34.7552 373.393 38.6462 373.393 43.446V62.4154" stroke="url(#paint0_linear_850_9605)" stroke-width="1.08634"/>
<path d="M112.695 125.513H58.5994C53.7997 125.513 49.9087 129.404 49.9087 134.204V173.011C49.9087 177.811 53.7997 181.702 58.5994 181.702H151.13" stroke="#DFE1E7" stroke-width="1.08634"/>
<g filter="url(#filter0_d_850_9605)">
<rect x="143.385" y="156.715" width="152.355" height="49.9718" rx="6.51806" fill="white" shape-rendering="crispEdges"/>
<rect x="143.928" y="157.259" width="151.268" height="48.8855" rx="5.97489" stroke="#DAE3E8" stroke-width="1.08634" shape-rendering="crispEdges"/>
<path fill-rule="evenodd" clip-rule="evenodd" d="M169.2 170.88C169.367 170.824 169.548 170.824 169.715 170.88L178.678 173.867C179.01 173.978 179.235 174.289 179.235 174.64V181.606C179.235 184.58 177.949 186.774 176.129 188.501C174.34 190.199 172 191.476 169.845 192.638C169.603 192.769 169.312 192.769 169.071 192.638C166.915 191.476 164.576 190.199 162.786 188.501C160.966 186.774 159.681 184.58 159.681 181.606V174.64C159.681 174.289 159.905 173.978 160.238 173.867L169.2 170.88ZM173.021 179.561C173.34 179.243 173.34 178.727 173.021 178.409C172.703 178.091 172.187 178.091 171.869 178.409L168.371 181.907L167.046 180.582C166.728 180.264 166.212 180.264 165.894 180.582C165.576 180.9 165.576 181.416 165.894 181.734L167.795 183.635C167.948 183.788 168.155 183.874 168.371 183.874C168.588 183.874 168.795 183.788 168.948 183.635L173.021 179.561Z" fill="url(#paint1_linear_850_9605)"/>
<path d="M195.697 187.701L199.758 177.055H201.324L205.37 187.701H203.955L202.83 184.827H198.191L197.066 187.701H195.697ZM198.587 183.625H202.435L200.503 178.5L198.587 183.625ZM213.411 177.055V187.701H212.332L212.164 186.454C211.51 187.351 210.628 187.792 209.503 187.792C208.773 187.792 208.134 187.64 207.571 187.321C207.009 187.017 206.567 186.561 206.248 185.952C205.929 185.359 205.777 184.644 205.777 183.823C205.777 183.047 205.929 182.363 206.248 181.755C206.567 181.161 207.009 180.69 207.586 180.355C208.149 180.021 208.788 179.853 209.503 179.853C210.126 179.853 210.659 179.975 211.115 180.203C211.556 180.431 211.906 180.736 212.164 181.131V177.055H213.411ZM210.948 186.332C211.343 186.089 211.647 185.754 211.86 185.329C212.073 184.903 212.18 184.401 212.18 183.853C212.18 183.306 212.073 182.804 211.86 182.363C211.647 181.922 211.343 181.572 210.948 181.329C210.552 181.085 210.111 180.964 209.624 180.964C208.849 180.964 208.225 181.237 207.754 181.77C207.282 182.302 207.054 182.986 207.054 183.823C207.054 184.675 207.282 185.359 207.754 185.891C208.225 186.424 208.849 186.682 209.624 186.682C210.111 186.682 210.552 186.576 210.948 186.332ZM222.471 177.055V187.701H221.392L221.224 186.454C220.57 187.351 219.688 187.792 218.563 187.792C217.833 187.792 217.194 187.64 216.631 187.321C216.068 187.017 215.627 186.561 215.308 185.952C214.989 185.359 214.837 184.644 214.837 183.823C214.837 183.047 214.989 182.363 215.308 181.755C215.627 181.161 216.068 180.69 216.646 180.355C217.209 180.021 217.848 179.853 218.563 179.853C219.186 179.853 219.719 179.975 220.175 180.203C220.616 180.431 220.966 180.736 221.224 181.131V177.055H222.471ZM220.008 186.332C220.403 186.089 220.707 185.754 220.92 185.329C221.133 184.903 221.239 184.401 221.239 183.853C221.239 183.306 221.133 182.804 220.92 182.363C220.707 181.922 220.403 181.572 220.008 181.329C219.612 181.085 219.171 180.964 218.684 180.964C217.909 180.964 217.285 181.237 216.814 181.77C216.342 182.302 216.114 182.986 216.114 183.823C216.114 184.675 216.342 185.359 216.814 185.891C217.285 186.424 217.909 186.682 218.684 186.682C219.171 186.682 219.612 186.576 220.008 186.332ZM228.333 187.701V177.055H229.656V186.484H234.508V187.701H228.333ZM236.942 177.177C237.094 177.329 237.17 177.526 237.17 177.755C237.17 177.998 237.094 178.18 236.942 178.333C236.79 178.485 236.592 178.561 236.364 178.561C236.12 178.561 235.938 178.485 235.786 178.333C235.634 178.18 235.558 177.998 235.558 177.755C235.558 177.526 235.634 177.329 235.786 177.177C235.938 177.025 236.12 176.949 236.364 176.949C236.592 176.949 236.79 177.025 236.942 177.177ZM235.74 179.945H236.987V187.701H235.74V179.945ZM246.057 179.945V190.743H244.81V186.454C244.156 187.351 243.274 187.792 242.148 187.792C241.418 187.792 240.779 187.64 240.217 187.321C239.654 187.017 239.213 186.561 238.894 185.952C238.574 185.359 238.422 184.644 238.422 183.823C238.422 183.047 238.574 182.363 238.894 181.755C239.213 181.161 239.654 180.69 240.232 180.355C240.795 180.021 241.433 179.853 242.148 179.853C242.772 179.853 243.304 179.975 243.76 180.203C244.201 180.431 244.551 180.736 244.81 181.131L244.977 179.945H246.057ZM243.593 186.332C243.988 186.089 244.293 185.754 244.506 185.329C244.719 184.903 244.825 184.401 244.825 183.853C244.825 183.306 244.719 182.804 244.506 182.363C244.293 181.922 243.988 181.572 243.593 181.329C243.198 181.085 242.757 180.964 242.27 180.964C241.494 180.964 240.871 181.237 240.399 181.77C239.928 182.302 239.7 182.986 239.7 183.823C239.7 184.675 239.928 185.359 240.399 185.891C240.871 186.424 241.494 186.682 242.27 186.682C242.757 186.682 243.198 186.576 243.593 186.332ZM254.432 179.945V187.701H253.353L253.185 186.667C252.592 187.427 251.771 187.792 250.706 187.792C249.779 187.792 249.033 187.519 248.486 186.941C247.923 186.378 247.649 185.481 247.649 184.264V179.945H248.896V184.188C248.896 184.994 249.064 185.602 249.414 186.028C249.763 186.454 250.265 186.652 250.919 186.652C251.619 186.652 252.182 186.408 252.577 185.891C252.972 185.389 253.185 184.705 253.185 183.823V179.945H254.432ZM257.334 177.177C257.486 177.329 257.562 177.526 257.562 177.755C257.562 177.998 257.486 178.18 257.334 178.333C257.182 178.485 256.984 178.561 256.756 178.561C256.513 178.561 256.33 178.485 256.178 178.333C256.026 178.18 255.95 177.998 255.95 177.755C255.95 177.526 256.026 177.329 256.178 177.177C256.33 177.025 256.513 176.949 256.756 176.949C256.984 176.949 257.182 177.025 257.334 177.177ZM256.132 179.945H257.38V187.701H256.132V179.945ZM266.449 177.055V187.701H265.369L265.202 186.454C264.548 187.351 263.666 187.792 262.541 187.792C261.81 187.792 261.172 187.64 260.609 187.321C260.046 187.017 259.605 186.561 259.286 185.952C258.966 185.359 258.814 184.644 258.814 183.823C258.814 183.047 258.966 182.363 259.286 181.755C259.605 181.161 260.046 180.69 260.624 180.355C261.187 180.021 261.826 179.853 262.541 179.853C263.164 179.853 263.696 179.975 264.153 180.203C264.594 180.431 264.944 180.736 265.202 181.131V177.055H266.449ZM263.985 186.332C264.381 186.089 264.685 185.754 264.898 185.329C265.111 184.903 265.217 184.401 265.217 183.853C265.217 183.306 265.111 182.804 264.898 182.363C264.685 181.922 264.381 181.572 263.985 181.329C263.59 181.085 263.149 180.964 262.662 180.964C261.887 180.964 261.263 181.237 260.791 181.77C260.32 182.302 260.092 182.986 260.092 183.823C260.092 184.675 260.32 185.359 260.791 185.891C261.263 186.424 261.887 186.682 262.662 186.682C263.149 186.682 263.59 186.576 263.985 186.332ZM269.35 177.177C269.502 177.329 269.578 177.526 269.578 177.755C269.578 177.998 269.502 178.18 269.35 178.333C269.197 178.485 269 178.561 268.772 178.561C268.528 178.561 268.346 178.485 268.194 178.333C268.042 178.18 267.966 177.998 267.966 177.755C267.966 177.526 268.042 177.329 268.194 177.177C268.346 177.025 268.528 176.949 268.772 176.949C269 176.949 269.197 177.025 269.35 177.177ZM268.148 179.945H269.395V187.701H268.148V179.945ZM271.621 181.085H270.222V179.945H271.621V177.77H272.868V179.945H274.83V181.085H272.868V185.663C272.868 185.998 272.929 186.226 273.05 186.363C273.172 186.5 273.4 186.561 273.72 186.561H275.073V187.701H273.644C272.914 187.701 272.381 187.549 272.077 187.214C271.773 186.895 271.621 186.378 271.621 185.678V181.085ZM276.508 179.945L278.896 186.272L281.207 179.945H282.531L278.957 189.009C278.774 189.481 278.607 189.83 278.47 190.059C278.318 190.302 278.15 190.469 277.938 190.576C277.725 190.697 277.436 190.743 277.086 190.743H275.595V189.602H276.706C276.949 189.602 277.131 189.587 277.253 189.526C277.375 189.481 277.466 189.405 277.542 189.283C277.618 189.161 277.709 188.964 277.831 188.69L278.226 187.762L275.185 179.945H276.508Z" fill="#666D80"/>
</g>
<g filter="url(#filter1_d_850_9605)">
<rect x="34.3213" y="83.2382" width="253.704" height="52.1445" rx="6.51806" fill="white" shape-rendering="crispEdges"/>
<rect x="34.8645" y="83.7813" width="252.617" height="51.0581" rx="5.97489" stroke="#DAE3E8" stroke-width="1.08634" shape-rendering="crispEdges"/>
<path fill-rule="evenodd" clip-rule="evenodd" d="M49.5303 109.31C49.5303 103.311 54.394 98.4468 60.3937 98.4468C66.3934 98.4468 71.2571 103.311 71.2571 109.31C71.2571 115.31 66.3934 120.174 60.3937 120.174C54.394 120.174 49.5303 115.31 49.5303 109.31ZM61.2085 102.521C61.2085 102.071 60.8437 101.706 60.3937 101.706C59.9437 101.706 59.579 102.071 59.579 102.521V103.667C58.9731 103.761 58.4067 103.971 57.9413 104.338C57.2417 104.89 56.8773 105.711 56.8773 106.704C56.8773 107.86 57.347 108.644 58.0626 109.171C58.6385 109.596 59.3688 109.84 59.9533 110.035C60.0146 110.056 60.0744 110.076 60.1321 110.095L60.2669 110.141C60.9159 110.36 61.3999 110.524 61.7585 110.788C62.0623 111.012 62.2806 111.312 62.2806 111.943C62.2806 112.511 62.0904 112.83 61.8373 113.029C61.5542 113.253 61.0819 113.411 60.3937 113.411C59.5205 113.411 58.9616 113.012 58.6832 112.512C58.4642 112.119 57.968 111.978 57.575 112.197C57.1819 112.416 57.0407 112.912 57.2597 113.305C57.7257 114.142 58.5379 114.752 59.579 114.961V116.1C59.579 116.55 59.9437 116.915 60.3937 116.915C60.8437 116.915 61.2085 116.55 61.2085 116.1V114.98C61.8143 114.886 62.3807 114.676 62.8461 114.309C63.5457 113.758 63.9101 112.936 63.9101 111.943C63.9101 110.788 63.4405 110.003 62.7248 109.476C62.1489 109.052 61.4186 108.807 60.8341 108.612C60.7728 108.592 60.7131 108.572 60.6553 108.552L60.5206 108.506C59.8715 108.287 59.3875 108.123 59.0289 107.859C58.7252 107.636 58.5069 107.335 58.5069 106.704C58.5069 106.137 58.697 105.817 58.9501 105.618C59.2333 105.395 59.7055 105.237 60.3937 105.237C61.267 105.237 61.8258 105.635 62.1042 106.135C62.3232 106.528 62.8194 106.669 63.2125 106.45C63.6056 106.231 63.7467 105.735 63.5277 105.342C63.0617 104.505 62.2495 103.895 61.2085 103.686V102.521Z" fill="url(#paint2_linear_850_9605)"/>
<path d="M91.2718 104.664C92.3973 104.664 93.2642 104.908 93.8725 105.394C94.4809 105.881 94.8002 106.565 94.8002 107.417C94.8002 108.056 94.633 108.573 94.3136 108.984C93.979 109.394 93.5075 109.683 92.8991 109.835C94.4504 110.139 95.2413 110.976 95.2413 112.375C95.2413 113.288 94.9067 114.018 94.2375 114.535C93.5683 115.052 92.6254 115.31 91.3783 115.31H87.5V104.664H91.2718ZM88.8232 109.288H91.3326C92.0018 109.288 92.5341 109.136 92.9144 108.831C93.2794 108.527 93.4771 108.117 93.4771 107.569C93.4771 107.037 93.2794 106.626 92.9144 106.322C92.5493 106.018 92.017 105.866 91.3326 105.866H88.8232V109.288ZM88.8232 114.109H91.3783C92.1843 114.109 92.8079 113.957 93.2337 113.637C93.6596 113.333 93.8877 112.892 93.8877 112.329C93.8877 111.736 93.6596 111.28 93.2337 110.961C92.7927 110.641 92.1691 110.474 91.3783 110.474H88.8232V114.109ZM100.732 107.554V108.771H100.109C99.3636 108.771 98.8313 109.029 98.5119 109.516C98.1925 110.018 98.0404 110.626 98.0404 111.356V115.31H96.7933V107.554H97.8731L98.0404 108.725C98.2534 108.375 98.5423 108.086 98.9073 107.873C99.2571 107.66 99.7438 107.554 100.383 107.554H100.732ZM103.074 104.786C103.226 104.938 103.302 105.136 103.302 105.364C103.302 105.607 103.226 105.79 103.074 105.942C102.922 106.094 102.725 106.17 102.496 106.17C102.253 106.17 102.071 106.094 101.918 105.942C101.766 105.79 101.69 105.607 101.69 105.364C101.69 105.136 101.766 104.938 101.918 104.786C102.071 104.634 102.253 104.558 102.496 104.558C102.725 104.558 102.922 104.634 103.074 104.786ZM101.873 107.554H103.12V115.31H101.873V107.554ZM112.19 104.664V115.31H111.11L110.942 114.063C110.288 114.961 109.406 115.402 108.281 115.402C107.551 115.402 106.912 115.25 106.349 114.93C105.787 114.626 105.346 114.17 105.026 113.561C104.707 112.968 104.555 112.253 104.555 111.432C104.555 110.657 104.707 109.972 105.026 109.364C105.346 108.771 105.787 108.299 106.365 107.965C106.927 107.63 107.566 107.463 108.281 107.463C108.904 107.463 109.437 107.584 109.893 107.812C110.334 108.041 110.684 108.345 110.942 108.74V104.664H112.19ZM109.726 113.942C110.121 113.698 110.425 113.364 110.638 112.938C110.851 112.512 110.958 112.01 110.958 111.463C110.958 110.915 110.851 110.413 110.638 109.972C110.425 109.531 110.121 109.181 109.726 108.938C109.33 108.695 108.889 108.573 108.403 108.573C107.627 108.573 107.003 108.847 106.532 109.379C106.06 109.911 105.832 110.596 105.832 111.432C105.832 112.284 106.06 112.968 106.532 113.501C107.003 114.033 107.627 114.291 108.403 114.291C108.889 114.291 109.33 114.185 109.726 113.942ZM121.249 107.554V114.93C121.249 117.272 119.957 118.443 117.402 118.443C116.398 118.443 115.577 118.215 114.938 117.759C114.299 117.303 113.934 116.664 113.843 115.812H115.12C115.212 116.299 115.47 116.679 115.896 116.938C116.307 117.212 116.839 117.333 117.493 117.333C119.166 117.333 120.002 116.527 120.002 114.885V113.972C119.44 114.93 118.557 115.402 117.341 115.402C116.611 115.402 115.972 115.25 115.409 114.93C114.847 114.626 114.405 114.17 114.086 113.561C113.767 112.968 113.615 112.253 113.615 111.432C113.615 110.657 113.767 109.972 114.086 109.364C114.405 108.771 114.847 108.299 115.424 107.965C115.987 107.63 116.626 107.463 117.341 107.463C117.964 107.463 118.497 107.6 118.953 107.843C119.394 108.086 119.744 108.436 120.002 108.892L120.17 107.554H121.249ZM118.786 113.942C119.181 113.698 119.485 113.364 119.698 112.938C119.911 112.512 120.018 112.01 120.018 111.463C120.018 110.915 119.911 110.413 119.698 109.972C119.485 109.531 119.181 109.181 118.786 108.938C118.39 108.695 117.949 108.573 117.462 108.573C116.687 108.573 116.063 108.847 115.592 109.379C115.12 109.911 114.892 110.596 114.892 111.432C114.892 112.284 115.12 112.968 115.592 113.501C116.063 114.033 116.687 114.291 117.462 114.291C117.949 114.291 118.39 114.185 118.786 113.942ZM123.131 109.349C123.435 108.755 123.876 108.299 124.439 107.965C124.986 107.63 125.625 107.463 126.355 107.463C127.055 107.463 127.693 107.615 128.241 107.904C128.788 108.208 129.214 108.634 129.534 109.181C129.838 109.744 130.005 110.398 130.036 111.143C130.036 111.265 130.02 111.432 130.005 111.676H123.983V111.782C123.998 112.542 124.226 113.151 124.682 113.607C125.123 114.063 125.701 114.291 126.431 114.291C126.979 114.291 127.45 114.155 127.846 113.881C128.241 113.607 128.5 113.212 128.636 112.71H129.899C129.747 113.501 129.366 114.155 128.758 114.656C128.15 115.158 127.404 115.402 126.522 115.402C125.747 115.402 125.078 115.25 124.5 114.915C123.922 114.58 123.465 114.124 123.146 113.516C122.827 112.907 122.675 112.223 122.675 111.432C122.675 110.641 122.827 109.957 123.131 109.349ZM128.743 110.641C128.682 109.987 128.423 109.47 127.998 109.105C127.572 108.74 127.024 108.558 126.37 108.558C125.777 108.558 125.26 108.755 124.819 109.136C124.363 109.531 124.119 110.033 124.059 110.641H128.743ZM135.956 108.695H134.557V107.554H135.956V105.379H137.203V107.554H139.165V108.695H137.203V113.272C137.203 113.607 137.264 113.835 137.386 113.972C137.508 114.109 137.736 114.17 138.055 114.17H139.409V115.31H137.979C137.249 115.31 136.717 115.158 136.412 114.824C136.108 114.504 135.956 113.987 135.956 113.288V108.695ZM141.669 114.9C141.091 114.565 140.635 114.109 140.316 113.501C139.981 112.907 139.829 112.223 139.829 111.432C139.829 110.657 139.981 109.972 140.316 109.364C140.635 108.771 141.091 108.299 141.669 107.965C142.247 107.63 142.916 107.463 143.677 107.463C144.422 107.463 145.091 107.63 145.669 107.965C146.247 108.299 146.703 108.771 147.038 109.364C147.357 109.972 147.525 110.657 147.525 111.432C147.525 112.223 147.357 112.907 147.038 113.501C146.703 114.109 146.247 114.565 145.669 114.9C145.091 115.234 144.422 115.402 143.677 115.402C142.916 115.402 142.247 115.234 141.669 114.9ZM145.015 113.926C145.411 113.683 145.715 113.348 145.928 112.907C146.141 112.482 146.247 111.98 146.247 111.432C146.247 110.885 146.141 110.398 145.928 109.957C145.715 109.531 145.411 109.181 145.015 108.938C144.62 108.695 144.179 108.573 143.677 108.573C143.16 108.573 142.719 108.695 142.323 108.938C141.928 109.181 141.639 109.531 141.426 109.957C141.213 110.398 141.107 110.885 141.107 111.432C141.107 111.98 141.213 112.482 141.426 112.907C141.639 113.348 141.928 113.683 142.323 113.926C142.719 114.17 143.16 114.291 143.677 114.291C144.179 114.291 144.62 114.17 145.015 113.926ZM160.296 104.664V115.31H159.216L159.049 114.063C158.395 114.961 157.513 115.402 156.388 115.402C155.658 115.402 155.019 115.25 154.456 114.93C153.893 114.626 153.452 114.17 153.133 113.561C152.814 112.968 152.661 112.253 152.661 111.432C152.661 110.657 152.814 109.972 153.133 109.364C153.452 108.771 153.893 108.299 154.471 107.965C155.034 107.63 155.673 107.463 156.388 107.463C157.011 107.463 157.543 107.584 158 107.812C158.441 108.041 158.791 108.345 159.049 108.74V104.664H160.296ZM157.832 113.942C158.228 113.698 158.532 113.364 158.745 112.938C158.958 112.512 159.064 112.01 159.064 111.463C159.064 110.915 158.958 110.413 158.745 109.972C158.532 109.531 158.228 109.181 157.832 108.938C157.437 108.695 156.996 108.573 156.509 108.573C155.734 108.573 155.11 108.847 154.639 109.379C154.167 109.911 153.939 110.596 153.939 111.432C153.939 112.284 154.167 112.968 154.639 113.501C155.11 114.033 155.734 114.291 156.509 114.291C156.996 114.291 157.437 114.185 157.832 113.942ZM163.197 104.786C163.349 104.938 163.425 105.136 163.425 105.364C163.425 105.607 163.349 105.79 163.197 105.942C163.045 106.094 162.847 106.17 162.619 106.17C162.375 106.17 162.193 106.094 162.041 105.942C161.889 105.79 161.813 105.607 161.813 105.364C161.813 105.136 161.889 104.938 162.041 104.786C162.193 104.634 162.375 104.558 162.619 104.558C162.847 104.558 163.045 104.634 163.197 104.786ZM161.995 107.554H163.242V115.31H161.995V107.554ZM165.468 107.554V106.687C165.468 106.003 165.62 105.501 165.939 105.166C166.259 104.832 166.776 104.664 167.491 104.664H168.92V105.805H167.567C167.263 105.805 167.034 105.881 166.913 106.003C166.776 106.14 166.715 106.352 166.715 106.657V107.554H168.905V108.695H166.715V115.31H165.468V108.695H164.069V107.554H165.468ZM170.22 105.166C170.539 104.832 171.056 104.664 171.771 104.664H173.2V105.805H171.847C171.543 105.805 171.315 105.881 171.193 106.003C171.056 106.14 170.995 106.352 170.995 106.657V107.554H173.185V108.695H170.995V115.31H169.748V106.687C169.748 106.003 169.9 105.501 170.22 105.166ZM173.852 109.349C174.156 108.755 174.597 108.299 175.16 107.965C175.707 107.63 176.346 107.463 177.076 107.463C177.775 107.463 178.414 107.615 178.962 107.904C179.509 108.208 179.935 108.634 180.255 109.181C180.559 109.744 180.726 110.398 180.756 111.143C180.756 111.265 180.741 111.432 180.726 111.676H174.703V111.782C174.718 112.542 174.947 113.151 175.403 113.607C175.844 114.063 176.422 114.291 177.152 114.291C177.699 114.291 178.171 114.155 178.566 113.881C178.962 113.607 179.22 113.212 179.357 112.71H180.62C180.467 113.501 180.087 114.155 179.479 114.656C178.871 115.158 178.125 115.402 177.243 115.402C176.468 115.402 175.798 115.25 175.22 114.915C174.642 114.58 174.186 114.124 173.867 113.516C173.547 112.907 173.395 112.223 173.395 111.432C173.395 110.641 173.547 109.957 173.852 109.349ZM179.464 110.641C179.403 109.987 179.144 109.47 178.718 109.105C178.293 108.74 177.745 108.558 177.091 108.558C176.498 108.558 175.981 108.755 175.54 109.136C175.084 109.531 174.84 110.033 174.779 110.641H179.464ZM186.119 107.554V108.771H185.495C184.75 108.771 184.217 109.029 183.898 109.516C183.579 110.018 183.427 110.626 183.427 111.356V115.31H182.179V107.554H183.259L183.427 108.725C183.64 108.375 183.929 108.086 184.294 107.873C184.643 107.66 185.13 107.554 185.769 107.554H186.119ZM186.996 109.349C187.3 108.755 187.741 108.299 188.304 107.965C188.851 107.63 189.49 107.463 190.22 107.463C190.92 107.463 191.559 107.615 192.106 107.904C192.654 108.208 193.079 108.634 193.399 109.181C193.703 109.744 193.87 110.398 193.901 111.143C193.901 111.265 193.886 111.432 193.87 111.676H187.848V111.782C187.863 112.542 188.091 113.151 188.547 113.607C188.988 114.063 189.566 114.291 190.296 114.291C190.844 114.291 191.315 114.155 191.711 113.881C192.106 113.607 192.365 113.212 192.502 112.71H193.764C193.612 113.501 193.232 114.155 192.623 114.656C192.015 115.158 191.27 115.402 190.387 115.402C189.612 115.402 188.943 115.25 188.365 114.915C187.787 114.58 187.331 114.124 187.011 113.516C186.692 112.907 186.54 112.223 186.54 111.432C186.54 110.641 186.692 109.957 186.996 109.349ZM192.608 110.641C192.547 109.987 192.289 109.47 191.863 109.105C191.437 108.74 190.889 108.558 190.235 108.558C189.642 108.558 189.125 108.755 188.684 109.136C188.228 109.531 187.985 110.033 187.924 110.641H192.608ZM201.392 108.314C201.97 108.892 202.259 109.774 202.259 110.991V115.31H201.012V111.067C201.012 110.276 200.829 109.668 200.464 109.242C200.099 108.816 199.582 108.603 198.913 108.603C198.183 108.603 197.605 108.862 197.194 109.364C196.769 109.881 196.571 110.565 196.571 111.432V115.31H195.324V107.554H196.404L196.571 108.603C197.149 107.843 198.001 107.463 199.126 107.463C200.069 107.463 200.814 107.752 201.392 108.314ZM204.366 108.695H202.967V107.554H204.366V105.379H205.613V107.554H207.575V108.695H205.613V113.272C205.613 113.607 205.674 113.835 205.796 113.972C205.917 114.109 206.146 114.17 206.465 114.17H207.819V115.31H206.389C205.659 115.31 205.127 115.158 204.822 114.824C204.518 114.504 204.366 113.987 204.366 113.288V108.695ZM218.755 108.314C219.332 108.892 219.621 109.774 219.621 110.991V115.31H218.374V111.067C218.374 110.276 218.192 109.668 217.827 109.242C217.462 108.816 216.945 108.603 216.275 108.603C215.545 108.603 214.968 108.862 214.557 109.364C214.131 109.881 213.933 110.565 213.933 111.432V115.31H212.686V107.554H213.766L213.933 108.603C214.511 107.843 215.363 107.463 216.488 107.463C217.431 107.463 218.177 107.752 218.755 108.314ZM221.394 109.349C221.698 108.755 222.139 108.299 222.702 107.965C223.249 107.63 223.888 107.463 224.618 107.463C225.318 107.463 225.957 107.615 226.504 107.904C227.052 108.208 227.477 108.634 227.797 109.181C228.101 109.744 228.268 110.398 228.299 111.143C228.299 111.265 228.284 111.432 228.268 111.676H222.246V111.782C222.261 112.542 222.489 113.151 222.945 113.607C223.386 114.063 223.964 114.291 224.694 114.291C225.242 114.291 225.713 114.155 226.109 113.881C226.504 113.607 226.763 113.212 226.9 112.71H228.162C228.01 113.501 227.63 114.155 227.021 114.656C226.413 115.158 225.668 115.402 224.786 115.402C224.01 115.402 223.341 115.25 222.763 114.915C222.185 114.58 221.729 114.124 221.409 113.516C221.09 112.907 220.938 112.223 220.938 111.432C220.938 110.641 221.09 109.957 221.394 109.349ZM227.006 110.641C226.945 109.987 226.687 109.47 226.261 109.105C225.835 108.74 225.287 108.558 224.633 108.558C224.04 108.558 223.523 108.755 223.082 109.136C222.626 109.531 222.383 110.033 222.322 110.641H227.006ZM230.15 108.695H228.751V107.554H230.15V105.379H231.397V107.554H233.359V108.695H231.397V113.272C231.397 113.607 231.458 113.835 231.579 113.972C231.701 114.109 231.929 114.17 232.249 114.17H233.602V115.31H232.173C231.443 115.31 230.91 115.158 230.606 114.824C230.302 114.504 230.15 113.987 230.15 113.288V108.695ZM233.759 107.554H235.067L236.999 113.866L239.037 107.554H240.193L242.124 113.866L244.147 107.554H245.409L242.824 115.31H241.455L239.584 109.546L237.638 115.31L236.269 115.326L233.759 107.554ZM247.73 114.9C247.152 114.565 246.696 114.109 246.376 113.501C246.042 112.907 245.89 112.223 245.89 111.432C245.89 110.657 246.042 109.972 246.376 109.364C246.696 108.771 247.152 108.299 247.73 107.965C248.308 107.63 248.977 107.463 249.737 107.463C250.483 107.463 251.152 107.63 251.73 107.965C252.308 108.299 252.764 108.771 253.099 109.364C253.418 109.972 253.585 110.657 253.585 111.432C253.585 112.223 253.418 112.907 253.099 113.501C252.764 114.109 252.308 114.565 251.73 114.9C251.152 115.234 250.483 115.402 249.737 115.402C248.977 115.402 248.308 115.234 247.73 114.9ZM251.076 113.926C251.471 113.683 251.775 113.348 251.988 112.907C252.201 112.482 252.308 111.98 252.308 111.432C252.308 110.885 252.201 110.398 251.988 109.957C251.775 109.531 251.471 109.181 251.076 108.938C250.68 108.695 250.239 108.573 249.737 108.573C249.22 108.573 248.779 108.695 248.384 108.938C247.988 109.181 247.7 109.531 247.487 109.957C247.274 110.398 247.167 110.885 247.167 111.432C247.167 111.98 247.274 112.482 247.487 112.907C247.7 113.348 247.988 113.683 248.384 113.926C248.779 114.17 249.22 114.291 249.737 114.291C250.239 114.291 250.68 114.17 251.076 113.926ZM258.955 107.554V108.771H258.331C257.586 108.771 257.053 109.029 256.734 109.516C256.415 110.018 256.263 110.626 256.263 111.356V115.31H255.015V107.554H256.095L256.263 108.725C256.475 108.375 256.764 108.086 257.129 107.873C257.479 107.66 257.966 107.554 258.605 107.554H258.955ZM260.095 104.664H261.342V111.721L265.281 107.554H266.772L263.791 110.733L266.985 115.31H265.479L262.893 111.63L261.342 113.257V115.31H260.095V104.664ZM268.688 112.755C268.703 113.227 268.9 113.607 269.296 113.896C269.691 114.2 270.193 114.337 270.817 114.337C271.364 114.337 271.805 114.231 272.14 114.018C272.475 113.805 272.657 113.516 272.657 113.151C272.657 112.847 272.566 112.618 272.414 112.451C272.246 112.299 272.033 112.177 271.775 112.117C271.516 112.056 271.151 111.995 270.68 111.934C270.011 111.858 269.463 111.752 269.037 111.615C268.612 111.493 268.262 111.28 268.003 110.991C267.729 110.702 267.608 110.307 267.608 109.79C267.608 109.333 267.729 108.938 267.988 108.573C268.246 108.223 268.596 107.949 269.053 107.752C269.494 107.554 269.996 107.447 270.558 107.447C271.471 107.447 272.201 107.66 272.779 108.086C273.357 108.512 273.676 109.12 273.737 109.911H272.49C272.429 109.516 272.231 109.181 271.897 108.908C271.547 108.649 271.121 108.512 270.604 108.512C270.072 108.512 269.646 108.634 269.326 108.847C268.992 109.06 268.84 109.349 268.84 109.698C268.84 109.972 268.916 110.17 269.068 110.307C269.22 110.459 269.402 110.55 269.646 110.596C269.889 110.657 270.254 110.702 270.741 110.763C271.41 110.854 271.973 110.961 272.414 111.098C272.855 111.25 273.205 111.478 273.478 111.782C273.752 112.101 273.889 112.527 273.889 113.06C273.889 113.531 273.752 113.942 273.478 114.291C273.205 114.656 272.824 114.93 272.368 115.113C271.897 115.31 271.38 115.402 270.817 115.402C269.798 115.402 268.977 115.174 268.368 114.702C267.76 114.246 267.44 113.592 267.44 112.755H268.688Z" fill="#666D80"/>
</g>
<g filter="url(#filter2_d_850_9605)">
<rect x="82.4858" y="9.76904" width="243.073" height="52.1445" rx="6.51806" fill="white" shape-rendering="crispEdges"/>
<rect x="83.029" y="10.3122" width="241.986" height="51.0581" rx="5.97489" stroke="#DAE3E8" stroke-width="1.08634" shape-rendering="crispEdges"/>
<path d="M113.631 26.0642C113.031 26.0642 112.545 26.5506 112.545 27.1506V44.532C112.545 45.132 113.031 45.6184 113.631 45.6184H117.249C117.848 45.6184 118.335 45.132 118.335 44.532V27.1506C118.335 26.5506 117.848 26.0642 117.249 26.0642H113.631Z" fill="url(#paint3_linear_850_9605)"/>
<path d="M106.744 31.8587C106.144 31.8587 105.657 32.3451 105.657 32.9451V44.5328C105.657 45.1327 106.144 45.6191 106.744 45.6191H110.361C110.961 45.6191 111.448 45.1327 111.448 44.5328V32.9451C111.448 32.3451 110.961 31.8587 110.361 31.8587H106.744Z" fill="url(#paint4_linear_850_9605)"/>
<path d="M99.8671 36.6858C99.2671 36.6858 98.7808 37.1721 98.7808 37.7721V44.5316C98.7808 45.1315 99.2671 45.6179 99.8671 45.6179H103.485C104.085 45.6179 104.571 45.1315 104.571 44.5316V37.7721C104.571 37.1721 104.085 36.6858 103.485 36.6858H99.8671Z" fill="url(#paint5_linear_850_9605)"/>
<path d="M135.665 31.1951H137.338L141.109 40.0315L144.835 31.1951H146.478V41.8413H145.185V33.446L141.657 41.8413H140.486L136.957 33.446V41.8413H135.665V31.1951ZM149.561 31.3168C149.713 31.4689 149.789 31.6666 149.789 31.8947C149.789 32.1381 149.713 32.3206 149.561 32.4727C149.408 32.6248 149.211 32.7008 148.983 32.7008C148.739 32.7008 148.557 32.6248 148.405 32.4727C148.253 32.3206 148.177 32.1381 148.177 31.8947C148.177 31.6666 148.253 31.4689 148.405 31.3168C148.557 31.1647 148.739 31.0887 148.983 31.0887C149.211 31.0887 149.408 31.1647 149.561 31.3168ZM148.359 34.0848H149.606V41.8413H148.359V34.0848ZM158.676 34.0848V41.4611C158.676 43.8032 157.383 44.9743 154.828 44.9743C153.824 44.9743 153.003 44.7462 152.364 44.2899C151.725 43.8337 151.36 43.1949 151.269 42.3432H152.547C152.638 42.8299 152.896 43.2101 153.322 43.4687C153.733 43.7424 154.265 43.8641 154.919 43.8641C156.592 43.8641 157.429 43.058 157.429 41.4155V40.5029C156.866 41.4611 155.984 41.9326 154.767 41.9326C154.037 41.9326 153.398 41.7805 152.836 41.4611C152.273 41.1569 151.832 40.7006 151.512 40.0923C151.193 39.4992 151.041 38.7843 151.041 37.9631C151.041 37.1874 151.193 36.503 151.512 35.8947C151.832 35.3015 152.273 34.83 152.851 34.4955C153.413 34.1609 154.052 33.9936 154.767 33.9936C155.391 33.9936 155.923 34.1304 156.379 34.3738C156.82 34.6171 157.17 34.9669 157.429 35.4232L157.596 34.0848H158.676ZM156.212 40.4725C156.607 40.2292 156.912 39.8946 157.124 39.4687C157.337 39.0429 157.444 38.541 157.444 37.9935C157.444 37.446 157.337 36.9441 157.124 36.503C156.912 36.062 156.607 35.7122 156.212 35.4688C155.816 35.2255 155.375 35.1038 154.889 35.1038C154.113 35.1038 153.49 35.3776 153.018 35.9099C152.547 36.4422 152.318 37.1266 152.318 37.9631C152.318 38.8148 152.547 39.4992 153.018 40.0315C153.49 40.5638 154.113 40.8223 154.889 40.8223C155.375 40.8223 155.816 40.7159 156.212 40.4725ZM164.314 34.0848V35.3015H163.69C162.945 35.3015 162.413 35.5601 162.093 36.0468C161.774 36.5486 161.622 37.157 161.622 37.887V41.8413H160.375V34.0848H161.454L161.622 35.2559C161.835 34.9061 162.124 34.6171 162.489 34.4042C162.838 34.1913 163.325 34.0848 163.964 34.0848H164.314ZM172.337 40.7006V41.8413H171.653C171.151 41.8413 170.801 41.7501 170.588 41.5371C170.375 41.3394 170.254 41.0352 170.254 40.6398C169.645 41.5067 168.779 41.9326 167.653 41.9326C166.786 41.9326 166.087 41.7348 165.569 41.3242C165.052 40.9288 164.794 40.3661 164.794 39.6664C164.794 38.8908 165.052 38.2977 165.585 37.8718C166.117 37.4612 166.893 37.2482 167.912 37.2482H170.193V36.7159C170.193 36.214 170.01 35.8186 169.676 35.5297C169.341 35.2559 168.87 35.1038 168.261 35.1038C167.714 35.1038 167.273 35.2255 166.923 35.4688C166.573 35.7122 166.36 36.0163 166.284 36.4118H165.037C165.128 35.6513 165.463 35.0582 166.041 34.6323C166.619 34.2065 167.379 33.9936 168.322 33.9936C169.311 33.9936 170.071 34.2369 170.619 34.7236C171.166 35.2103 171.44 35.8947 171.44 36.792V40.1379C171.44 40.5181 171.607 40.7006 171.957 40.7006H172.337ZM170.193 38.2977H167.79C166.634 38.2977 166.056 38.7387 166.056 39.5904C166.056 39.9858 166.208 40.29 166.512 40.5181C166.817 40.7615 167.227 40.8679 167.744 40.8679C168.505 40.8679 169.098 40.6702 169.539 40.2748C169.965 39.8794 170.193 39.3471 170.193 38.6779V38.2977ZM173.813 35.2255H172.414V34.0848H173.813V31.91H175.06V34.0848H177.022V35.2255H175.06V39.8033C175.06 40.1379 175.121 40.3661 175.243 40.5029C175.365 40.6398 175.593 40.7006 175.912 40.7006H177.266V41.8413H175.836C175.106 41.8413 174.574 41.6892 174.27 41.3546C173.965 41.0352 173.813 40.5181 173.813 39.8185V35.2255ZM178.142 35.8795C178.446 35.2863 178.888 34.83 179.45 34.4955C179.998 34.1609 180.637 33.9936 181.367 33.9936C182.066 33.9936 182.705 34.1457 183.252 34.4346C183.8 34.7388 184.226 35.1646 184.545 35.7122C184.849 36.2749 185.017 36.9289 185.047 37.6741C185.047 37.7958 185.032 37.9631 185.017 38.2064H178.994V38.3129C179.009 39.0733 179.237 39.6817 179.694 40.1379C180.135 40.5942 180.713 40.8223 181.443 40.8223C181.99 40.8223 182.462 40.6854 182.857 40.4117C183.252 40.1379 183.511 39.7425 183.648 39.2406H184.91C184.758 40.0315 184.378 40.6854 183.77 41.1873C183.161 41.6892 182.416 41.9326 181.534 41.9326C180.758 41.9326 180.089 41.7805 179.511 41.4459C178.933 41.1113 178.477 40.655 178.158 40.0467C177.838 39.4383 177.686 38.7539 177.686 37.9631C177.686 37.1722 177.838 36.4878 178.142 35.8795ZM183.754 37.1722C183.694 36.5182 183.435 36.0011 183.009 35.6361C182.583 35.2711 182.036 35.0886 181.382 35.0886C180.789 35.0886 180.272 35.2863 179.83 35.6665C179.374 36.062 179.131 36.5639 179.07 37.1722H183.754ZM190.968 35.2255H189.569V34.0848H190.968V31.91H192.215V34.0848H194.177V35.2255H192.215V39.8033C192.215 40.1379 192.276 40.3661 192.397 40.5029C192.519 40.6398 192.747 40.7006 193.067 40.7006H194.42V41.8413H192.99C192.26 41.8413 191.728 41.6892 191.424 41.3546C191.12 41.0352 190.968 40.5181 190.968 39.8185V35.2255ZM196.681 41.4307C196.103 41.0961 195.647 40.6398 195.327 40.0315C194.993 39.4383 194.841 38.7539 194.841 37.9631C194.841 37.1874 194.993 36.503 195.327 35.8947C195.647 35.3015 196.103 34.83 196.681 34.4955C197.259 34.1609 197.928 33.9936 198.688 33.9936C199.434 33.9936 200.103 34.1609 200.681 34.4955C201.259 34.83 201.715 35.3015 202.049 35.8947C202.369 36.503 202.536 37.1874 202.536 37.9631C202.536 38.7539 202.369 39.4383 202.049 40.0315C201.715 40.6398 201.259 41.0961 200.681 41.4307C200.103 41.7653 199.434 41.9326 198.688 41.9326C197.928 41.9326 197.259 41.7653 196.681 41.4307ZM200.027 40.4573C200.422 40.214 200.726 39.8794 200.939 39.4383C201.152 39.0125 201.259 38.5106 201.259 37.9631C201.259 37.4155 201.152 36.9289 200.939 36.4878C200.726 36.062 200.422 35.7122 200.027 35.4688C199.631 35.2255 199.19 35.1038 198.688 35.1038C198.171 35.1038 197.73 35.2255 197.335 35.4688C196.939 35.7122 196.65 36.062 196.437 36.4878C196.225 36.9289 196.118 37.4155 196.118 37.9631C196.118 38.5106 196.225 39.0125 196.437 39.4383C196.65 39.8794 196.939 40.214 197.335 40.4573C197.73 40.7006 198.171 40.8223 198.688 40.8223C199.19 40.8223 199.631 40.7006 200.027 40.4573ZM208.464 35.2255H207.065V34.0848H208.464V31.91H209.711V34.0848H211.673V35.2255H209.711V39.8033C209.711 40.1379 209.772 40.3661 209.893 40.5029C210.015 40.6398 210.243 40.7006 210.563 40.7006H211.916V41.8413H210.487C209.757 41.8413 209.224 41.6892 208.92 41.3546C208.616 41.0352 208.464 40.5181 208.464 39.8185V35.2255ZM218.887 34.8453C219.465 35.4232 219.754 36.3053 219.754 37.522V41.8413H218.507V37.5981C218.507 36.8072 218.324 36.1988 217.959 35.773C217.594 35.3471 217.062 35.1342 216.393 35.1342C215.663 35.1342 215.1 35.3928 214.674 35.8947C214.248 36.4118 214.051 37.0962 214.051 37.9631V41.8413H212.803V31.1951H214.051V35.3624C214.294 34.9669 214.628 34.6323 215.054 34.3738C215.48 34.1304 215.997 33.9936 216.606 33.9936C217.549 33.9936 218.309 34.2825 218.887 34.8453ZM221.526 35.8795C221.83 35.2863 222.271 34.83 222.834 34.4955C223.381 34.1609 224.02 33.9936 224.75 33.9936C225.45 33.9936 226.089 34.1457 226.636 34.4346C227.184 34.7388 227.61 35.1646 227.929 35.7122C228.233 36.2749 228.4 36.9289 228.431 37.6741C228.431 37.7958 228.416 37.9631 228.4 38.2064H222.378V38.3129C222.393 39.0733 222.621 39.6817 223.077 40.1379C223.518 40.5942 224.096 40.8223 224.826 40.8223C225.374 40.8223 225.845 40.6854 226.241 40.4117C226.636 40.1379 226.895 39.7425 227.032 39.2406H228.294C228.142 40.0315 227.762 40.6854 227.153 41.1873C226.545 41.6892 225.8 41.9326 224.918 41.9326C224.142 41.9326 223.473 41.7805 222.895 41.4459C222.317 41.1113 221.861 40.655 221.541 40.0467C221.222 39.4383 221.07 38.7539 221.07 37.9631C221.07 37.1722 221.222 36.4878 221.526 35.8795ZM227.138 37.1722C227.077 36.5182 226.819 36.0011 226.393 35.6361C225.967 35.2711 225.419 35.0886 224.765 35.0886C224.172 35.0886 223.655 35.2863 223.214 35.6665C222.758 36.062 222.515 36.5639 222.454 37.1722H227.138ZM234.808 39.2862C234.823 39.7577 235.021 40.1379 235.416 40.4269C235.811 40.7311 236.313 40.8679 236.937 40.8679C237.484 40.8679 237.926 40.7615 238.26 40.5486C238.595 40.3356 238.777 40.0467 238.777 39.6817C238.777 39.3775 238.686 39.1493 238.534 38.9821C238.367 38.83 238.154 38.7083 237.895 38.6475C237.637 38.5866 237.272 38.5258 236.8 38.465C236.131 38.3889 235.583 38.2824 235.158 38.1456C234.732 38.0239 234.382 37.811 234.123 37.522C233.85 37.233 233.728 36.8376 233.728 36.3205C233.728 35.8642 233.85 35.4688 234.108 35.1038C234.367 34.754 234.716 34.4802 235.173 34.2825C235.614 34.0848 236.116 33.9784 236.678 33.9784C237.591 33.9784 238.321 34.1913 238.899 34.6171C239.477 35.043 239.796 35.6513 239.857 36.4422H238.61C238.549 36.0468 238.351 35.7122 238.017 35.4384C237.667 35.1798 237.241 35.043 236.724 35.043C236.192 35.043 235.766 35.1646 235.446 35.3776C235.112 35.5905 234.96 35.8795 234.96 36.2293C234.96 36.503 235.036 36.7007 235.188 36.8376C235.34 36.9897 235.523 37.081 235.766 37.1266C236.009 37.1874 236.374 37.233 236.861 37.2939C237.53 37.3851 238.093 37.4916 238.534 37.6285C238.975 37.7806 239.325 38.0087 239.598 38.3129C239.872 38.6322 240.009 39.0581 240.009 39.5904C240.009 40.0619 239.872 40.4725 239.598 40.8223C239.325 41.1873 238.945 41.4611 238.488 41.6436C238.017 41.8413 237.5 41.9326 236.937 41.9326C235.918 41.9326 235.097 41.7044 234.488 41.233C233.88 40.7767 233.561 40.1227 233.561 39.2862H234.808ZM248.101 34.0848V41.8413H247.021L246.853 40.8071C246.26 41.5676 245.439 41.9326 244.374 41.9326C243.447 41.9326 242.701 41.6588 242.154 41.0809C241.591 40.5181 241.317 39.6208 241.317 38.4041V34.0848H242.565V38.3281C242.565 39.1341 242.732 39.7425 243.082 40.1683C243.431 40.5942 243.933 40.7919 244.587 40.7919C245.287 40.7919 245.85 40.5486 246.245 40.0315C246.641 39.5296 246.853 38.8452 246.853 37.9631V34.0848H248.101ZM255.626 34.465C256.188 34.7844 256.629 35.2407 256.949 35.8338C257.268 36.4422 257.435 37.1418 257.435 37.9631C257.435 38.7539 257.268 39.4383 256.949 40.0315C256.629 40.6398 256.188 41.0961 255.626 41.4307C255.048 41.7653 254.409 41.9326 253.709 41.9326C253.071 41.9326 252.538 41.8261 252.097 41.598C251.641 41.3698 251.291 41.0505 251.048 40.655V44.8831H249.801V34.0848H250.88L251.048 35.3319C251.687 34.4498 252.584 33.9936 253.709 33.9936C254.424 33.9936 255.063 34.1609 255.626 34.465ZM255.443 40.0315C255.915 39.4992 256.158 38.8148 256.158 37.9631C256.158 37.1266 255.915 36.4422 255.443 35.9099C254.972 35.3776 254.348 35.1038 253.588 35.1038C253.086 35.1038 252.645 35.2255 252.249 35.4688C251.854 35.7122 251.565 36.0468 251.352 36.4726C251.139 36.8984 251.033 37.3851 251.033 37.9326C251.033 38.4954 251.139 38.9973 251.352 39.4383C251.565 39.8794 251.854 40.214 252.249 40.4573C252.645 40.7006 253.086 40.8223 253.588 40.8223C254.348 40.8223 254.972 40.5638 255.443 40.0315ZM259.043 35.8795C259.347 35.2863 259.788 34.83 260.351 34.4955C260.899 34.1609 261.537 33.9936 262.267 33.9936C262.967 33.9936 263.606 34.1457 264.153 34.4346C264.701 34.7388 265.127 35.1646 265.446 35.7122C265.75 36.2749 265.917 36.9289 265.948 37.6741C265.948 37.7958 265.933 37.9631 265.917 38.2064H259.895V38.3129C259.91 39.0733 260.138 39.6817 260.594 40.1379C261.035 40.5942 261.613 40.8223 262.343 40.8223C262.891 40.8223 263.362 40.6854 263.758 40.4117C264.153 40.1379 264.412 39.7425 264.549 39.2406H265.811C265.659 40.0315 265.279 40.6854 264.67 41.1873C264.062 41.6892 263.317 41.9326 262.435 41.9326C261.659 41.9326 260.99 41.7805 260.412 41.4459C259.834 41.1113 259.378 40.655 259.058 40.0467C258.739 39.4383 258.587 38.7539 258.587 37.9631C258.587 37.1722 258.739 36.4878 259.043 35.8795ZM264.655 37.1722C264.594 36.5182 264.336 36.0011 263.91 35.6361C263.484 35.2711 262.937 35.0886 262.283 35.0886C261.689 35.0886 261.172 35.2863 260.731 35.6665C260.275 36.062 260.032 36.5639 259.971 37.1722H264.655ZM271.31 34.0848V35.3015H270.686C269.941 35.3015 269.409 35.5601 269.09 36.0468C268.77 36.5486 268.618 37.157 268.618 37.887V41.8413H267.371V34.0848H268.451L268.618 35.2559C268.831 34.9061 269.12 34.6171 269.485 34.4042C269.835 34.1913 270.321 34.0848 270.96 34.0848H271.31ZM282.21 41.2025C281.602 41.6892 280.841 41.9326 279.929 41.9326C279.168 41.9326 278.514 41.7653 277.952 41.4307C277.374 41.0961 276.933 40.6398 276.629 40.0315C276.309 39.4231 276.157 38.7387 276.157 37.9479C276.157 37.1722 276.309 36.4878 276.629 35.8795C276.948 35.2863 277.404 34.83 277.982 34.4955C278.56 34.1609 279.214 33.9936 279.975 33.9936C280.887 33.9936 281.632 34.2369 282.225 34.7236C282.819 35.2103 283.199 35.8795 283.351 36.7311H282.089C281.967 36.2445 281.708 35.849 281.328 35.5449C280.933 35.2559 280.476 35.1038 279.929 35.1038C279.184 35.1038 278.575 35.3776 278.119 35.8947C277.663 36.427 277.435 37.1114 277.435 37.9479C277.435 38.7995 277.663 39.4992 278.119 40.0315C278.575 40.5638 279.184 40.8223 279.929 40.8223C280.492 40.8223 280.963 40.6854 281.359 40.3813C281.739 40.0923 281.982 39.6817 282.104 39.1646H283.351C283.184 40.0315 282.803 40.7159 282.21 41.2025ZM290.876 34.8453C291.454 35.4232 291.743 36.3053 291.743 37.522V41.8413H290.496V37.5981C290.496 36.8072 290.314 36.1988 289.949 35.773C289.584 35.3471 289.051 35.1342 288.382 35.1342C287.652 35.1342 287.089 35.3928 286.663 35.8947C286.238 36.4118 286.04 37.0962 286.04 37.9631V41.8413H284.793V31.1951H286.04V35.3624C286.283 34.9669 286.618 34.6323 287.044 34.3738C287.47 34.1304 287.987 33.9936 288.595 33.9936C289.538 33.9936 290.298 34.2825 290.876 34.8453ZM300.587 40.7006V41.8413H299.903C299.401 41.8413 299.051 41.7501 298.838 41.5371C298.626 41.3394 298.504 41.0352 298.504 40.6398C297.896 41.5067 297.029 41.9326 295.903 41.9326C295.036 41.9326 294.337 41.7348 293.82 41.3242C293.302 40.9288 293.044 40.3661 293.044 39.6664C293.044 38.8908 293.302 38.2977 293.835 37.8718C294.367 37.4612 295.143 37.2482 296.162 37.2482H298.443V36.7159C298.443 36.214 298.261 35.8186 297.926 35.5297C297.591 35.2559 297.12 35.1038 296.512 35.1038C295.964 35.1038 295.523 35.2255 295.173 35.4688C294.823 35.7122 294.61 36.0163 294.534 36.4118H293.287C293.378 35.6513 293.713 35.0582 294.291 34.6323C294.869 34.2065 295.629 33.9936 296.572 33.9936C297.561 33.9936 298.321 34.2369 298.869 34.7236C299.416 35.2103 299.69 35.8947 299.69 36.792V40.1379C299.69 40.5181 299.857 40.7006 300.207 40.7006H300.587ZM298.443 38.2977H296.04C294.884 38.2977 294.306 38.7387 294.306 39.5904C294.306 39.9858 294.458 40.29 294.762 40.5181C295.067 40.7615 295.477 40.8679 295.994 40.8679C296.755 40.8679 297.348 40.6702 297.789 40.2748C298.215 39.8794 298.443 39.3471 298.443 38.6779V38.2977ZM302.748 31.3168C302.9 31.4689 302.976 31.6666 302.976 31.8947C302.976 32.1381 302.9 32.3206 302.748 32.4727C302.596 32.6248 302.398 32.7008 302.17 32.7008C301.926 32.7008 301.744 32.6248 301.592 32.4727C301.44 32.3206 301.364 32.1381 301.364 31.8947C301.364 31.6666 301.44 31.4689 301.592 31.3168C301.744 31.1647 301.926 31.0887 302.17 31.0887C302.398 31.0887 302.596 31.1647 302.748 31.3168ZM301.546 34.0848H302.793V41.8413H301.546V34.0848ZM310.57 34.8453C311.148 35.4232 311.437 36.3053 311.437 37.522V41.8413H310.19V37.5981C310.19 36.8072 310.007 36.1988 309.642 35.773C309.277 35.3471 308.76 35.1342 308.091 35.1342C307.361 35.1342 306.783 35.3928 306.373 35.8947C305.947 36.4118 305.749 37.0962 305.749 37.9631V41.8413H304.502V34.0848H305.582L305.749 35.1342C306.327 34.3738 307.179 33.9936 308.304 33.9936C309.247 33.9936 309.992 34.2825 310.57 34.8453Z" fill="#666D80"/>
</g>
<rect x="-8" y="191.175" width="417.156" height="93.825" fill="url(#paint6_linear_850_9605)"/>
<path d="M344.977 108.224H312.386" stroke="url(#paint7_linear_850_9605)" stroke-width="1.08634" stroke-linecap="round"/>
<path d="M49.8955 144.394L49.8955 170.466" stroke="url(#paint8_linear_850_9605)" stroke-width="1.08634" stroke-linecap="round"/>
</g>
<defs>
<filter id="filter0_d_850_9605" x="141.213" y="155.629" width="156.7" height="54.3172" filterUnits="userSpaceOnUse" color-interpolation-filters="sRGB">
<feFlood flood-opacity="0" result="BackgroundImageFix"/>
<feColorMatrix in="SourceAlpha" type="matrix" values="0 0 0 0 0 0 0 0 0 0 0 0 0 0 0 0 0 0 127 0" result="hardAlpha"/>
<feOffset dy="1.08634"/>
<feGaussianBlur stdDeviation="1.08634"/>
<feComposite in2="hardAlpha" operator="out"/>
<feColorMatrix type="matrix" values="0 0 0 0 0.113725 0 0 0 0 0.113725 0 0 0 0 0.12549 0 0 0 0.05 0"/>
<feBlend mode="normal" in2="BackgroundImageFix" result="effect1_dropShadow_850_9605"/>
<feBlend mode="normal" in="SourceGraphic" in2="effect1_dropShadow_850_9605" result="shape"/>
</filter>
<filter id="filter1_d_850_9605" x="32.1486" y="82.1518" width="258.049" height="56.4899" filterUnits="userSpaceOnUse" color-interpolation-filters="sRGB">
<feFlood flood-opacity="0" result="BackgroundImageFix"/>
<feColorMatrix in="SourceAlpha" type="matrix" values="0 0 0 0 0 0 0 0 0 0 0 0 0 0 0 0 0 0 127 0" result="hardAlpha"/>
<feOffset dy="1.08634"/>
<feGaussianBlur stdDeviation="1.08634"/>
<feComposite in2="hardAlpha" operator="out"/>
<feColorMatrix type="matrix" values="0 0 0 0 0.113725 0 0 0 0 0.113725 0 0 0 0 0.12549 0 0 0 0.05 0"/>
<feBlend mode="normal" in2="BackgroundImageFix" result="effect1_dropShadow_850_9605"/>
<feBlend mode="normal" in="SourceGraphic" in2="effect1_dropShadow_850_9605" result="shape"/>
</filter>
<filter id="filter2_d_850_9605" x="80.3132" y="8.6827" width="247.418" height="56.4899" filterUnits="userSpaceOnUse" color-interpolation-filters="sRGB">
<feFlood flood-opacity="0" result="BackgroundImageFix"/>
<feColorMatrix in="SourceAlpha" type="matrix" values="0 0 0 0 0 0 0 0 0 0 0 0 0 0 0 0 0 0 127 0" result="hardAlpha"/>
<feOffset dy="1.08634"/>
<feGaussianBlur stdDeviation="1.08634"/>
<feComposite in2="hardAlpha" operator="out"/>
<feColorMatrix type="matrix" values="0 0 0 0 0.113725 0 0 0 0 0.113725 0 0 0 0 0.12549 0 0 0 0.05 0"/>
<feBlend mode="normal" in2="BackgroundImageFix" result="effect1_dropShadow_850_9605"/>
<feBlend mode="normal" in="SourceGraphic" in2="effect1_dropShadow_850_9605" result="shape"/>
</filter>
<linearGradient id="paint0_linear_850_9605" x1="352.968" y1="34.7552" x2="373.393" y2="53.5107" gradientUnits="userSpaceOnUse">
<stop stop-color="#0066FF" stop-opacity="0"/>
<stop offset="0.46875" stop-color="#0066FF"/>
<stop offset="0.96875" stop-color="#0066FF" stop-opacity="0"/>
</linearGradient>
<linearGradient id="paint1_linear_850_9605" x1="169.458" y1="170.838" x2="169.458" y2="192.736" gradientUnits="userSpaceOnUse">
<stop stop-color="#804AFA"/>
<stop offset="1" stop-color="#5A30B9"/>
</linearGradient>
<linearGradient id="paint2_linear_850_9605" x1="60.3937" y1="98.4468" x2="60.3937" y2="120.174" gradientUnits="userSpaceOnUse">
<stop stop-color="#00BA6F"/>
<stop offset="1" stop-color="#0CA96A"/>
</linearGradient>
<linearGradient id="paint3_linear_850_9605" x1="108.558" y1="26.0642" x2="108.558" y2="45.6191" gradientUnits="userSpaceOnUse">
<stop stop-color="#0066FF"/>
<stop offset="1" stop-color="#4F95FF"/>
</linearGradient>
<linearGradient id="paint4_linear_850_9605" x1="108.558" y1="26.0642" x2="108.558" y2="45.6191" gradientUnits="userSpaceOnUse">
<stop stop-color="#0066FF"/>
<stop offset="1" stop-color="#4F95FF"/>
</linearGradient>
<linearGradient id="paint5_linear_850_9605" x1="108.558" y1="26.0642" x2="108.558" y2="45.6191" gradientUnits="userSpaceOnUse">
<stop stop-color="#0066FF"/>
<stop offset="1" stop-color="#4F95FF"/>
</linearGradient>
<linearGradient id="paint6_linear_850_9605" x1="165.669" y1="271.474" x2="165.669" y2="191.175" gradientUnits="userSpaceOnUse">
<stop stop-color="#FAFAFA"/>
<stop offset="1" stop-color="#FAFAFA" stop-opacity="0"/>
</linearGradient>
<linearGradient id="paint7_linear_850_9605" x1="311.12" y1="108.224" x2="344.977" y2="108.224" gradientUnits="userSpaceOnUse">
<stop stop-color="#00BA6F" stop-opacity="0"/>
<stop offset="0.513509" stop-color="#00BA6F"/>
<stop offset="1" stop-color="#00BA6F" stop-opacity="0"/>
</linearGradient>
<linearGradient id="paint8_linear_850_9605" x1="49.8955" y1="171.479" x2="49.8955" y2="144.394" gradientUnits="userSpaceOnUse">
<stop stop-color="#7B13FF" stop-opacity="0"/>
<stop offset="0.513509" stop-color="#7B13FF"/>
<stop offset="1" stop-color="#7B13FF" stop-opacity="0"/>
</linearGradient>
<clipPath id="clip0_850_9605">
<rect width="402" height="231" fill="white"/>
</clipPath>
</defs>
</svg>
