<svg xmlns="http://www.w3.org/2000/svg" width="20" height="21" viewBox="0 0 20 21" fill="none">
  <mask id="path-1-inside-1_1343_7061" fill="white">
    <path d="M2 6.14905C2 3.93991 3.79086 2.14905 6 2.14905H14C16.2091 2.14905 18 3.93991 18 6.14905V14.149C18 16.3582 16.2091 18.149 14 18.149H6C3.79086 18.149 2 16.3582 2 14.149V6.14905Z"/>
  </mask>
  <g filter="url(#filter0_i_1343_7061)">
    <path d="M2 6.14905C2 3.93991 3.79086 2.14905 6 2.14905H14C16.2091 2.14905 18 3.93991 18 6.14905V14.149C18 16.3582 16.2091 18.149 14 18.149H6C3.79086 18.149 2 16.3582 2 14.149V6.14905Z" fill="#375DFB"/>
  </g>
  <path d="M2 6.14905C2 3.38762 4.23858 1.14905 7 1.14905H13C15.7614 1.14905 18 3.38762 18 6.14905C18 4.49219 16.2091 3.14905 14 3.14905H6C3.79086 3.14905 2 4.49219 2 6.14905ZM18 18.149H2H18ZM2 18.149V2.14905V18.149ZM18 2.14905V18.149V2.14905Z" fill="#253EA7" mask="url(#path-1-inside-1_1343_7061)"/>
  <path fill-rule="evenodd" clip-rule="evenodd" d="M14.5294 8.17937L8.99908 13.7097L5.46875 10.1794L6.52941 9.11871L8.99908 11.5884L13.4688 7.11871L14.5294 8.17937Z" fill="white"/>
  <defs>
    <filter id="filter0_i_1343_7061" x="2" y="2.14905" width="16" height="18" filterUnits="userSpaceOnUse" color-interpolation-filters="sRGB">
      <feFlood flood-opacity="0" result="BackgroundImageFix"/>
      <feBlend mode="normal" in="SourceGraphic" in2="BackgroundImageFix" result="shape"/>
      <feColorMatrix in="SourceAlpha" type="matrix" values="0 0 0 0 0 0 0 0 0 0 0 0 0 0 0 0 0 0 127 0" result="hardAlpha"/>
      <feOffset dy="2"/>
      <feGaussianBlur stdDeviation="1"/>
      <feComposite in2="hardAlpha" operator="arithmetic" k2="-1" k3="1"/>
      <feColorMatrix type="matrix" values="0 0 0 0 0.0864 0 0 0 0 0.14784 0 0 0 0 0.3936 0 0 0 0.32 0"/>
      <feBlend mode="normal" in2="shape" result="effect1_innerShadow_1343_7061"/>
    </filter>
  </defs>
</svg>