<svg xmlns="http://www.w3.org/2000/svg" width="20" height="20" viewBox="0 0 20 20" fill="none">
  <path d="M8.125 10.3125L6.5625 11.875L8.125 13.4375L9.6875 11.875L8.125 10.3125ZM11.875 4.0625C9.73275 4.0625 7.97777 5.72065 7.82352 7.82352C5.72065 7.97778 4.0625 9.73275 4.0625 11.875C4.0625 14.1187 5.88134 15.9375 8.125 15.9375C10.2672 15.9375 12.0222 14.2794 12.1765 12.1765C14.2794 12.0222 15.9375 10.2672 15.9375 8.125C15.9375 5.88134 14.1187 4.0625 11.875 4.0625ZM12.0771 10.9304C11.7234 9.44537 10.5546 8.27653 9.06963 7.92291C9.17325 6.46393 10.3896 5.3125 11.875 5.3125C13.4283 5.3125 14.6875 6.5717 14.6875 8.125C14.6875 9.61038 13.5361 10.8267 12.0771 10.9304ZM10.9375 11.875C10.9375 13.4283 9.67831 14.6875 8.125 14.6875C6.5717 14.6875 5.3125 13.4283 5.3125 11.875C5.3125 10.3217 6.5717 9.0625 8.125 9.0625C9.67831 9.0625 10.9375 10.3217 10.9375 11.875ZM4.375 6.875C4.375 5.49429 5.49429 4.375 6.875 4.375H7.8125V5.625H6.875C6.18464 5.625 5.625 6.18464 5.625 6.875V7.8125H4.375V6.875ZM14.375 13.125V12.1875H15.625V13.125C15.625 14.5057 14.5057 15.625 13.125 15.625H12.1875V14.375H13.125C13.8154 14.375 14.375 13.8154 14.375 13.125Z" fill="#525866"/>
</svg>