<svg xmlns="http://www.w3.org/2000/svg" width="50" height="50" viewBox="0 0 50 50" fill="none">
  <path d="M49.2503 31.0476C45.9114 44.4406 32.3465 52.5913 18.9519 49.2515C5.56293 45.9126 -2.58778 32.3468 0.752619 18.9549C4.09008 5.56048 17.655 -2.59085 31.0454 0.748085C44.439 4.08702 52.5893 17.6543 49.25 31.0479L49.2502 31.0476H49.2503Z" fill="#F7931A"/>
  <path fill-rule="evenodd" clip-rule="evenodd" d="M36.0246 21.4381C36.5222 18.1111 33.9893 16.3228 30.5257 15.1297L31.6493 10.6231L28.906 9.93951L27.8122 14.3275C27.091 14.1476 26.3504 13.9781 25.6142 13.8101L26.716 9.39317L23.9743 8.70959L22.8501 13.2148C22.2533 13.0789 21.6671 12.9446 21.0984 12.8031L21.1016 12.7889L17.3185 11.8442L16.5887 14.7743C16.5887 14.7743 18.624 15.2408 18.5812 15.2695C19.692 15.5468 19.8929 16.2822 19.8596 16.8651L18.5797 21.9992C18.6562 22.0186 18.7554 22.0467 18.8649 22.0907L18.7853 22.0709L18.785 22.0708C18.7174 22.0539 18.6471 22.0363 18.5749 22.019L16.7809 29.2112C16.6452 29.5487 16.3006 30.0552 15.5239 29.8629C15.5514 29.9027 13.53 29.3653 13.53 29.3653L12.168 32.5055L15.738 33.3955C16.1288 33.4935 16.5151 33.5942 16.8974 33.6939L16.8977 33.6939C17.1649 33.7636 17.4302 33.8328 17.6939 33.9002L16.5587 38.4585L19.2988 39.1421L20.423 34.6321C21.1716 34.8353 21.8981 35.0228 22.6093 35.1995L21.4888 39.6882L24.2323 40.3718L25.3674 35.822C30.0454 36.7073 33.5628 36.3504 35.0434 32.1191C36.2364 28.7125 34.984 26.7476 32.5229 25.4662C34.3155 25.0528 35.6656 23.8738 36.0256 21.4384L36.0248 21.4378L36.0246 21.4381ZM29.7567 30.2273C28.9789 33.3527 24.0867 32.0606 21.8483 31.4694L21.848 31.4693C21.6468 31.4162 21.467 31.3687 21.3136 31.3306L22.8201 25.2916C23.0071 25.3383 23.2357 25.3896 23.4946 25.4477C25.8099 25.9673 30.5537 27.0319 29.7569 30.2273H29.7567ZM23.959 22.6449C25.8252 23.1429 29.8962 24.2294 30.6052 21.3887H30.6054C31.3294 18.4834 27.3731 17.6075 25.4408 17.1797C25.2234 17.1316 25.0317 17.0891 24.8751 17.0501L23.5093 22.5271C23.6382 22.5592 23.7895 22.5996 23.959 22.6449Z" fill="white"/>
</svg>