<svg xmlns="http://www.w3.org/2000/svg" width="25" height="24" viewBox="0 0 25 24" fill="none">
  <path d="M7.99844 6.6V3.9C7.99844 3.66131 8.09326 3.43239 8.26204 3.2636C8.43082 3.09482 8.65974 3 8.89844 3H19.6984C19.9371 3 20.1661 3.09482 20.3348 3.2636C20.5036 3.43239 20.5984 3.66131 20.5984 3.9V16.5C20.5984 16.7387 20.5036 16.9676 20.3348 17.1364C20.1661 17.3052 19.9371 17.4 19.6984 17.4H16.9984V20.1C16.9984 20.5968 16.5934 21 16.0921 21H5.30474C5.18605 21.0007 5.0684 20.978 4.95853 20.9331C4.84866 20.8882 4.74875 20.822 4.66453 20.7384C4.58031 20.6547 4.51345 20.5553 4.46779 20.4457C4.42212 20.3362 4.39855 20.2187 4.39844 20.1L4.40114 7.5C4.40114 7.0032 4.80614 6.6 5.30744 6.6H7.99844ZM6.20114 8.4L6.19844 19.2H15.1984V8.4H6.20114ZM9.79844 6.6H16.9984V15.6H18.7984V4.8H9.79844V6.6Z" fill="#0A0D14"/>
</svg>