<svg xmlns="http://www.w3.org/2000/svg" width="21" height="21" viewBox="0 0 21 21" fill="none">
  <path d="M14.25 5.5127H18V7.0127H16.5V16.7627C16.5 16.9616 16.421 17.1524 16.2803 17.293C16.1397 17.4337 15.9489 17.5127 15.75 17.5127H5.25C5.05109 17.5127 4.86032 17.4337 4.71967 17.293C4.57902 17.1524 4.5 16.9616 4.5 16.7627V7.0127H3V5.5127H6.75V3.2627C6.75 3.06378 6.82902 2.87302 6.96967 2.73237C7.11032 2.59171 7.30109 2.5127 7.5 2.5127H13.5C13.6989 2.5127 13.8897 2.59171 14.0303 2.73237C14.171 2.87302 14.25 3.06378 14.25 3.2627V5.5127ZM15 7.0127H6V16.0127H15V7.0127ZM8.25 9.2627H9.75V13.7627H8.25V9.2627ZM11.25 9.2627H12.75V13.7627H11.25V9.2627ZM8.25 4.0127V5.5127H12.75V4.0127H8.25Z" fill="#525866"/>
</svg>