<svg xmlns="http://www.w3.org/2000/svg" width="28" height="29" viewBox="0 0 28 29" fill="none">
  <path d="M14 24.5127C8.20085 24.5127 3.5 19.8118 3.5 14.0127C3.5 8.21355 8.20085 3.5127 14 3.5127C19.7991 3.5127 24.5 8.21355 24.5 14.0127C24.5 19.8118 19.7991 24.5127 14 24.5127ZM14 22.4127C16.2278 22.4127 18.3644 21.5277 19.9397 19.9524C21.515 18.3771 22.4 16.2405 22.4 14.0127C22.4 11.7849 21.515 9.6483 19.9397 8.073C18.3644 6.49769 16.2278 5.6127 14 5.6127C11.7722 5.6127 9.63561 6.49769 8.0603 8.073C6.485 9.6483 5.6 11.7849 5.6 14.0127C5.6 16.2405 6.485 18.3771 8.0603 19.9524C9.63561 21.5277 11.7722 22.4127 14 22.4127V22.4127ZM12.95 17.1627H15.05V19.2627H12.95V17.1627ZM12.95 8.7627H15.05V15.0627H12.95V8.7627Z" fill="#525866"/>
</svg>