<svg width="1440" height="112" viewBox="0 0 1440 112" fill="none" xmlns="http://www.w3.org/2000/svg">
<path d="M162.204 77.3799H134.337V105.247H162.204V77.3799Z" fill="#D7FF00"/>
<path d="M134.337 49.5117H106.469V77.3791H134.337V49.5117Z" fill="#D7FF00"/>
<path d="M134.337 105.246H106.469V133.113H134.337V105.246Z" fill="#D7FF00"/>
<path d="M106.469 21.644H78.6021V49.5114H106.469V21.644Z" fill="#D7FF00"/>
<path d="M78.602 77.3799H50.7346V105.247H78.602V77.3799Z" fill="#D7FF00"/>
<path d="M50.7345 49.5117H22.8672V77.3791H50.7345V49.5117Z" fill="#D7FF00"/>
<path d="M50.7345 105.246H22.8672V133.113H50.7345V105.246Z" fill="#D7FF00"/>
<path d="M22.8673 21.644H-5V49.5114H22.8673V21.644Z" fill="#D7FF00"/>
<path fill-rule="evenodd" clip-rule="evenodd" d="M926.251 0H907.736V27.6774H926.251V0ZM917.173 42.2186H889.231V59.6557H907.915V122.164H889.231V139.602H945.114V122.164H926.43V51.4761C926.43 48.334 926.058 45.8272 924.44 44.2092C922.822 42.5913 920.315 42.2186 917.173 42.2186ZM1356.38 51.4017C1364.2 43.116 1376.04 39.3445 1392.04 39.3445H1395.63C1411.72 39.3445 1423.65 43.1149 1431.53 51.3973C1439.4 59.6648 1442.97 72.1613 1442.97 89.0241V97.0241H1363.58C1363.75 107.699 1366.03 114.408 1370.6 118.54C1375.39 122.876 1383.03 124.68 1394.55 124.68H1397.07C1406.38 124.68 1412.58 123.727 1416.85 121.267C1421.02 118.867 1423.56 114.904 1425.22 108.278L1425.47 107.254H1444.67L1444.39 108.841C1442.37 120.314 1437.74 128.805 1429.92 134.387C1422.14 139.941 1411.4 142.476 1397.43 142.476H1393.83C1377.23 142.476 1364.94 138.805 1356.83 130.623C1348.72 122.444 1345.05 110.026 1345.05 93.1561V89.0241C1345.05 72.1651 1348.58 59.6698 1356.38 51.4017ZM1364.06 80.3055H1423.96C1423.04 71.7738 1420.58 66.1699 1416.36 62.6166C1411.88 58.8397 1405.14 57.141 1395.27 57.141H1392.76C1382.69 57.141 1375.96 58.757 1371.53 62.4826C1367.36 65.9893 1364.98 71.5878 1364.06 80.3055ZM1295.69 8.9829H1277.17V42.2188H1254.36V59.6559H1277.17V130.344C1277.17 133.486 1277.54 135.993 1279.16 137.611C1280.78 139.229 1283.29 139.602 1286.43 139.602H1333.77V122.165H1295.69V59.6559H1332.34V42.2188H1295.69V8.9829ZM1165.69 47.8722C1172.51 41.9566 1183.02 39.3445 1197.77 39.3445H1201C1215.91 39.3445 1226.98 42.7044 1234.31 50.1939C1241.62 57.6766 1244.93 69.0129 1244.93 84.3531V121.446H1252.3V139.602H1238.37C1233.87 139.602 1230.54 138.789 1228.55 135.786C1227.6 134.355 1227.04 132.539 1226.7 130.345C1226.41 128.463 1226.28 126.232 1226.24 123.613H1225.91C1223.82 130.351 1220.35 135.085 1215.11 138.117C1209.68 141.259 1202.53 142.476 1193.46 142.476H1189.32C1177.77 142.476 1168.69 140.163 1162.48 135C1156.22 129.795 1153.12 121.9 1153.12 111.301C1153.12 101.055 1156.17 93.2163 1162.33 87.972C1168.44 82.7622 1177.39 80.3055 1188.78 80.3055H1226.22C1226.06 71.311 1224.27 65.624 1220.63 62.1049C1216.8 58.4017 1210.62 56.7817 1201 56.7817H1198.13C1188.74 56.7817 1182.67 58.0942 1178.93 60.9105C1175.31 63.6451 1173.61 68.0284 1173.61 75.0111V76.3639H1155.99V75.0111C1155.99 62.8791 1158.82 53.831 1165.69 47.8722ZM1176.05 99.9082C1173.14 101.906 1171.81 105.136 1171.81 110.583C1171.81 116.351 1173.39 119.81 1176.25 121.912C1179.21 124.091 1183.82 125.039 1190.4 125.039H1193.63C1205.42 125.039 1213.49 123.193 1218.63 118.867C1223.67 114.628 1226.19 107.741 1226.24 96.8444H1192.38C1184.22 96.8444 1179.12 97.8046 1176.05 99.9082ZM1132.87 39.3447C1125.07 39.3447 1118.19 41.6207 1112.99 44.6489C1108.59 47.2121 1105.25 50.4073 1103.67 53.3576C1103.58 49.556 1102.99 46.6759 1101.11 44.7937C1099.04 42.7224 1095.76 42.2192 1091.37 42.2192H1067.92V59.6563H1085.17V139.602H1103.68V83.0957C1103.68 67.2685 1117.31 57.1412 1130.18 57.1412H1145.9V39.3447H1132.87ZM969.381 47.4651C976.718 41.7794 987.774 39.1646 1002.7 39.1646H1052.56V54.4459H1037.46C1043.4 59.924 1046.46 67.634 1046.46 76.6277C1046.46 86.4325 1042.92 93.9441 1035.46 98.9294C1028.1 103.844 1017.08 106.186 1002.35 106.186H980.787C977.488 106.186 975.629 106.606 974.589 107.349C973.686 107.994 973.157 109.076 973.157 111.301C973.157 112.113 973.284 112.674 973.484 113.076C973.673 113.455 973.967 113.775 974.46 114.048C975.541 114.649 977.468 114.978 980.787 114.978H1009.17C1023.83 114.978 1034.7 117.456 1041.93 122.957C1049.23 128.523 1052.56 136.985 1052.56 148.309C1052.56 158.09 1049.05 166.592 1041.45 172.613C1033.89 178.597 1022.46 182 1006.84 182H998.393C982.72 182 971.206 179.062 963.579 173.547C955.877 167.978 952.307 159.905 952.307 150.106C952.307 142.918 953.964 137.327 957.81 133.555C961.42 130.015 966.728 128.304 973.685 128.111V127.924H972.343C966.576 127.924 962.123 126.927 959.097 124.587C955.994 122.188 954.642 118.581 954.642 113.996C954.642 109.248 955.983 105.55 959.086 103.098C962.116 100.705 966.578 99.7078 972.343 99.7078H973.685V99.0359C968.481 96.4489 964.737 92.9451 962.279 88.6898C959.707 84.2363 958.594 79.048 958.594 73.3939C958.594 61.8914 961.967 53.2103 969.381 47.4651ZM981.743 60.6091C978.013 63.0037 976.391 66.8155 976.391 73.0346C976.391 78.9613 977.998 82.5926 981.721 84.8851C985.635 87.2957 992.116 88.3896 1002.35 88.3896C1012.76 88.3896 1019.38 87.296 1023.38 84.8786C1025.34 83.6983 1026.68 82.1996 1027.54 80.312C1028.42 78.3998 1028.84 76.0163 1028.84 73.0346C1028.84 66.7327 1027.18 62.9271 1023.37 60.5512C1019.37 58.0564 1012.76 56.961 1002.35 56.961C992.119 56.961 985.65 58.1001 981.743 60.6091ZM972.541 140.459C971.631 142.511 971.181 145.176 971.181 148.669C971.181 153.505 972.856 157.26 976.878 159.887C981.017 162.591 987.792 164.203 998.214 164.203H1006.48C1016.99 164.203 1023.8 162.546 1027.96 159.761C1032 157.052 1033.69 153.163 1033.69 148.13C1033.69 144.685 1033.23 142.086 1032.31 140.102C1031.4 138.156 1030.01 136.722 1027.99 135.649C1025.93 134.557 1023.18 133.827 1019.57 133.379C1015.96 132.932 1011.58 132.775 1006.3 132.775H998.034C992.845 132.775 988.549 132.954 985.018 133.436C981.481 133.919 978.796 134.694 976.782 135.833C974.803 136.953 973.436 138.443 972.541 140.459ZM762.83 44.3435C767.789 41.3633 773.911 39.3445 780.122 39.3445H783.715C796.576 39.3445 806.114 44.5118 811.321 54.6151H813.737C815.587 50.7757 819.37 47.1013 824.007 44.3407C829.009 41.3625 835.174 39.3445 841.384 39.3445H844.977C854.875 39.3445 862.872 42.4066 868.376 48.5775C873.858 54.7241 876.692 63.7606 876.692 75.3705V139.602H858.176V80.7601C858.176 72.5326 857.178 66.5949 854.647 62.7269C852.21 59.0026 848.182 56.9614 841.384 56.9614H838.346C827.208 57.2274 821.733 60.536 818.896 65.2445C815.954 70.1278 815.609 76.8388 815.609 84.5328V139.602H797.094V80.7601C797.094 72.5691 795.88 66.6361 793.143 62.7675C790.484 59.0079 786.206 56.9614 779.404 56.9614H776.366C765.228 57.2274 759.355 60.5399 756.162 65.3C752.885 70.184 752.192 76.9023 752.192 84.5328V139.602H733.677V42.219H752.192V54.6151H752.654C754.497 50.7809 758.232 47.1066 762.83 44.3435ZM711.635 39.3445C703.828 39.3445 696.948 41.6205 691.753 44.6488C687.356 47.2119 684.017 50.4072 682.433 53.3574C682.342 49.5559 681.754 46.6758 679.872 44.7935C677.801 42.7222 674.521 42.219 670.135 42.219H646.685V59.6562H663.932V139.602H682.447V83.0956C682.447 67.2683 696.073 57.141 708.94 57.141H724.665V39.3445H711.635ZM552.325 51.4017C560.14 43.116 571.985 39.3445 587.983 39.3445H591.576C607.661 39.3445 619.593 43.1149 627.476 51.3973C635.344 59.6648 638.92 72.1613 638.92 89.0241V97.0241H559.524C559.699 107.699 561.98 114.408 566.546 118.54C571.339 122.876 578.975 124.68 590.498 124.68H593.013C602.325 124.68 608.523 123.727 612.796 121.267C616.965 118.867 619.507 114.904 621.164 108.278L621.42 107.254H640.616L640.337 108.841C638.317 120.314 633.687 128.805 625.867 134.387C618.087 139.941 607.343 142.476 593.372 142.476H589.779C573.174 142.476 560.887 138.805 552.775 130.623C544.667 122.444 540.998 110.026 540.998 93.1561V89.0241C540.998 72.1651 544.527 59.6698 552.325 51.4017ZM560.005 80.3055H619.909C618.984 71.7738 616.524 66.1699 612.307 62.6166C607.825 58.8397 601.081 57.141 591.216 57.141H588.701C578.637 57.141 571.904 58.757 567.475 62.4826C563.306 65.9893 560.921 71.5878 560.005 80.3055ZM482.363 39.3445C474.722 39.3445 467.961 40.9106 462.208 44.2919C456.655 47.5554 452.125 52.4617 448.659 59.1064H448.324V42.219H429.809V179.126H448.324V122.176H448.562C451.273 128.9 455.426 133.94 460.978 137.316C466.75 140.827 473.93 142.476 482.363 142.476H485.417C499.581 142.476 510.228 138.631 517.286 130.226C524.301 121.874 527.552 109.274 527.552 92.2579V89.2038C527.552 72.2762 524.301 59.7634 517.283 51.478C510.222 43.1425 499.577 39.3445 485.417 39.3445H482.363ZM448.324 89.7427C448.324 80.4679 450.273 72.2273 454.783 66.3341C459.245 60.5034 466.361 56.7817 477.153 56.7817H478.95C490.532 56.7817 497.796 58.89 502.246 63.7937C506.733 68.7376 508.677 76.8576 508.677 89.7427V91.8986C508.677 104.598 506.735 112.725 502.242 117.717C497.788 122.667 490.519 124.86 478.95 124.86H476.974C466.968 124.86 459.867 120.828 455.232 114.768C450.562 108.662 448.324 100.397 448.324 91.8986V89.7427ZM320.676 42.2181H339.191V101.419C339.191 110.498 340.718 116.272 343.797 119.797C346.831 123.271 351.647 124.859 359.037 124.859H363.169C374.393 124.859 381.856 121.535 386.525 116.551C391.21 111.549 393.256 104.687 393.256 97.2873V42.2181H411.771V139.601H393.256V127.025H392.749C390.898 132.8 386.611 136.635 381.014 139.021C375.137 141.526 367.744 142.476 359.935 142.476H356.881C345.889 142.476 336.785 139.681 330.43 133.539C324.067 127.39 320.676 118.094 320.676 105.551V42.2181ZM259.491 39.3445C246.388 39.3445 236.665 41.2764 230.192 45.6389C223.601 50.0812 220.59 56.8923 220.59 66.0285V68.1843C220.59 75.9676 223.096 82.1227 228.525 86.7113C233.882 91.2387 241.946 94.1201 252.822 95.7515L273.123 98.8056C278.525 99.6159 282.014 100.615 284.2 102.528C286.288 104.355 287.421 107.246 287.421 112.559C287.421 115.033 287.036 116.968 286.253 118.501C285.482 120.01 284.276 121.224 282.459 122.188C278.721 124.17 272.52 125.039 262.724 125.039H259.85C249.357 125.039 242.751 123.763 238.755 120.832C234.889 117.998 233.177 113.375 233.177 105.732V104.379H215.021V105.732C215.021 118.186 218.371 127.492 225.797 133.633C233.163 139.724 244.282 142.476 259.311 142.476H262.545C277.173 142.476 288.008 140.365 295.216 135.678C302.547 130.91 305.936 123.607 305.936 113.816V110.583C305.936 101.961 303.515 95.184 298.21 90.2151C292.953 85.291 285.04 82.3112 274.405 80.857L252.491 77.8033L252.483 77.8023C247.207 77.0988 243.869 75.7592 241.864 74.0493C239.925 72.3957 239.105 70.2853 239.105 67.6453C239.105 65.4336 239.437 63.7287 240.096 62.3952C240.743 61.0872 241.75 60.0471 243.27 59.2232C246.417 57.5176 251.666 56.7817 260.03 56.7817H262.904C271.99 56.7817 277.706 57.5166 281.137 59.2424C282.8 60.0785 283.883 61.1287 284.572 62.429C285.274 63.7521 285.625 65.4432 285.625 67.6453V68.9981H303.96V67.6453C303.96 57.8839 300.772 50.6659 293.796 45.9749C286.94 41.3652 276.632 39.3445 262.724 39.3445H259.491Z" fill="#D7FF00"/>
</svg>
