<svg xmlns="http://www.w3.org/2000/svg" width="20" height="20" viewBox="0 0 20 20" fill="none">
  <path d="M6.25 5.625C5.90482 5.625 5.625 5.90482 5.625 6.25C5.625 6.59518 5.90482 6.875 6.25 6.875C6.59518 6.875 6.875 6.59518 6.875 6.25C6.875 5.90482 6.59518 5.625 6.25 5.625ZM4.375 6.25C4.375 5.21447 5.21447 4.375 6.25 4.375C7.28553 4.375 8.125 5.21447 8.125 6.25C8.125 7.06639 7.60324 7.76091 6.875 8.01831V11.9817C7.60324 12.2391 8.125 12.9336 8.125 13.75C8.125 14.7856 7.28553 15.625 6.25 15.625C5.21447 15.625 4.375 14.7856 4.375 13.75C4.375 12.9336 4.89676 12.2391 5.625 11.9817V8.01831C4.89676 7.76091 4.375 7.06639 4.375 6.25ZM12.0581 4.55806C12.3021 4.31398 12.6979 4.31398 12.9419 4.55806L13.75 5.36612L14.5581 4.55806C14.8021 4.31398 15.1979 4.31398 15.4419 4.55806C15.686 4.80214 15.686 5.19786 15.4419 5.44194L14.6339 6.25L15.4419 7.05806C15.686 7.30214 15.686 7.69786 15.4419 7.94194C15.1979 8.18602 14.8021 8.18602 14.5581 7.94194L13.75 7.13388L12.9419 7.94194C12.6979 8.18602 12.3021 8.18602 12.0581 7.94194C11.814 7.69786 11.814 7.30214 12.0581 7.05806L12.8661 6.25L12.0581 5.44194C11.814 5.19786 11.814 4.80214 12.0581 4.55806ZM13.75 8.75C14.0952 8.75 14.375 9.02981 14.375 9.375V11.9817C15.1032 12.2391 15.625 12.9336 15.625 13.75C15.625 14.7856 14.7856 15.625 13.75 15.625C12.7144 15.625 11.875 14.7856 11.875 13.75C11.875 12.9336 12.3968 12.2391 13.125 11.9817V9.375C13.125 9.02981 13.4048 8.75 13.75 8.75ZM6.25 13.125C5.90482 13.125 5.625 13.4048 5.625 13.75C5.625 14.0952 5.90482 14.375 6.25 14.375C6.59518 14.375 6.875 14.0952 6.875 13.75C6.875 13.4048 6.59518 13.125 6.25 13.125ZM13.75 13.125C13.4048 13.125 13.125 13.4048 13.125 13.75C13.125 14.0952 13.4048 14.375 13.75 14.375C14.0952 14.375 14.375 14.0952 14.375 13.75C14.375 13.4048 14.0952 13.125 13.75 13.125Z" fill="#525866"/>
</svg>