<svg xmlns="http://www.w3.org/2000/svg" width="24" height="24" viewBox="0 0 24 24" fill="none">
  <path d="M12 3C7.0275 3 3 7.0275 3 12C2.99898 13.8894 3.59293 15.731 4.6976 17.2638C5.80226 18.7966 7.36153 19.9426 9.1542 20.5392C9.6042 20.6175 9.7725 20.3475 9.7725 20.1108C9.7725 19.8975 9.7608 19.1892 9.7608 18.435C7.5 18.8517 6.915 17.8842 6.735 17.3775C6.6333 17.1183 6.195 16.32 5.8125 16.1058C5.4975 15.9375 5.0475 15.5208 5.8008 15.51C6.51 15.4983 7.0158 16.1625 7.185 16.4325C7.995 17.7933 9.2892 17.4108 9.8058 17.175C9.885 16.59 10.1208 16.1967 10.38 15.9717C8.3775 15.7467 6.285 14.97 6.285 11.5275C6.285 10.5483 6.6333 9.7392 7.2075 9.1083C7.1175 8.8833 6.8025 7.9608 7.2975 6.7233C7.2975 6.7233 8.0508 6.4875 9.7725 7.6467C10.5052 7.44336 11.2622 7.34101 12.0225 7.3425C12.7875 7.3425 13.5525 7.4433 14.2725 7.6458C15.9933 6.4758 16.7475 6.7242 16.7475 6.7242C17.2425 7.9617 16.9275 8.8842 16.8375 9.1092C17.4108 9.7392 17.76 10.5375 17.76 11.5275C17.76 14.9817 15.6567 15.7467 13.6542 15.9717C13.98 16.2525 14.2617 16.7925 14.2617 17.6367C14.2617 18.84 14.25 19.8075 14.25 20.1117C14.25 20.3475 14.4192 20.6283 14.8692 20.5383C16.6557 19.9351 18.2081 18.7869 19.3079 17.2552C20.4077 15.7236 20.9995 13.8856 21 12C21 7.0275 16.9725 3 12 3Z" fill="#0A0D14"/>
</svg>