<svg xmlns="http://www.w3.org/2000/svg" width="32" height="32" viewBox="0 0 32 32" fill="none">
  <path d="M16 4C9.37 4 4 9.37 4 16C3.99864 18.5191 4.79058 20.9747 6.26346 23.0184C7.73634 25.0621 9.81538 26.5901 12.2056 27.3856C12.8056 27.49 13.03 27.13 13.03 26.8144C13.03 26.53 13.0144 25.5856 13.0144 24.58C10 25.1356 9.22 23.8456 8.98 23.17C8.8444 22.8244 8.26 21.76 7.75 21.4744C7.33 21.25 6.73 20.6944 7.7344 20.68C8.68 20.6644 9.3544 21.55 9.58 21.91C10.66 23.7244 12.3856 23.2144 13.0744 22.9C13.18 22.12 13.4944 21.5956 13.84 21.2956C11.17 20.9956 8.38 19.96 8.38 15.37C8.38 14.0644 8.8444 12.9856 9.61 12.1444C9.49 11.8444 9.07 10.6144 9.73 8.9644C9.73 8.9644 10.7344 8.65 13.03 10.1956C14.0069 9.92447 15.0162 9.78801 16.03 9.79C17.05 9.79 18.07 9.9244 19.03 10.1944C21.3244 8.6344 22.33 8.9656 22.33 8.9656C22.99 10.6156 22.57 11.8456 22.45 12.1456C23.2144 12.9856 23.68 14.05 23.68 15.37C23.68 19.9756 20.8756 20.9956 18.2056 21.2956C18.64 21.67 19.0156 22.39 19.0156 23.5156C19.0156 25.12 19 26.41 19 26.8156C19 27.13 19.2256 27.5044 19.8256 27.3844C22.2076 26.5802 24.2775 25.0492 25.7439 23.007C27.2103 20.9648 27.9993 18.5141 28 16C28 9.37 22.63 4 16 4Z" fill="#0A0D14"/>
</svg>