<svg width="20" height="20" viewBox="0 0 20 20" fill="none" xmlns="http://www.w3.org/2000/svg">
<g id="Grin (Grin)">
<circle id="Grin (Grin)_2" cx="10" cy="10" r="10" fill="black"/>
<circle id="Grin (Grin)_3" cx="9.97881" cy="10.0001" r="8.93194" fill="#FEF102"/>
<path id="Grin (Grin)_4" fill-rule="evenodd" clip-rule="evenodd" d="M14.0667 6.27155L14.0666 6.27153C13.8938 5.78373 13.6793 5.17851 13.2563 5.01579C12.5547 4.74354 12.1149 6.51317 12.0102 6.96343H11.9055L11.897 6.92715C11.7198 6.16501 11.4735 5.10624 10.6489 4.86919C10.2615 6.5027 11.0573 8.27233 11.8008 9.68594C12.5966 9.30898 12.984 8.11526 13.0573 7.27757H13.162L13.9997 9.79066C14.6441 9.60943 14.8915 8.98292 15.1237 8.3951L15.1516 8.32469C15.6751 7.02626 16.1149 5.42416 15.7798 4.03149C14.8751 4.28596 14.5386 5.48198 14.2896 6.36748L14.2895 6.36756C14.2619 6.46587 14.2353 6.56035 14.2091 6.6493C14.1624 6.54188 14.1163 6.41155 14.0667 6.27155ZM4.15653 10.0001C5.05706 9.57077 5.48638 8.20951 5.6225 7.27757H5.72721C5.83193 7.72783 6.11465 8.89014 6.68009 8.96344C7.39214 9.05768 7.7691 7.46605 7.82146 6.96344H7.92617C7.94338 7.02213 7.96066 7.08217 7.97822 7.14318C8.19557 7.89859 8.45606 8.80391 9.18271 9.16239C9.4759 7.93726 9.13036 6.63883 8.68009 5.49747C8.66554 5.46041 8.64914 5.41533 8.63078 5.36484C8.50384 5.01583 8.28293 4.40846 7.92617 4.40846C7.2934 4.40846 6.92075 6.01735 6.78974 6.58298L6.77433 6.6493H6.66962L5.83193 4.13621C4.35549 4.83778 3.55967 8.58647 4.15653 10.0001ZM13.2666 16.7121C8.72206 18.7331 3.67494 16.0315 2.58594 11.2566C3.0362 11.131 3.53882 11.2147 3.8739 11.466C4.15437 11.687 4.33136 12.0529 4.49446 12.39C4.53231 12.4682 4.56941 12.5449 4.60688 12.6179C5.02573 13.4242 5.654 14.0943 6.35557 14.6598C9.48646 17.2043 13.9263 15.8011 15.5702 12.6179L14.6592 12.5446H14.6278C14.3975 12.5132 14.2404 12.2933 14.2718 12.0629C14.2927 11.9791 14.3451 11.9058 14.4184 11.8744C14.9524 11.6441 17.12 10.7331 17.3399 11.288C17.5559 11.8333 17.1958 12.5908 16.9944 13.0144L16.9838 13.0367C16.2299 14.6702 14.921 15.9791 13.2666 16.7121Z" fill="black"/>
</g>
</svg>
