<svg xmlns="http://www.w3.org/2000/svg" width="20" height="20" viewBox="0 0 20 20" fill="none">
  <path d="M10 17.5C5.85775 17.5 2.5 14.1422 2.5 10C2.5 6.6415 4.70725 3.799 7.75 2.8435V4.4365C6.46069 4.96003 5.39335 5.91528 4.73054 7.13884C4.06774 8.36239 3.85066 9.77823 4.11644 11.1442C4.38222 12.5101 5.11434 13.7412 6.18757 14.627C7.2608 15.5128 8.60846 15.9981 10 16C11.1953 16 12.3634 15.643 13.3546 14.9749C14.3458 14.3068 15.115 13.358 15.5635 12.25H17.1565C16.201 15.2928 13.3585 17.5 10 17.5V17.5ZM17.4625 10.75H9.25V2.5375C9.49675 2.51275 9.74725 2.5 10 2.5C14.1422 2.5 17.5 5.85775 17.5 10C17.5 10.2528 17.4873 10.5033 17.4625 10.75ZM10.75 4.0465V9.25H15.9535C15.7866 7.9282 15.1846 6.6995 14.2426 5.75743C13.3005 4.81535 12.0718 4.21344 10.75 4.0465Z" fill="#525866"/>
</svg>