<svg width="24" height="20" viewBox="0 0 24 20" fill="none" xmlns="http://www.w3.org/2000/svg">
<g id="logo">
<path id="Vector" d="M23.6446 8.13184H19.7539V12.0225H23.6446V8.13184Z" fill="#D6FE00"/>
<path id="Vector_2" d="M19.754 4.24072H15.8633V8.13142H19.754V4.24072Z" fill="#D6FE00"/>
<path id="Vector_3" d="M19.754 12.022H15.8633V15.9127H19.754V12.022Z" fill="#D6FE00"/>
<path id="Vector_4" d="M15.8634 0.350098H11.9727V4.2408H15.8634V0.350098Z" fill="#D6FE00"/>
<path id="Vector_5" d="M15.8634 15.9131H11.9727V19.8038H15.8634V15.9131Z" fill="#D6FE00"/>
<path id="Vector_6" d="M11.9727 8.13184H8.08203V12.0225H11.9727V8.13184Z" fill="#D6FE00"/>
<path id="Vector_7" d="M8.08211 4.24072H4.19141V8.13142H8.08211V4.24072Z" fill="#D6FE00"/>
<path id="Vector_8" d="M8.08211 12.0806H4.19141V15.9713H8.08211V12.0806Z" fill="#D6FE00"/>
<path id="Vector_9" d="M4.19148 0.350098H0.300781V4.2408H4.19148V0.350098Z" fill="#D6FE00"/>
<path id="Vector_10" d="M4.19148 15.9131H0.300781V19.8038H4.19148V15.9131Z" fill="#D6FE00"/>
</g>
</svg>
