<svg width="170" height="22" viewBox="0 0 170 22" fill="none" xmlns="http://www.w3.org/2000/svg">
<g id="logo">
<g id="Group 784">
<g id="Group 1">
<path id="Vector" d="M19.6063 9.40157H16.3384V12.6695H19.6063V9.40157Z" fill="#D7FF00"/>
<path id="Vector_2" d="M16.339 6.13318H13.0711V9.40111H16.339V6.13318Z" fill="#D7FF00"/>
<path id="Vector_3" d="M16.339 12.6693H13.0711V15.9373H16.339V12.6693Z" fill="#D7FF00"/>
<path id="Vector_4" d="M13.0718 2.86534H9.80383V6.13327H13.0718V2.86534Z" fill="#D7FF00"/>
<path id="Vector_5" d="M13.0718 15.9372H9.80383V19.2051H13.0718V15.9372Z" fill="#D7FF00"/>
<path id="Vector_6" d="M9.80229 9.40157H6.53436V12.6695H9.80229V9.40157Z" fill="#D7FF00"/>
<path id="Vector_7" d="M6.53501 6.13318H3.26709V9.40111H6.53501V6.13318Z" fill="#D7FF00"/>
<path id="Vector_8" d="M6.53501 12.6693H3.26709V15.9373H6.53501V12.6693Z" fill="#D7FF00"/>
<path id="Vector_9" d="M3.26792 2.86534H0V6.13327H3.26792V2.86534Z" fill="#D7FF00"/>
<path id="Vector_10" d="M3.26792 15.9372H0V19.2051H3.26792V15.9372Z" fill="#D7FF00"/>
</g>
<path id="Union" fill-rule="evenodd" clip-rule="evenodd" d="M109.205 0.328598H107.034V3.57425H109.205V0.328598ZM108.141 5.27945H104.864V7.32426H107.055V14.6545H104.864V16.6993H111.418V14.6545H109.227V6.36506C109.227 5.9966 109.183 5.70262 108.993 5.51289C108.803 5.32316 108.509 5.27945 108.141 5.27945ZM159.646 6.35645C160.563 5.3848 161.952 4.94254 163.828 4.94254H164.249C166.135 4.94254 167.535 5.38468 168.459 6.35593C169.382 7.32544 169.801 8.79087 169.801 10.7683V11.7065H160.491C160.511 12.9583 160.779 13.7451 161.314 14.2295C161.876 14.738 162.772 14.9496 164.123 14.9496H164.418C165.51 14.9496 166.237 14.8378 166.738 14.5494C167.227 14.268 167.525 13.8032 167.719 13.0262L167.749 12.906H170L169.967 13.0922C169.73 14.4376 169.188 15.4333 168.27 16.0879C167.358 16.7392 166.098 17.0365 164.46 17.0365H164.039C162.091 17.0365 160.65 16.606 159.699 15.6465C158.748 14.6874 158.318 13.2311 158.318 11.2529V10.7683C158.318 8.79131 158.732 7.32603 159.646 6.35645ZM160.547 9.74592H167.572C167.463 8.74542 167.175 8.08827 166.68 7.67158C166.155 7.22868 165.364 7.02948 164.207 7.02948H163.912C162.732 7.02948 161.942 7.21898 161.423 7.65587C160.934 8.0671 160.654 8.72361 160.547 9.74592ZM152.531 1.38199H150.36V5.27948H147.684V7.32428H150.36V15.6137C150.36 15.9822 150.403 16.2761 150.593 16.4659C150.783 16.6556 151.077 16.6993 151.445 16.6993H156.997V14.6545H152.531V7.32428H156.829V5.27948H152.531V1.38199ZM137.284 5.94255C138.084 5.24885 139.317 4.94254 141.046 4.94254H141.425C143.173 4.94254 144.472 5.33654 145.331 6.21481C146.189 7.09228 146.577 8.42166 146.577 10.2206V14.5704H147.441V16.6995H145.807C145.28 16.6995 144.89 16.6042 144.656 16.2519C144.545 16.0842 144.479 15.8712 144.439 15.614C144.405 15.3932 144.389 15.1316 144.386 14.8244H144.346C144.101 15.6146 143.694 16.1697 143.08 16.5254C142.443 16.8937 141.604 17.0365 140.541 17.0365H140.056C138.701 17.0365 137.636 16.7653 136.908 16.1598C136.174 15.5495 135.81 14.6236 135.81 13.3807C135.81 12.1792 136.169 11.2599 136.89 10.6449C137.607 10.034 138.657 9.74592 139.993 9.74592H144.383C144.364 8.69116 144.154 8.02426 143.727 7.61158C143.279 7.17732 142.554 6.98734 141.425 6.98734H141.088C139.988 6.98734 139.275 7.14126 138.837 7.47152C138.412 7.79219 138.213 8.30622 138.213 9.12506V9.2837H136.147V9.12506C136.147 7.70237 136.479 6.64132 137.284 5.94255ZM138.5 12.0447C138.159 12.2789 138.003 12.6577 138.003 13.2964C138.003 13.9728 138.188 14.3784 138.523 14.625C138.869 14.8805 139.41 14.9917 140.182 14.9917H140.562C141.944 14.9917 142.89 14.7753 143.493 14.2679C144.084 13.7708 144.38 12.9632 144.385 11.6854H140.414C139.458 11.6854 138.859 11.798 138.5 12.0447ZM133.435 4.94254C132.519 4.94254 131.712 5.20943 131.103 5.56455C130.588 5.86512 130.196 6.23982 130.01 6.58578C130 6.13999 129.931 5.80225 129.71 5.58152C129.467 5.33863 129.082 5.27962 128.568 5.27962H125.818V7.32442H127.841V16.6995H130.012V10.0731C130.012 8.21708 131.61 7.02948 133.119 7.02948H134.963V4.94254H133.435ZM114.265 5.8949C115.125 5.22817 116.421 4.92152 118.172 4.92152H124.019V6.71352H122.248C122.944 7.35592 123.303 8.26006 123.303 9.31472C123.303 10.4645 122.889 11.3454 122.013 11.93C121.15 12.5063 119.858 12.781 118.13 12.781H115.602C115.215 12.781 114.997 12.8302 114.875 12.9173C114.769 12.9929 114.707 13.1199 114.707 13.3807C114.707 13.476 114.722 13.5417 114.746 13.5889C114.768 13.6334 114.802 13.6708 114.86 13.7029C114.987 13.7734 115.213 13.812 115.602 13.812H118.931C120.649 13.812 121.924 14.1025 122.772 14.7477C123.629 15.4003 124.019 16.3926 124.019 17.7206C124.019 18.8676 123.608 19.8646 122.716 20.5706C121.83 21.2724 120.489 21.6714 118.657 21.6714H117.667C115.829 21.6714 114.478 21.3269 113.584 20.6801C112.681 20.0271 112.262 19.0804 112.262 17.9313C112.262 17.0884 112.457 16.4328 112.908 15.9905C113.331 15.5753 113.953 15.3747 114.769 15.3521V15.3301H114.612C113.936 15.3301 113.413 15.2132 113.059 14.9388C112.695 14.6575 112.536 14.2345 112.536 13.6968C112.536 13.14 112.693 12.7063 113.057 12.4188C113.413 12.1382 113.936 12.0213 114.612 12.0213H114.769V11.9425C114.159 11.6391 113.72 11.2282 113.432 10.7292C113.13 10.207 113 9.59855 113 8.93551C113 7.58665 113.395 6.56863 114.265 5.8949ZM115.714 7.43627C115.277 7.71708 115.087 8.16407 115.087 8.89338C115.087 9.58839 115.275 10.0142 115.712 10.2831C116.171 10.5657 116.931 10.694 118.13 10.694C119.351 10.694 120.127 10.5658 120.597 10.2823C120.827 10.1439 120.984 9.96813 121.085 9.74677C121.187 9.52254 121.237 9.24303 121.237 8.89338C121.237 8.15436 121.042 7.70809 120.595 7.42948C120.126 7.13691 119.351 7.00847 118.13 7.00847C116.931 7.00847 116.172 7.14204 115.714 7.43627ZM114.635 16.8001C114.528 17.0407 114.476 17.3532 114.476 17.7628C114.476 18.3299 114.672 18.7702 115.144 19.0784C115.629 19.3954 116.424 19.5845 117.646 19.5845H118.615C119.847 19.5845 120.646 19.3902 121.133 19.0636C121.608 18.7459 121.806 18.2898 121.806 17.6996C121.806 17.2956 121.752 16.9909 121.644 16.7582C121.537 16.5299 121.374 16.3618 121.137 16.236C120.895 16.1079 120.573 16.0224 120.15 15.9698C119.727 15.9174 119.213 15.8989 118.594 15.8989H117.625C117.016 15.8989 116.512 15.92 116.098 15.9765C115.683 16.0331 115.369 16.124 115.132 16.2576C114.9 16.3889 114.74 16.5637 114.635 16.8001ZM90.0411 5.52876C90.6226 5.17926 91.3405 4.94254 92.0689 4.94254H92.4902C93.9983 4.94254 95.1169 5.54848 95.7274 6.73327H96.0107C96.2278 6.28304 96.6713 5.85215 97.2151 5.52842C97.8017 5.17918 98.5247 4.94254 99.2529 4.94254H99.6742C100.835 4.94254 101.773 5.30162 102.418 6.02525C103.061 6.74605 103.393 7.80575 103.393 9.1672V16.6995H101.222V9.79922C101.222 8.83441 101.105 8.13811 100.808 7.68452C100.522 7.24778 100.05 7.00841 99.2529 7.00841H98.8967C97.5905 7.03961 96.9485 7.4276 96.6158 7.97976C96.2707 8.55241 96.2303 9.33938 96.2303 10.2416V16.6995H94.0591V9.79922C94.0591 8.83868 93.9167 8.14294 93.5958 7.68929C93.2839 7.24841 92.7823 7.00841 91.9846 7.00841H91.6284C90.3222 7.03961 89.6336 7.42806 89.2591 7.98627C88.8748 8.55899 88.7935 9.34684 88.7935 10.2416V16.6995H86.6223V5.27962H88.7935V6.73327H88.8477C89.0638 6.28365 89.5019 5.85277 90.0411 5.52876ZM84.0386 4.94254C83.1231 4.94254 82.3163 5.20943 81.7071 5.56455C81.1916 5.86511 80.7999 6.23982 80.6142 6.58578C80.6035 6.13999 80.5346 5.80225 80.3139 5.58152C80.071 5.33863 79.6864 5.27962 79.172 5.27962H76.4221V7.32442H78.4446V16.6995H80.6158V10.0731C80.6158 8.21708 82.2137 7.02948 83.7226 7.02948H85.5666V4.94254H84.0386ZM65.3566 6.35645C66.273 5.3848 67.662 4.94254 69.538 4.94254H69.9593C71.8456 4.94254 73.2449 5.38468 74.1692 6.35593C75.0919 7.32544 75.5112 8.79087 75.5112 10.7683V11.7065H66.2007C66.2212 12.9583 66.4887 13.7451 67.0242 14.2295C67.5862 14.738 68.4817 14.9496 69.8329 14.9496H70.1279C71.2199 14.9496 71.9468 14.8378 72.4478 14.5494C72.9367 14.268 73.2348 13.8032 73.429 13.0262L73.4591 12.906H75.7101L75.6774 13.0922C75.4406 14.4376 74.8976 15.4333 73.9806 16.0879C73.0683 16.7392 71.8083 17.0365 70.17 17.0365H69.7487C67.8014 17.0365 66.3606 16.606 65.4093 15.6465C64.4584 14.6874 64.0282 13.2311 64.0282 11.2529V10.7683C64.0282 8.79131 64.4421 7.32603 65.3566 6.35645ZM66.2572 9.74592H73.2819C73.1735 8.74542 72.885 8.08827 72.3905 7.67158C71.8648 7.22868 71.074 7.02948 69.9172 7.02948H69.6223C68.4421 7.02948 67.6525 7.21898 67.1331 7.65587C66.6442 8.0671 66.3645 8.72361 66.2572 9.74592ZM57.1531 4.94254C56.257 4.94254 55.4641 5.12619 54.7895 5.5227C54.1384 5.9054 53.6071 6.48075 53.2006 7.25996H53.1614V5.27962H50.9902V21.3343H53.1614V14.6559H53.1893C53.5073 15.4445 53.9942 16.0355 54.6453 16.4314C55.3221 16.8431 56.1641 17.0365 57.1531 17.0365H57.5112C59.1722 17.0365 60.4207 16.5856 61.2484 15.6C62.071 14.6206 62.4522 13.143 62.4522 11.1475V10.7894C62.4522 8.80434 62.071 7.337 61.248 6.36539C60.42 5.38791 59.1716 4.94254 57.5112 4.94254H57.1531ZM53.1614 10.8526C53.1614 9.76496 53.3899 8.79861 53.9188 8.10753C54.4421 7.42378 55.2766 6.98734 56.5421 6.98734H56.7528C58.111 6.98734 58.9628 7.23457 59.4847 7.80962C60.0109 8.38938 60.2388 9.34159 60.2388 10.8526V11.1054C60.2388 12.5947 60.0111 13.5477 59.4843 14.1331C58.9619 14.7135 58.1095 14.9707 56.7528 14.9707H56.5211C55.3477 14.9707 54.5151 14.4979 53.9715 13.7873C53.4238 13.0712 53.1614 12.102 53.1614 11.1054V10.8526ZM38.1934 5.27957H40.3646V12.2219C40.3646 13.2865 40.5438 13.9637 40.9048 14.3771C41.2606 14.7844 41.8253 14.9706 42.692 14.9706H43.1765C44.4927 14.9706 45.3679 14.5808 45.9154 13.9964C46.4649 13.4098 46.7047 12.6052 46.7047 11.7374V5.27957H48.8759V16.6994H46.7047V15.2247H46.6453C46.4282 15.9019 45.9255 16.3516 45.2691 16.6314C44.58 16.9252 43.713 17.0365 42.7973 17.0365H42.4392C41.1501 17.0365 40.0825 16.7087 39.3373 15.9886C38.5911 15.2674 38.1934 14.1773 38.1934 12.7065V5.27957ZM31.0166 4.94254C29.4801 4.94254 28.3399 5.16908 27.5809 5.68065C26.808 6.2016 26.4549 7.00032 26.4549 8.07169V8.3245C26.4549 9.23722 26.7488 9.95902 27.3854 10.4971C28.0137 11.028 28.9593 11.3659 30.2347 11.5572L32.6153 11.9154C33.2487 12.0104 33.658 12.1276 33.9143 12.3519C34.1591 12.5661 34.292 12.9052 34.292 13.5282C34.292 13.8183 34.2468 14.0453 34.155 14.2249C34.0646 14.4019 33.9232 14.5443 33.7101 14.6573C33.2718 14.8898 32.5446 14.9917 31.3959 14.9917H31.0588C29.8283 14.9917 29.0537 14.8421 28.585 14.4984C28.1317 14.166 27.9309 13.6239 27.9309 12.7276V12.569H25.8018V12.7276C25.8018 14.1881 26.1947 15.2794 27.0655 15.9994C27.9293 16.7138 29.2332 17.0365 30.9956 17.0365H31.3748C33.0902 17.0365 34.3608 16.7889 35.206 16.2393C36.0658 15.6802 36.4632 14.8238 36.4632 13.6756V13.2964C36.4632 12.2854 36.1793 11.4907 35.5572 10.908C34.9407 10.3306 34.0127 9.98113 32.7657 9.81059L30.1958 9.45249L30.1949 9.45237C29.5762 9.36987 29.1847 9.21278 28.9496 9.01227C28.7223 8.81836 28.6261 8.57087 28.6261 8.2613C28.6261 8.00192 28.665 7.802 28.7423 7.64563C28.8182 7.49224 28.9363 7.37027 29.1145 7.27366C29.4836 7.07364 30.0991 6.98734 31.0798 6.98734H31.4169C32.4824 6.98734 33.1527 7.07352 33.5551 7.27591C33.75 7.37395 33.8771 7.4971 33.9579 7.64959C34.0402 7.80474 34.0813 8.00305 34.0813 8.2613V8.41993H36.2315V8.2613C36.2315 7.1166 35.8576 6.27016 35.0395 5.72006C34.2356 5.1795 33.0268 4.94254 31.3959 4.94254H31.0166Z" fill="white"/>
</g>
</g>
</svg>
