<svg xmlns="http://www.w3.org/2000/svg" width="20" height="20" viewBox="0 0 20 20" fill="none">
  <path d="M12.2488 4.75H13.7488C14.1466 4.75 14.5282 4.90804 14.8095 5.18934C15.0908 5.47064 15.2488 5.85217 15.2488 6.25V12.3775C15.7494 12.5544 16.1714 12.9026 16.4401 13.3606C16.7088 13.8186 16.8069 14.3568 16.7172 14.8801C16.6274 15.4034 16.3555 15.8782 15.9496 16.2204C15.5436 16.5627 15.0298 16.7504 14.4988 16.7504C13.9678 16.7504 13.454 16.5627 13.048 16.2204C12.6421 15.8782 12.3702 15.4034 12.2804 14.8801C12.1907 14.3568 12.2888 13.8186 12.5575 13.3606C12.8262 12.9026 13.2482 12.5544 13.7488 12.3775V6.25H12.2488V8.5L8.8738 5.5L12.2488 2.5V4.75ZM4.7488 7.6225C4.24818 7.44557 3.82623 7.09735 3.55753 6.6394C3.28883 6.18144 3.19069 5.64323 3.28044 5.11991C3.3702 4.59658 3.64208 4.12184 4.04802 3.77959C4.45397 3.43735 4.96784 3.24963 5.4988 3.24963C6.02977 3.24963 6.54364 3.43735 6.94958 3.77959C7.35552 4.12184 7.6274 4.59658 7.71716 5.11991C7.80692 5.64323 7.70877 6.18144 7.44007 6.6394C7.17137 7.09735 6.74942 7.44557 6.2488 7.6225V12.3775C6.74942 12.5544 7.17137 12.9026 7.44007 13.3606C7.70877 13.8186 7.80692 14.3568 7.71716 14.8801C7.6274 15.4034 7.35552 15.8782 6.94958 16.2204C6.54364 16.5627 6.02977 16.7504 5.4988 16.7504C4.96784 16.7504 4.45397 16.5627 4.04802 16.2204C3.64208 15.8782 3.3702 15.4034 3.28044 14.8801C3.19069 14.3568 3.28883 13.8186 3.55753 13.3606C3.82623 12.9026 4.24818 12.5544 4.7488 12.3775V7.6225ZM5.4988 6.25C5.69771 6.25 5.88848 6.17098 6.02913 6.03033C6.16978 5.88968 6.2488 5.69891 6.2488 5.5C6.2488 5.30109 6.16978 5.11032 6.02913 4.96967C5.88848 4.82902 5.69771 4.75 5.4988 4.75C5.29989 4.75 5.10912 4.82902 4.96847 4.96967C4.82782 5.11032 4.7488 5.30109 4.7488 5.5C4.7488 5.69891 4.82782 5.88968 4.96847 6.03033C5.10912 6.17098 5.29989 6.25 5.4988 6.25ZM5.4988 15.25C5.69771 15.25 5.88848 15.171 6.02913 15.0303C6.16978 14.8897 6.2488 14.6989 6.2488 14.5C6.2488 14.3011 6.16978 14.1103 6.02913 13.9697C5.88848 13.829 5.69771 13.75 5.4988 13.75C5.29989 13.75 5.10912 13.829 4.96847 13.9697C4.82782 14.1103 4.7488 14.3011 4.7488 14.5C4.7488 14.6989 4.82782 14.8897 4.96847 15.0303C5.10912 15.171 5.29989 15.25 5.4988 15.25ZM14.4988 15.25C14.6977 15.25 14.8885 15.171 15.0291 15.0303C15.1698 14.8897 15.2488 14.6989 15.2488 14.5C15.2488 14.3011 15.1698 14.1103 15.0291 13.9697C14.8885 13.829 14.6977 13.75 14.4988 13.75C14.2999 13.75 14.1091 13.829 13.9685 13.9697C13.8278 14.1103 13.7488 14.3011 13.7488 14.5C13.7488 14.6989 13.8278 14.8897 13.9685 15.0303C14.1091 15.171 14.2999 15.25 14.4988 15.25Z" fill="#375DFB"/>
</svg>