<svg xmlns="http://www.w3.org/2000/svg" width="25" height="24" viewBox="0 0 25 24" fill="none">
  <path d="M15.1993 5.7H16.9993C17.4767 5.7 17.9346 5.88964 18.2721 6.22721C18.6097 6.56477 18.7993 7.02261 18.7993 7.5V14.853C19.4001 15.0653 19.9064 15.4832 20.2289 16.0327C20.5513 16.5823 20.6691 17.2281 20.5614 17.8561C20.4537 18.4841 20.1274 19.0538 19.6403 19.4645C19.1531 19.8752 18.5365 20.1004 17.8993 20.1004C17.2622 20.1004 16.6455 19.8752 16.1584 19.4645C15.6713 19.0538 15.345 18.4841 15.2373 17.8561C15.1296 17.2281 15.2474 16.5823 15.5698 16.0327C15.8923 15.4832 16.3986 15.0653 16.9993 14.853V7.5H15.1993V10.2L11.1493 6.6L15.1993 3V5.7ZM6.19934 9.147C5.5986 8.93468 5.09226 8.51682 4.76982 7.96727C4.44738 7.41773 4.32961 6.77188 4.43731 6.14389C4.54502 5.5159 4.87128 4.94621 5.35841 4.53551C5.84554 4.12482 6.46218 3.89956 7.09934 3.89956C7.7365 3.89956 8.35314 4.12482 8.84028 4.53551C9.32741 4.94621 9.65367 5.5159 9.76137 6.14389C9.86908 6.77188 9.75131 7.41773 9.42887 7.96727C9.10643 8.51682 8.60009 8.93468 7.99934 9.147V14.853C8.60009 15.0653 9.10643 15.4832 9.42887 16.0327C9.75131 16.5823 9.86908 17.2281 9.76137 17.8561C9.65367 18.4841 9.32741 19.0538 8.84028 19.4645C8.35314 19.8752 7.7365 20.1004 7.09934 20.1004C6.46218 20.1004 5.84554 19.8752 5.35841 19.4645C4.87128 19.0538 4.54502 18.4841 4.43731 17.8561C4.32961 17.2281 4.44738 16.5823 4.76982 16.0327C5.09226 15.4832 5.5986 15.0653 6.19934 14.853V9.147ZM7.09934 7.5C7.33804 7.5 7.56696 7.40518 7.73574 7.2364C7.90452 7.06761 7.99934 6.83869 7.99934 6.6C7.99934 6.3613 7.90452 6.13239 7.73574 5.9636C7.56696 5.79482 7.33804 5.7 7.09934 5.7C6.86065 5.7 6.63173 5.79482 6.46295 5.9636C6.29416 6.13239 6.19934 6.3613 6.19934 6.6C6.19934 6.83869 6.29416 7.06761 6.46295 7.2364C6.63173 7.40518 6.86065 7.5 7.09934 7.5ZM7.09934 18.3C7.33804 18.3 7.56696 18.2052 7.73574 18.0364C7.90452 17.8676 7.99934 17.6387 7.99934 17.4C7.99934 17.1613 7.90452 16.9324 7.73574 16.7636C7.56696 16.5948 7.33804 16.5 7.09934 16.5C6.86065 16.5 6.63173 16.5948 6.46295 16.7636C6.29416 16.9324 6.19934 17.1613 6.19934 17.4C6.19934 17.6387 6.29416 17.8676 6.46295 18.0364C6.63173 18.2052 6.86065 18.3 7.09934 18.3ZM17.8993 18.3C18.138 18.3 18.367 18.2052 18.5357 18.0364C18.7045 17.8676 18.7993 17.6387 18.7993 17.4C18.7993 17.1613 18.7045 16.9324 18.5357 16.7636C18.367 16.5948 18.138 16.5 17.8993 16.5C17.6606 16.5 17.4317 16.5948 17.2629 16.7636C17.0942 16.9324 16.9993 17.1613 16.9993 17.4C16.9993 17.6387 17.0942 17.8676 17.2629 18.0364C17.4317 18.2052 17.6606 18.3 17.8993 18.3Z" fill="#375DFB"/>
</svg>