<svg xmlns="http://www.w3.org/2000/svg" width="375" height="63" viewBox="0 0 375 63" fill="none">
  <path d="M133.303 1.0127H187.47V9.25259M133.303 1.0127L127.427 9.25259M133.303 1.0127H81.0825M88.8713 63.3174H187.47V39.2947M88.8713 63.3174L106.003 39.2947M88.8713 63.3174H-8.48847M127.427 9.25259L121.551 17.4925M127.427 9.25259H187.47M127.427 9.25259H69.2366M121.551 17.4925L114.036 28.0298M121.551 17.4925H187.47M121.551 17.4925H57.3907M114.036 28.0298L106.003 39.2947M114.036 28.0298H187.47M114.036 28.0298H42.242M106.003 39.2947H187.47M106.003 39.2947H26.0472M-8.48847 63.3174L26.0472 39.2947M-8.48847 63.3174H-105.494M81.0825 1.0127L69.2366 9.25259M81.0825 1.0127H29.3048M26.0472 39.2947L42.242 28.0298M26.0472 39.2947H-53.5201M42.242 28.0298L57.3907 17.4925M42.242 28.0298H-29.1478M57.3907 17.4925L69.2366 9.25259M57.3907 17.4925H-6.34997M69.2366 9.25259H11.4774M29.3048 1.0127H-22.4729L-46.2818 9.25259M29.3048 1.0127L11.4774 9.25259M-105.494 63.3174H-202.5L-133.087 39.2947M-105.494 63.3174L-53.5201 39.2947M11.4774 9.25259L-6.34997 17.4925M11.4774 9.25259H-46.2818M-6.34997 17.4925L-29.1478 28.0298M-6.34997 17.4925H-70.0907M-29.1478 28.0298L-53.5201 39.2947M-29.1478 28.0298H-100.538M-53.5201 39.2947H-133.087M187.47 39.2947V28.0298M-133.087 39.2947L-100.538 28.0298M-100.538 28.0298L-70.0907 17.4925M187.47 28.0298V17.4925M-70.0907 17.4925L-46.2818 9.25259M187.47 17.4925V9.25259M241.697 1.0127H187.53V9.25259M241.697 1.0127L247.573 9.25259M241.697 1.0127H293.917M286.129 63.3174H187.53V39.2947M286.129 63.3174L268.997 39.2947M286.129 63.3174H383.488M247.573 9.25259L253.449 17.4925M247.573 9.25259H187.53M247.573 9.25259H305.763M253.449 17.4925L260.964 28.0298M253.449 17.4925H187.53M253.449 17.4925H317.609M260.964 28.0298L268.997 39.2947M260.964 28.0298H187.53M260.964 28.0298H332.758M268.997 39.2947H187.53M268.997 39.2947H348.953M383.488 63.3174L348.953 39.2947M383.488 63.3174H480.494M293.917 1.0127L305.763 9.25259M293.917 1.0127H345.695M348.953 39.2947L332.758 28.0298M348.953 39.2947H428.52M332.758 28.0298L317.609 17.4925M332.758 28.0298H404.148M317.609 17.4925L305.763 9.25259M317.609 17.4925H381.35M305.763 9.25259H363.523M345.695 1.0127H397.473L421.282 9.25259M345.695 1.0127L363.523 9.25259M480.494 63.3174H577.5L508.087 39.2947M480.494 63.3174L428.52 39.2947M363.523 9.25259L381.35 17.4925M363.523 9.25259H421.282M381.35 17.4925L404.148 28.0298M381.35 17.4925H445.091M404.148 28.0298L428.52 39.2947M404.148 28.0298H475.538M428.52 39.2947H508.087M187.53 39.2947V28.0298M508.087 39.2947L475.538 28.0298M475.538 28.0298L445.091 17.4925M187.53 28.0298V17.4925M445.091 17.4925L421.282 9.25259M187.53 17.4925V9.25259" stroke="url(#paint0_linear_1009_48833)" stroke-width="0.340463"/>
  <defs>
    <linearGradient id="paint0_linear_1009_48833" x1="218.357" y1="38.1327" x2="218.357" y2="-32.869" gradientUnits="userSpaceOnUse">
      <stop stop-color="#D2E5F8"/>
      <stop offset="0.31674" stop-color="#DAECFF"/>
      <stop offset="0.50309" stop-color="#F6F8FA"/>
    </linearGradient>
  </defs>
</svg>