<svg width="344" height="29" viewBox="0 0 344 29" fill="none" xmlns="http://www.w3.org/2000/svg">
<path d="M40.5115 22.8833H33.918V30.9056H40.5115V22.8833Z" fill="#D7FF00"/>
<path d="M33.9334 14.8608H27.3398V22.8831H33.9334V14.8608Z" fill="#D7FF00"/>
<path d="M27.3358 6.83838H20.7422V14.8606H27.3358V6.83838Z" fill="#D7FF00"/>
<path d="M20.742 22.8833H14.1484V30.9056H20.742V22.8833Z" fill="#D7FF00"/>
<path d="M14.1443 14.8608H7.55078V22.8831H14.1443V14.8608Z" fill="#D7FF00"/>
<path d="M7.5506 6.83838H0.957031V14.8606H7.5506V6.83838Z" fill="#D7FF00"/>
<path fill-rule="evenodd" clip-rule="evenodd" d="M221.302 0.607422H216.921V8.57501H221.302V0.607422ZM219.154 12.761H212.543V17.7807H216.964V35.7753H212.543V40.795H225.765V35.7753H221.344V15.426C221.344 14.5215 221.256 13.7998 220.873 13.3341C220.491 12.8683 219.898 12.761 219.154 12.761ZM323.071 15.4047C324.92 13.0194 327.722 11.9337 331.507 11.9337H332.358C336.164 11.9337 338.987 13.0191 340.852 15.4034C342.713 17.7834 343.559 21.3808 343.559 26.2351V28.5381H324.774C324.815 31.6112 325.355 33.5426 326.435 34.7319C327.569 35.9802 329.376 36.4995 332.103 36.4995H332.698C334.901 36.4995 336.368 36.2251 337.378 35.5171C338.365 34.8263 338.966 33.6853 339.358 31.7779L339.419 31.4829H343.961L343.895 31.9399C343.417 35.2428 342.321 37.6869 340.471 39.294C338.63 40.8928 336.088 41.6226 332.783 41.6226H331.933C328.004 41.6226 325.096 40.5658 323.177 38.2104C321.259 35.8558 320.391 32.281 320.391 27.4247V26.2351C320.391 21.3819 321.226 17.7848 323.071 15.4047ZM324.888 23.7253H339.061C338.843 21.2692 338.261 19.656 337.263 18.6331C336.202 17.5459 334.607 17.0569 332.273 17.0569H331.677C329.296 17.0569 327.703 17.522 326.655 18.5945C325.669 19.604 325.105 21.2157 324.888 23.7253ZM308.709 3.19327H304.328V12.761H298.93V17.7807H304.328V38.13C304.328 39.0345 304.416 39.7561 304.799 40.2219C305.182 40.6877 305.775 40.795 306.518 40.795H317.72V35.7753H308.709V17.7807H317.38V12.761H308.709V3.19327ZM277.955 14.3886C279.568 12.6857 282.056 11.9337 285.545 11.9337H286.31C289.836 11.9337 292.457 12.9009 294.19 15.057C295.921 17.211 296.704 20.4744 296.704 24.8905V35.5686H298.447V40.7952H295.151C294.087 40.7952 293.3 40.5612 292.828 39.6966C292.604 39.2848 292.47 38.762 292.39 38.1304C292.322 37.5885 292.29 36.9462 292.283 36.1923H292.202C291.709 38.132 290.887 39.4947 289.648 40.3678C288.364 41.2721 286.671 41.6226 284.525 41.6226H283.547C280.814 41.6226 278.664 40.9567 277.195 39.4704C275.714 37.9721 274.98 35.6992 274.98 32.6481C274.98 29.6986 275.704 27.442 277.16 25.9323C278.606 24.4325 280.724 23.7253 283.419 23.7253H292.278C292.24 21.136 291.814 19.4989 290.954 18.4858C290.049 17.4198 288.587 16.9534 286.31 16.9534H285.63C283.41 16.9534 281.972 17.3312 281.088 18.142C280.23 18.9292 279.829 20.191 279.829 22.2012V22.5906H275.661V22.2012C275.661 18.7087 276.33 16.104 277.955 14.3886ZM280.407 29.3684C279.719 29.9434 279.404 30.8733 279.404 32.4412C279.404 34.1017 279.778 35.0974 280.453 35.7026C281.153 36.3298 282.244 36.6029 283.802 36.6029H284.567C287.356 36.6029 289.265 36.0716 290.482 34.8261C291.674 33.6058 292.271 31.6232 292.281 28.4864H284.27C282.339 28.4864 281.132 28.7628 280.407 29.3684ZM270.184 11.9337C268.337 11.9337 266.709 12.5889 265.48 13.4607C264.44 14.1985 263.649 15.1184 263.275 15.9676C263.253 14.8733 263.114 14.0442 262.669 13.5023C262.179 12.9061 261.403 12.7612 260.365 12.7612H254.816V17.7809H258.897V40.7952H263.278V24.5285C263.278 19.9722 266.502 17.0569 269.546 17.0569H273.267V11.9337H270.184ZM231.505 14.2713C233.241 12.6345 235.857 11.8818 239.389 11.8818H251.186V16.2809H247.613C249.018 17.8579 249.741 20.0774 249.741 22.6664C249.741 25.489 248.905 27.6514 247.139 29.0865C245.397 30.5013 242.791 31.1755 239.304 31.1755H234.203C233.423 31.1755 232.983 31.2964 232.737 31.5102C232.523 31.6959 232.398 32.0074 232.398 32.6479C232.398 32.8817 232.428 33.0431 232.476 33.1588C232.52 33.2682 232.59 33.36 232.706 33.4388C232.962 33.6117 233.418 33.7066 234.203 33.7066H240.92C244.387 33.7066 246.96 34.4197 248.669 36.0035C250.398 37.6057 251.186 40.0416 251.186 43.3017C251.186 46.1173 250.356 48.5648 248.557 50.2979C246.769 52.0207 244.063 53.0003 240.367 53.0003H238.369C234.661 53.0003 231.936 52.1544 230.132 50.5668C228.31 48.9638 227.465 46.6397 227.465 43.8189C227.465 41.7497 227.857 40.1402 228.767 39.0543C229.621 38.0353 230.877 37.5427 232.523 37.4872V37.4333H232.206C230.841 37.4333 229.787 37.1462 229.072 36.4728C228.337 35.782 228.017 34.7437 228.017 33.4237C228.017 32.057 228.335 30.9923 229.069 30.2865C229.786 29.5975 230.841 29.3106 232.206 29.3106H232.523V29.1172C231.292 28.3724 230.406 27.3638 229.824 26.1388C229.216 24.8568 228.953 23.3632 228.953 21.7355C228.953 18.4243 229.751 15.9252 231.505 14.2713ZM234.43 18.0551C233.547 18.7444 233.163 19.8418 233.163 21.6321C233.163 23.3382 233.544 24.3836 234.424 25.0435C235.351 25.7375 236.884 26.0524 239.304 26.0524C241.767 26.0524 243.334 25.7375 244.282 25.0417C244.745 24.7019 245.061 24.2704 245.266 23.727C245.473 23.1766 245.573 22.4904 245.573 21.6321C245.573 19.8179 245.18 18.7224 244.278 18.0384C243.332 17.3202 241.768 17.0049 239.304 17.0049C236.885 17.0049 235.354 17.3328 234.43 18.0551ZM232.252 41.0418C232.037 41.6325 231.931 42.3995 231.931 43.4051C231.931 44.7973 232.327 45.8783 233.279 46.6347C234.258 47.4129 235.861 47.8771 238.327 47.8771H240.282C242.768 47.8771 244.381 47.4001 245.364 46.5984C246.321 45.8184 246.721 44.699 246.721 43.25C246.721 42.2584 246.612 41.5103 246.393 40.9391C246.179 40.3787 245.85 39.9659 245.371 39.6571C244.883 39.3428 244.233 39.1327 243.379 39.0037C242.526 38.875 241.489 38.8297 240.239 38.8297H238.284C237.057 38.8297 236.04 38.8814 235.204 39.0201C234.368 39.159 233.732 39.3822 233.256 39.7101C232.788 40.0324 232.464 40.4615 232.252 41.0418ZM182.628 13.3728C183.802 12.5149 185.25 11.9337 186.72 11.9337H187.57C190.613 11.9337 192.87 13.4212 194.102 16.3297H194.673C195.111 15.2244 196.006 14.1667 197.103 13.372C198.287 12.5146 199.745 11.9337 201.215 11.9337H202.065C204.407 11.9337 206.299 12.8152 207.601 14.5916C208.898 16.3611 209.569 18.9625 209.569 22.3046V40.7952H205.188V23.8561C205.188 21.4877 204.951 19.7784 204.353 18.6649C203.776 17.5927 202.823 17.0051 201.215 17.0051H200.496C197.861 17.0817 196.565 18.0342 195.894 19.3896C195.198 20.7954 195.116 22.7273 195.116 24.9422V40.7952H190.735V23.8561C190.735 21.4982 190.448 19.7902 189.801 18.6766C189.171 17.5943 188.159 17.0051 186.55 17.0051H185.831C183.196 17.0817 181.806 18.0353 181.051 19.4056C180.275 20.8116 180.111 22.7456 180.111 24.9422V40.7952H175.73V12.7612H180.111V16.3297H180.221C180.657 15.226 181.54 14.1682 182.628 13.3728ZM170.524 11.9337C168.677 11.9337 167.049 12.5889 165.82 13.4607C164.779 14.1985 163.989 15.1184 163.615 15.9676C163.593 14.8733 163.454 14.0442 163.009 13.5023C162.518 12.9061 161.742 12.7612 160.705 12.7612H155.156V17.7809H159.237V40.7952H163.618V24.5285C163.618 19.9722 166.842 17.0569 169.886 17.0569H173.607V11.9337H170.524ZM132.832 15.4047C134.682 13.0194 137.484 11.9337 141.269 11.9337H142.119C145.925 11.9337 148.748 13.0191 150.614 15.4034C152.475 17.7834 153.321 21.3808 153.321 26.2351V28.5381H134.536C134.577 31.6112 135.117 33.5426 136.197 34.7319C137.331 35.9802 139.138 36.4995 141.864 36.4995H142.459C144.663 36.4995 146.129 36.2251 147.14 35.5171C148.127 34.8263 148.728 33.6853 149.12 31.7779L149.181 31.4829H153.723L153.656 31.9399C153.179 35.2428 152.083 37.6869 150.233 39.294C148.392 40.8928 145.85 41.6226 142.544 41.6226H141.694C137.765 41.6226 134.858 40.5658 132.939 38.2104C131.02 35.8558 130.152 32.281 130.152 27.4247V26.2351C130.152 21.3819 130.987 17.7848 132.832 15.4047ZM134.65 23.7253H148.823C148.604 21.2692 148.022 19.656 147.025 18.6331C145.964 17.5459 144.368 17.0569 142.034 17.0569H141.439C139.058 17.0569 137.465 17.522 136.417 18.5945C135.43 19.604 134.866 21.2157 134.65 23.7253ZM116.274 11.9337C114.466 11.9337 112.867 12.3846 111.506 13.3579C110.192 14.2974 109.12 15.7098 108.3 17.6226H108.221V12.7612H103.84V52.173H108.221V35.7786H108.277C108.918 37.7144 109.901 39.1653 111.214 40.1372C112.58 41.1478 114.279 41.6226 116.274 41.6226H116.997C120.348 41.6226 122.867 40.5156 124.537 38.0962C126.197 35.6919 126.966 32.0646 126.966 27.1661V26.2869C126.966 21.4139 126.197 17.8118 124.537 15.4266C122.866 13.0271 120.347 11.9337 116.997 11.9337H116.274ZM108.221 26.442C108.221 23.7721 108.682 21.3998 109.749 19.7033C110.805 18.0248 112.488 16.9534 115.042 16.9534H115.467C118.207 16.9534 119.926 17.5603 120.979 18.972C122.04 20.3952 122.5 22.7327 122.5 26.442V27.0626C122.5 30.7186 122.041 33.058 120.978 34.4951C119.924 35.92 118.204 36.5512 115.467 36.5512H114.999C112.632 36.5512 110.952 35.3907 109.855 33.6463C108.75 31.8885 108.221 29.5091 108.221 27.0626V26.442ZM78.0234 12.7608H82.4042V29.8032C82.4042 32.4166 82.7656 34.079 83.4941 35.0937C84.212 36.0936 85.3514 36.5508 87.1 36.5508H88.0776C90.7332 36.5508 92.4992 35.5939 93.6037 34.1592C94.7124 32.7192 95.1963 30.744 95.1963 28.6137V12.7608H99.577V40.7947H95.1963V37.1745H95.0764C94.6384 38.837 93.6241 39.9409 92.2997 40.6278C90.9094 41.3489 89.1601 41.6222 87.3125 41.6222H86.5899C83.989 41.6222 81.835 40.8177 80.3314 39.0498C78.8259 37.2795 78.0234 34.6034 78.0234 30.9927V12.7608ZM63.5413 11.9337C60.4411 11.9337 58.1406 12.4898 56.6091 13.7456C55.0496 15.0245 54.3372 16.9852 54.3372 19.6152V20.2359C54.3372 22.4764 54.9301 24.2484 56.2148 25.5693C57.4823 26.8726 59.3902 27.7021 61.9636 28.1717L66.7668 29.0509C68.0449 29.2842 68.8706 29.5719 69.3878 30.1225C69.8817 30.6483 70.1499 31.4808 70.1499 33.0101C70.1499 33.7224 70.0587 34.2795 69.8734 34.7205C69.6909 35.155 69.4057 35.5045 68.9757 35.782C68.0914 36.3526 66.6242 36.6029 64.3064 36.6029H63.6263C61.1436 36.6029 59.5807 36.2355 58.635 35.3918C57.7205 34.5758 57.3153 33.2452 57.3153 31.0448V30.6554H53.0195V31.0448C53.0195 34.63 53.8122 37.309 55.5692 39.0767C57.3121 40.8303 59.9428 41.6226 63.4988 41.6226H64.2639C67.725 41.6226 70.2887 41.0148 71.994 39.6655C73.7287 38.2929 74.5306 36.1906 74.5306 33.3721V32.4412C74.5306 29.9592 73.9577 28.0084 72.7025 26.5779C71.4587 25.1604 69.5864 24.3026 67.0702 23.884L61.8852 23.0049L61.8833 23.0046C60.6349 22.8021 59.8451 22.4165 59.3708 21.9242C58.9121 21.4482 58.718 20.8407 58.718 20.0807C58.718 19.444 58.7964 18.9532 58.9525 18.5693C59.1056 18.1928 59.3438 17.8934 59.7034 17.6562C60.4481 17.1652 61.69 16.9533 63.6688 16.9533H64.3489C66.4987 16.9533 67.8512 17.1649 68.663 17.6617C69.0563 17.9024 69.3127 18.2047 69.4758 18.5791C69.6418 18.9599 69.7248 19.4468 69.7248 20.0807V20.4701H74.063V20.0807C74.063 17.2706 73.3087 15.1928 71.6581 13.8424C70.0361 12.5154 67.5971 11.9337 64.3064 11.9337H63.5413Z" fill="#D7FF00"/>
</svg>
