<svg width="342" height="101" viewBox="0 0 342 101" fill="none" xmlns="http://www.w3.org/2000/svg">
<g clip-path="url(#clip0_5566_84838)">
<rect width="342" height="101" fill="#002132"/>
<path d="M34.6322 56.608H38.9002V44.904H34.6542V43.012H45.1262V44.904H40.9242V56.608H45.1042V58.5H34.6322V56.608ZM50.1015 58.5C49.3315 58.5 49.1335 58.302 49.1335 57.532V48.71H46.3395V46.906H49.1335V42.836H51.0695V46.906H55.5575V48.71H51.0695V56.696H55.7335V58.5H50.1015ZM60.5157 45.564C60.5157 46.576 60.1857 46.906 59.1737 46.906H57.9857V45.894H59.3057V45.102H57.9857V42.572H60.5157V45.564ZM67.8383 58.852C64.1863 58.852 62.5803 57.51 62.5803 54.518H64.4723C64.4723 56.432 65.3303 57.048 67.9043 57.048H68.2563C70.6543 57.048 71.4463 56.63 71.4463 55.354C71.4463 54.012 70.8743 53.704 69.5543 53.506L67.0683 53.132C64.4283 52.736 63.2623 51.746 63.2623 49.92V49.656C63.2623 47.5 64.6703 46.554 67.8603 46.554H68.2563C71.6443 46.554 73.1403 47.544 73.1403 49.854H71.2263C71.2263 48.71 70.5003 48.358 68.2783 48.358H67.9263C65.8803 48.358 65.1983 48.71 65.1983 49.854C65.1983 50.58 65.6603 51.086 66.9803 51.262L69.6643 51.636C72.2383 51.988 73.3823 53.066 73.3823 55.112V55.508C73.3823 57.818 71.7983 58.852 68.2343 58.852H67.8383ZM85.8408 58.852C81.9248 58.852 79.6368 57.092 79.6368 53.198H81.7048C81.7048 55.904 82.9808 56.872 85.9288 56.872H86.4348C89.6028 56.872 90.6808 56.278 90.6808 54.54C90.6808 53.044 89.9988 52.428 87.8208 51.988L85.1588 51.438C82.0128 50.778 80.3628 49.458 80.3628 46.972V46.664C80.3628 43.914 82.3428 42.66 86.3468 42.66H86.8968C90.8568 42.66 92.6168 44.068 92.6168 47.214H90.5488C90.5488 45.3 89.6468 44.64 86.9408 44.64H86.4348C83.5968 44.64 82.4748 45.234 82.4748 46.884C82.4748 48.38 83.0248 48.952 85.0268 49.326L87.9748 49.876C91.2968 50.492 92.7928 51.834 92.7928 54.254V54.782C92.7928 57.598 90.8128 58.852 86.4128 58.852H85.8408ZM103.721 58.5V56.96H103.369C102.995 58.39 101.367 58.852 99.475 58.852H99.101C96.461 58.852 94.833 57.51 94.833 54.496V46.906H96.769V53.99C96.769 56.234 97.517 57.026 99.365 57.026H99.871C102.687 57.026 103.721 55.354 103.721 53.484V46.906H105.657V58.5H103.721ZM114.467 58.852C112.443 58.852 111.079 58.06 110.441 56.366H110.133V63.34H108.197V46.906H110.133V48.974H110.441C111.277 47.302 112.641 46.554 114.467 46.554H114.841C118.251 46.554 119.835 48.38 119.835 52.494V52.868C119.835 57.004 118.251 58.852 114.841 58.852H114.467ZM110.133 52.824C110.133 54.958 111.255 57.026 113.807 57.026H114.049C116.909 57.026 117.855 55.948 117.855 52.824V52.56C117.855 49.392 116.909 48.358 114.049 48.358H113.829C111.101 48.358 110.133 50.25 110.133 52.56V52.824ZM133.649 54.87C133.165 57.62 131.449 58.852 128.061 58.852H127.621C123.595 58.852 121.813 57.07 121.813 52.978V52.472C121.813 48.38 123.529 46.554 127.401 46.554H127.841C131.735 46.554 133.473 48.38 133.473 52.472V53.286H123.749C123.749 56.124 124.871 57.004 127.709 57.004H128.017C130.305 57.004 131.207 56.542 131.625 54.87H133.649ZM123.793 51.57H131.493C131.295 49.238 130.239 48.402 127.797 48.402H127.489C125.003 48.402 123.991 49.194 123.793 51.57ZM136.867 58.5V48.71H134.755V46.906H137.461C138.539 46.906 138.803 47.17 138.803 48.248V48.336H139.045C139.287 47.632 140.695 46.554 142.543 46.554H143.973V48.402H142.213C140.563 48.402 138.803 49.7 138.803 51.746V58.5H136.867ZM145.65 58.5V43.012H152.338C155.858 43.012 157.42 44.464 157.42 47.764V48.116C157.42 51.394 155.858 52.846 152.338 52.846H147.674V58.5H145.65ZM147.674 50.954H151.898C154.45 50.954 155.308 50.206 155.308 48.028V47.83C155.308 45.652 154.45 44.904 151.898 44.904H147.674V50.954ZM159.067 52.472C159.067 48.38 160.827 46.554 164.831 46.554H165.271C169.297 46.554 171.079 48.38 171.079 52.472V52.978C171.079 57.048 169.297 58.852 165.271 58.852H164.831C160.827 58.852 159.067 57.048 159.067 52.978V52.472ZM161.047 52.912C161.047 55.97 162.015 57.004 164.919 57.004H165.227C168.131 57.004 169.099 55.97 169.099 52.912V52.582C169.099 49.436 168.131 48.402 165.227 48.402H164.919C162.015 48.402 161.047 49.436 161.047 52.582V52.912ZM172.943 58.5V56.696H175.231V48.71H172.943V46.906H176.199C176.969 46.906 177.167 47.104 177.167 47.874V56.696H179.455V58.5H172.943ZM175.209 44.794V41.736H177.145V44.794H175.209ZM183.374 46.906V48.446H183.726C184.1 47.038 185.728 46.554 187.598 46.554H187.972C190.612 46.554 192.24 47.896 192.24 50.91V58.5H190.304V51.416C190.304 49.15 189.556 48.38 187.708 48.38H187.202C184.408 48.38 183.418 50.052 183.374 51.922V58.5H181.438V46.906H183.374ZM196.883 58.5C196.113 58.5 195.915 58.302 195.915 57.532V48.71H193.121V46.906H195.915V42.836H197.851V46.906H202.339V48.71H197.851V56.696H202.515V58.5H196.883ZM209.334 58.852C205.682 58.852 204.076 57.51 204.076 54.518H205.968C205.968 56.432 206.826 57.048 209.4 57.048H209.752C212.15 57.048 212.942 56.63 212.942 55.354C212.942 54.012 212.37 53.704 211.05 53.506L208.564 53.132C205.924 52.736 204.758 51.746 204.758 49.92V49.656C204.758 47.5 206.166 46.554 209.356 46.554H209.752C213.14 46.554 214.636 47.544 214.636 49.854H212.722C212.722 48.71 211.996 48.358 209.774 48.358H209.422C207.376 48.358 206.694 48.71 206.694 49.854C206.694 50.58 207.156 51.086 208.476 51.262L211.16 51.636C213.734 51.988 214.878 53.066 214.878 55.112V55.508C214.878 57.818 213.294 58.852 209.73 58.852H209.334ZM227.337 58.852C223.421 58.852 221.133 57.092 221.133 53.198H223.201C223.201 55.904 224.477 56.872 227.425 56.872H227.931C231.099 56.872 232.177 56.278 232.177 54.54C232.177 53.044 231.495 52.428 229.317 51.988L226.655 51.438C223.509 50.778 221.859 49.458 221.859 46.972V46.664C221.859 43.914 223.839 42.66 227.843 42.66H228.393C232.353 42.66 234.113 44.068 234.113 47.214H232.045C232.045 45.3 231.143 44.64 228.437 44.64H227.931C225.093 44.64 223.971 45.234 223.971 46.884C223.971 48.38 224.521 48.952 226.523 49.326L229.471 49.876C232.793 50.492 234.289 51.834 234.289 54.254V54.782C234.289 57.598 232.309 58.852 227.909 58.852H227.337ZM247.989 54.87C247.505 57.62 245.789 58.852 242.401 58.852H241.961C237.935 58.852 236.153 57.07 236.153 52.978V52.472C236.153 48.38 237.869 46.554 241.741 46.554H242.181C246.075 46.554 247.813 48.38 247.813 52.472V53.286H238.089C238.089 56.124 239.211 57.004 242.049 57.004H242.357C244.645 57.004 245.547 56.542 245.965 54.87H247.989ZM238.133 51.57H245.833C245.635 49.238 244.579 48.402 242.137 48.402H241.829C239.343 48.402 238.331 49.194 238.133 51.57ZM254.236 58.852C251.442 58.852 249.968 57.73 249.968 55.2C249.968 52.758 251.42 51.57 254.17 51.57H258.922C258.922 49.15 258.042 48.358 255.666 48.358H255.314C253.004 48.358 252.146 48.996 252.146 50.756H250.32C250.32 47.83 251.684 46.554 255.27 46.554H255.666C259.274 46.554 260.88 48.182 260.88 51.9V56.608H261.782V58.5H260.242C259.164 58.5 258.922 58.104 258.922 56.542H258.592C258.108 58.258 256.942 58.852 254.742 58.852H254.236ZM251.926 55.112C251.926 56.586 252.74 57.048 254.368 57.048H254.764C257.668 57.048 258.922 56.146 258.922 53.396V53.264H254.61C252.608 53.264 251.926 53.726 251.926 55.112ZM268.481 58.852C264.829 58.852 263.223 57.51 263.223 54.518H265.115C265.115 56.432 265.973 57.048 268.547 57.048H268.899C271.297 57.048 272.089 56.63 272.089 55.354C272.089 54.012 271.517 53.704 270.197 53.506L267.711 53.132C265.071 52.736 263.905 51.746 263.905 49.92V49.656C263.905 47.5 265.313 46.554 268.503 46.554H268.899C272.287 46.554 273.783 47.544 273.783 49.854H271.869C271.869 48.71 271.143 48.358 268.921 48.358H268.569C266.523 48.358 265.841 48.71 265.841 49.854C265.841 50.58 266.303 51.086 267.623 51.262L270.307 51.636C272.881 51.988 274.025 53.066 274.025 55.112V55.508C274.025 57.818 272.441 58.852 268.877 58.852H268.481ZM275.985 52.472C275.985 48.38 277.745 46.554 281.749 46.554H282.189C286.215 46.554 287.997 48.38 287.997 52.472V52.978C287.997 57.048 286.215 58.852 282.189 58.852H281.749C277.745 58.852 275.985 57.048 275.985 52.978V52.472ZM277.965 52.912C277.965 55.97 278.933 57.004 281.837 57.004H282.145C285.049 57.004 286.017 55.97 286.017 52.912V52.582C286.017 49.436 285.049 48.402 282.145 48.402H281.837C278.933 48.402 277.965 49.436 277.965 52.582V52.912ZM292.127 46.906V48.446H292.479C292.853 47.038 294.481 46.554 296.351 46.554H296.725C299.365 46.554 300.993 47.896 300.993 50.91V58.5H299.057V51.416C299.057 49.15 298.309 48.38 296.461 48.38H295.955C293.161 48.38 292.171 50.052 292.127 51.922V58.5H290.191V46.906H292.127ZM304.223 43.012H306.247V54.078H304.223V43.012ZM303.959 58.5V55.97H306.489V58.5H303.959Z" fill="#D6FE00"/>
<path d="M-7.45618 91.9089C-3.05595 89.3684 -3.37014 80.5864 -8.15796 72.2936C-12.9458 64.0009 -20.3942 59.3377 -24.7944 61.8782C-29.1946 64.4187 -28.8804 73.2007 -24.0926 81.4935C-19.3048 89.7862 -11.8564 94.4494 -7.45618 91.9089Z" fill="#CDFF00"/>
<path d="M1.8593 40.9759C1.8593 40.9759 1.86894 40.9695 1.87216 40.9663L8.82675 40.5931C13.0921 42.6004 16.8847 48.3583 18.2293 55.6314C19.9148 64.7509 17.1613 73.0211 12.021 74.9383L8.09333 75.157C8.00648 75.1377 7.92285 75.1152 7.83599 75.0895C3.03984 73.7706 -1.43142 67.5816 -2.91756 59.5462C-4.44229 51.3113 -2.34498 43.7745 1.86251 40.9759H1.8593Z" fill="#CDFF00"/>
<path d="M8.87557 40.3486L8.93025 40.3744C13.4047 42.4781 17.149 48.4516 18.4679 55.5895C20.1663 64.7637 17.4289 73.1819 12.1052 75.1666L12.0634 75.1827H12.0183L8.06495 75.4014L8.02957 75.3918C7.95237 75.3725 7.87516 75.3532 7.79796 75.3339L7.76579 75.3242C5.36289 74.6648 2.96642 72.7637 1.01386 69.9748C-0.990165 67.1151 -2.43448 63.5252 -3.16147 59.5912C-4.67333 51.4303 -2.66287 43.694 1.72154 40.7765L1.85665 40.9791L1.72476 40.7765L1.8084 40.7314L8.87557 40.3518V40.3486ZM11.9733 74.697C14.3858 73.7802 16.332 71.3741 17.4578 67.9097C18.6094 64.3712 18.7992 60.0254 17.995 55.6732C16.7083 48.7122 13.0959 42.8995 8.78228 40.8344L1.95314 41.2011C-2.24792 44.035 -4.15222 51.5493 -2.67896 59.4979C-1.25394 67.1988 3.08223 73.5004 7.87195 74.8417L7.90411 74.8514C7.97488 74.8707 8.04565 74.89 8.11642 74.9061L11.9733 74.6938V74.697Z" fill="#231F20"/>
<path d="M7.57253 75.1499C12.5687 74.2258 15.207 65.8435 13.4652 56.4276C11.7235 47.0117 6.26134 40.1278 1.26515 41.052C-3.73104 41.9761 -6.3693 50.3584 -4.62756 59.7743C-2.88583 69.1902 2.57634 76.0741 7.57253 75.1499Z" fill="#CDFF00"/>
<path d="M2.16864 40.7216C4.39141 40.7216 6.69781 42.108 8.76295 44.7071C11.0919 47.6408 12.8418 51.7871 13.691 56.3774C14.5402 60.9677 14.389 65.4647 13.2632 69.0385C12.1212 72.6638 10.1108 74.9155 7.60172 75.3819C5.09266 75.8451 2.4099 74.4619 0.0488119 71.4832C-2.28011 68.5496 -4.03001 64.4032 -4.87923 59.8129C-5.72845 55.2226 -5.57726 50.7256 -4.4514 47.1518C-3.30946 43.5266 -1.299 41.2748 1.20684 40.8084C1.5253 40.7505 1.84375 40.7216 2.16864 40.7216ZM6.64634 74.9863C6.93907 74.9863 7.22857 74.9605 7.51808 74.9058C12.3754 74.0084 14.9327 65.7349 13.2149 56.4643C11.6033 47.7469 6.77501 41.2041 2.16864 41.2041C1.87592 41.2041 1.58641 41.2298 1.29691 41.2845C-3.56037 42.182 -6.11767 50.4554 -4.39993 59.7261C-2.78835 68.4434 2.03998 74.9863 6.64634 74.9863Z" fill="#231F20"/>
<path d="M12.0234 74.6929L12.062 75.1786H12.0202L6.81871 75.4681L6.79297 74.9856L8.07645 74.9148L12.0234 74.6929Z" fill="#231F20"/>
<path d="M8.8043 40.3486L8.83004 40.8344L1.83042 41.2107L1.80469 40.7282L1.84972 40.725L8.8043 40.3486Z" fill="#231F20"/>
<path d="M15.3582 72.1843H11.3984V72.6701H15.3582V72.1843Z" fill="#231F20"/>
<path d="M13.0529 68.7307L13.0273 69.2157L17.2226 69.437L17.2482 68.952L13.0529 68.7307Z" fill="#231F20"/>
<path d="M13.9189 64.2774L13.8984 64.7627L18.4461 64.9541L18.4665 64.4688L13.9189 64.2774Z" fill="#231F20"/>
<path d="M18.7157 60.2152H13.8906V60.7009H18.7157V60.2152Z" fill="#231F20"/>
<path d="M18.2046 55.3912L13.3555 55.7235L13.3887 56.2081L18.2378 55.8758L18.2046 55.3912Z" fill="#231F20"/>
<path d="M17.1371 51.2689L12.2617 51.6398L12.2986 52.1241L17.1739 51.7532L17.1371 51.2689Z" fill="#231F20"/>
<path d="M15.343 47.1704L10.6172 47.8212L10.6834 48.3024L15.4093 47.6516L15.343 47.1704Z" fill="#231F20"/>
<path d="M12.4141 43.1225L8.14062 44.1721L8.25649 44.6438L12.53 43.5942L12.4141 43.1225Z" fill="#231F20"/>
<path d="M348.456 92.5305C344.056 89.99 344.37 81.2079 349.158 72.9152C353.946 64.6225 361.394 59.9593 365.794 62.4998C370.195 65.0403 369.88 73.8223 365.093 82.1151C360.305 90.4078 352.856 95.0709 348.456 92.5305Z" fill="#CDFF00"/>
<path d="M339.141 41.5975C339.141 41.5975 339.131 41.5911 339.128 41.5879L332.173 41.2147C327.908 43.222 324.115 48.9799 322.771 56.253C321.085 65.3724 323.839 73.6427 328.979 75.5598L332.907 75.7786C332.994 75.7593 333.077 75.7368 333.164 75.711C337.96 74.3922 342.431 68.2032 343.918 60.1677C345.442 51.9329 343.345 44.3961 339.137 41.5975H339.141Z" fill="#CDFF00"/>
<path d="M332.124 40.9702L332.07 40.9959C327.595 43.0997 323.851 49.0732 322.532 56.2111C320.834 65.3853 323.571 73.8035 328.895 75.7882L328.937 75.8043H328.982L332.935 76.023L332.97 76.0134C333.048 75.9941 333.125 75.9748 333.202 75.9555L333.234 75.9458C335.637 75.2864 338.034 73.3853 339.986 70.5964C341.99 67.7367 343.434 64.1468 344.161 60.2128C345.673 52.0519 343.663 44.3156 339.278 41.398L339.143 41.6007L339.275 41.398L339.192 41.353L332.124 40.9734V40.9702ZM329.027 75.3186C326.614 74.4018 324.668 71.9957 323.542 68.5312C322.391 64.9928 322.201 60.647 323.005 56.2948C324.292 49.3337 327.904 43.5211 332.218 41.4559L339.047 41.8227C343.248 44.6566 345.152 52.1709 343.679 60.1195C342.254 67.8203 337.918 74.1219 333.128 75.4633L333.096 75.473C333.025 75.4923 332.954 75.5116 332.884 75.5277L329.027 75.3153V75.3186Z" fill="#231F20"/>
<path d="M333.427 75.7715C328.431 74.8473 325.793 66.465 327.535 57.0491C329.277 47.6332 334.739 40.7494 339.735 41.6735C344.731 42.5977 347.369 50.98 345.628 60.3959C343.886 69.8118 338.424 76.6957 333.427 75.7715Z" fill="#CDFF00"/>
<path d="M338.831 41.3431C336.609 41.3431 334.302 42.7296 332.237 45.3287C329.908 48.2623 328.158 52.4087 327.309 56.999C326.46 61.5893 326.611 66.0863 327.737 69.6601C328.879 73.2854 330.889 75.5371 333.398 76.0035C335.907 76.4667 338.59 75.0835 340.951 72.1048C343.28 69.1712 345.03 65.0248 345.879 60.4345C346.728 55.8442 346.577 51.3472 345.451 47.7734C344.309 44.1481 342.299 41.8964 339.793 41.43C339.475 41.3721 339.156 41.3431 338.831 41.3431ZM334.354 75.6078C334.061 75.6078 333.771 75.5821 333.482 75.5274C328.625 74.63 326.067 66.3565 327.785 57.0859C329.397 48.3685 334.225 41.8257 338.831 41.8257C339.124 41.8257 339.414 41.8514 339.703 41.9061C344.56 42.8035 347.118 51.077 345.4 60.3476C343.788 69.065 338.96 75.6078 334.354 75.6078Z" fill="#231F20"/>
<path d="M328.977 75.3145L328.938 75.8002H328.98L334.181 76.0897L334.207 75.6072L332.924 75.5364L328.977 75.3145Z" fill="#231F20"/>
<path d="M332.196 40.9702L332.17 41.4559L339.17 41.8323L339.195 41.3498L339.15 41.3466L332.196 40.9702Z" fill="#231F20"/>
<path d="M325.642 72.8059H329.602V73.2916H325.642V72.8059Z" fill="#231F20"/>
<path d="M327.947 69.3522L327.973 69.8373L323.777 70.0586L323.752 69.5736L327.947 69.3522Z" fill="#231F20"/>
<path d="M327.081 64.899L327.102 65.3843L322.554 65.5757L322.533 65.0904L327.081 64.899Z" fill="#231F20"/>
<path d="M322.284 60.8368H327.109V61.3225H322.284V60.8368Z" fill="#231F20"/>
<path d="M322.795 56.0128L327.645 56.3451L327.611 56.8297L322.762 56.4974L322.795 56.0128Z" fill="#231F20"/>
<path d="M323.863 51.8905L328.738 52.2614L328.701 52.7457L323.826 52.3748L323.863 51.8905Z" fill="#231F20"/>
<path d="M325.657 47.792L330.383 48.4427L330.317 48.9239L325.591 48.2732L325.657 47.792Z" fill="#231F20"/>
<path d="M328.586 43.744L332.859 44.7937L332.744 45.2654L328.47 44.2157L328.586 43.744Z" fill="#231F20"/>
</g>
<defs>
<clipPath id="clip0_5566_84838">
<rect width="342" height="101" fill="white"/>
</clipPath>
</defs>
</svg>
