<svg width="342" height="101" viewBox="0 0 342 101" fill="none" xmlns="http://www.w3.org/2000/svg">
<g clip-path="url(#clip0_2939_105577)">
<rect width="342" height="101" fill="#002132"/>
<path d="M45.9232 59.5L42.7552 42.604H44.9632L47.8912 58.252H48.3712L50.3152 46.972H54.7072L56.5552 58.252H57.0352L59.9632 42.604H62.1232L58.9552 59.5H54.5632L52.7152 48.22H52.2352L50.2912 59.5H45.9232ZM76.1131 55.54C75.5851 58.54 73.7131 59.884 70.0171 59.884H69.5371C65.1451 59.884 63.2011 57.94 63.2011 53.476V52.924C63.2011 48.46 65.0731 46.468 69.2971 46.468H69.7771C74.0251 46.468 75.9211 48.46 75.9211 52.924V53.812H65.3131C65.3131 56.908 66.5371 57.868 69.6331 57.868H69.9691C72.4651 57.868 73.4491 57.364 73.9051 55.54H76.1131ZM65.3611 51.94H73.7611C73.5451 49.396 72.3931 48.484 69.7291 48.484H69.3931C66.6811 48.484 65.5771 49.348 65.3611 51.94ZM82.2427 41.596C83.0827 41.596 83.2987 41.812 83.2987 42.652V57.532H86.8507V59.5H77.6827V57.532H81.1867V43.564H77.8027V41.596H82.2427ZM100.756 55.252C100.324 58.468 98.4998 59.884 94.8038 59.884H94.3478C90.2438 59.884 88.4198 57.916 88.4198 53.476V52.924C88.4198 48.484 90.2438 46.468 94.3478 46.468H94.8038C98.3798 46.468 100.156 47.908 100.612 51.148H98.4278C98.0678 49.156 97.0838 48.484 94.7318 48.484H94.4198C91.5398 48.484 90.5798 49.636 90.5798 52.996V53.38C90.5798 56.74 91.5398 57.868 94.4198 57.868H94.7318C97.1798 57.868 98.2118 57.22 98.5718 55.252H100.756ZM102.787 52.924C102.787 48.46 104.707 46.468 109.075 46.468H109.555C113.947 46.468 115.891 48.46 115.891 52.924V53.476C115.891 57.916 113.947 59.884 109.555 59.884H109.075C104.707 59.884 102.787 57.916 102.787 53.476V52.924ZM104.947 53.404C104.947 56.74 106.003 57.868 109.171 57.868H109.507C112.675 57.868 113.731 56.74 113.731 53.404V53.044C113.731 49.612 112.675 48.484 109.507 48.484H109.171C106.003 48.484 104.947 49.612 104.947 53.044V53.404ZM120.397 46.852V48.508H120.757C121.165 47.5 122.725 46.468 124.309 46.468H124.789C126.493 46.468 127.717 47.164 128.365 48.508H128.917C129.325 47.5 130.909 46.468 132.493 46.468H132.973C135.541 46.468 137.029 48.052 137.029 51.1V59.5H134.917V51.82C134.917 49.612 134.389 48.46 132.493 48.46H132.085C129.037 48.532 128.869 50.284 128.869 52.324V59.5H126.757V51.82C126.757 49.612 126.109 48.46 124.213 48.46H123.805C120.757 48.532 120.397 50.284 120.397 52.324V59.5H118.285V46.852H120.397ZM152.097 55.54C151.569 58.54 149.697 59.884 146.001 59.884H145.521C141.129 59.884 139.185 57.94 139.185 53.476V52.924C139.185 48.46 141.057 46.468 145.281 46.468H145.761C150.009 46.468 151.905 48.46 151.905 52.924V53.812H141.297C141.297 56.908 142.521 57.868 145.617 57.868H145.953C148.449 57.868 149.433 57.364 149.889 55.54H152.097ZM141.345 51.94H149.745C149.529 49.396 148.377 48.484 145.713 48.484H145.377C142.665 48.484 141.561 49.348 141.345 51.94ZM162.204 59.5C161.364 59.5 161.148 59.284 161.148 58.444V48.82H158.1V46.852H161.148V42.412H163.26V46.852H168.156V48.82H163.26V57.532H168.348V59.5H162.204ZM170.217 52.924C170.217 48.46 172.137 46.468 176.505 46.468H176.985C181.377 46.468 183.321 48.46 183.321 52.924V53.476C183.321 57.916 181.377 59.884 176.985 59.884H176.505C172.137 59.884 170.217 57.916 170.217 53.476V52.924ZM172.377 53.404C172.377 56.74 173.433 57.868 176.601 57.868H176.937C180.105 57.868 181.161 56.74 181.161 53.404V53.044C181.161 49.612 180.105 48.484 176.937 48.484H176.601C173.433 48.484 172.377 49.612 172.377 53.044V53.404ZM196.927 59.884C192.655 59.884 190.159 57.964 190.159 53.716H192.415C192.415 56.668 193.807 57.724 197.023 57.724H197.575C201.031 57.724 202.207 57.076 202.207 55.18C202.207 53.548 201.463 52.876 199.087 52.396L196.183 51.796C192.751 51.076 190.951 49.636 190.951 46.924V46.588C190.951 43.588 193.111 42.22 197.479 42.22H198.079C202.399 42.22 204.319 43.756 204.319 47.188H202.063C202.063 45.1 201.079 44.38 198.127 44.38H197.575C194.479 44.38 193.255 45.028 193.255 46.828C193.255 48.46 193.855 49.084 196.039 49.492L199.255 50.092C202.879 50.764 204.511 52.228 204.511 54.868V55.444C204.511 58.516 202.351 59.884 197.551 59.884H196.927ZM219.457 55.54C218.929 58.54 217.057 59.884 213.361 59.884H212.881C208.489 59.884 206.545 57.94 206.545 53.476V52.924C206.545 48.46 208.417 46.468 212.641 46.468H213.121C217.369 46.468 219.265 48.46 219.265 52.924V53.812H208.657C208.657 56.908 209.881 57.868 212.977 57.868H213.313C215.809 57.868 216.793 57.364 217.249 55.54H219.457ZM208.705 51.94H217.105C216.889 49.396 215.737 48.484 213.073 48.484H212.737C210.025 48.484 208.921 49.348 208.705 51.94ZM226.271 59.884C223.223 59.884 221.615 58.66 221.615 55.9C221.615 53.236 223.199 51.94 226.199 51.94H231.383C231.383 49.3 230.423 48.436 227.831 48.436H227.447C224.927 48.436 223.991 49.132 223.991 51.052H221.999C221.999 47.86 223.487 46.468 227.399 46.468H227.831C231.767 46.468 233.519 48.244 233.519 52.3V57.436H234.503V59.5H232.823C231.647 59.5 231.383 59.068 231.383 57.364H231.023C230.495 59.236 229.223 59.884 226.823 59.884H226.271ZM223.751 55.804C223.751 57.412 224.639 57.916 226.415 57.916H226.847C230.015 57.916 231.383 56.932 231.383 53.932V53.788H226.679C224.495 53.788 223.751 54.292 223.751 55.804ZM241.812 59.884C237.828 59.884 236.076 58.42 236.076 55.156H238.14C238.14 57.244 239.076 57.916 241.884 57.916H242.268C244.884 57.916 245.748 57.46 245.748 56.068C245.748 54.604 245.124 54.268 243.684 54.052L240.972 53.644C238.092 53.212 236.82 52.132 236.82 50.14V49.852C236.82 47.5 238.356 46.468 241.836 46.468H242.268C245.964 46.468 247.596 47.548 247.596 50.068H245.508C245.508 48.82 244.716 48.436 242.292 48.436H241.908C239.676 48.436 238.932 48.82 238.932 50.068C238.932 50.86 239.436 51.412 240.876 51.604L243.804 52.012C246.612 52.396 247.86 53.572 247.86 55.804V56.236C247.86 58.756 246.132 59.884 242.244 59.884H241.812ZM249.998 52.924C249.998 48.46 251.918 46.468 256.286 46.468H256.766C261.158 46.468 263.102 48.46 263.102 52.924V53.476C263.102 57.916 261.158 59.884 256.766 59.884H256.286C251.918 59.884 249.998 57.916 249.998 53.476V52.924ZM252.158 53.404C252.158 56.74 253.214 57.868 256.382 57.868H256.718C259.886 57.868 260.942 56.74 260.942 53.404V53.044C260.942 49.612 259.886 48.484 256.718 48.484H256.382C253.214 48.484 252.158 49.612 252.158 53.044V53.404ZM267.608 46.852V48.532H267.992C268.4 46.996 270.176 46.468 272.216 46.468H272.624C275.504 46.468 277.28 47.932 277.28 51.22V59.5H275.168V51.772C275.168 49.3 274.352 48.46 272.336 48.46H271.784C268.736 48.46 267.656 50.284 267.608 52.324V59.5H265.496V46.852H267.608ZM293.168 42.604V57.436H297.848V59.5H285.536V57.436H290.96V43.852H290.48L287.552 49.804H285.392L288.92 42.604H293.168Z" fill="#D6FE00"/>
<path d="M-7.45618 91.9089C-3.05595 89.3684 -3.37014 80.5864 -8.15796 72.2936C-12.9458 64.0009 -20.3942 59.3378 -24.7944 61.8782C-29.1946 64.4187 -28.8804 73.2008 -24.0926 81.4935C-19.3048 89.7863 -11.8564 94.4494 -7.45618 91.9089Z" fill="#CDFF00"/>
<path d="M1.8593 40.976C1.8593 40.976 1.86894 40.9695 1.87216 40.9663L8.82675 40.5932C13.0921 42.6004 16.8847 48.3584 18.2293 55.6314C19.9148 64.7509 17.1613 73.0211 12.021 74.9383L8.09333 75.157C8.00648 75.1377 7.92285 75.1152 7.83599 75.0895C3.03984 73.7706 -1.43142 67.5816 -2.91756 59.5462C-4.44229 51.3113 -2.34498 43.7745 1.86251 40.976H1.8593Z" fill="#CDFF00"/>
<path d="M8.87557 40.3487L8.93025 40.3744C13.4047 42.4781 17.149 48.4516 18.4679 55.5896C20.1663 64.7637 17.4289 73.1819 12.1052 75.1667L12.0634 75.1827H12.0183L8.06495 75.4015L8.02957 75.3918C7.95237 75.3725 7.87516 75.3532 7.79796 75.3339L7.76579 75.3243C5.36289 74.6648 2.96642 72.7638 1.01386 69.9748C-0.990165 67.1152 -2.43448 63.5253 -3.16147 59.5912C-4.67333 51.4303 -2.66287 43.6941 1.72154 40.7765L1.85665 40.9791L1.72476 40.7765L1.8084 40.7315L8.87557 40.3519V40.3487ZM11.9733 74.697C14.3858 73.7802 16.332 71.3741 17.4578 67.9097C18.6094 64.3713 18.7992 60.0255 17.995 55.6732C16.7083 48.7122 13.0959 42.8995 8.78228 40.8344L1.95314 41.2011C-2.24792 44.035 -4.15222 51.5494 -2.67896 59.4979C-1.25394 67.1988 3.08223 73.5004 7.87195 74.8418L7.90411 74.8514C7.97488 74.8707 8.04565 74.89 8.11642 74.9061L11.9733 74.6938V74.697Z" fill="#231F20"/>
<path d="M7.57253 75.1499C12.5687 74.2257 15.207 65.8434 13.4652 56.4275C11.7235 47.0116 6.26134 40.1277 1.26515 41.0519C-3.73104 41.9761 -6.3693 50.3584 -4.62756 59.7743C-2.88583 69.1902 2.57634 76.0741 7.57253 75.1499Z" fill="#CDFF00"/>
<path d="M2.16864 40.7215C4.39141 40.7215 6.69781 42.108 8.76295 44.7071C11.0919 47.6407 12.8418 51.7871 13.691 56.3774C14.5402 60.9677 14.389 65.4647 13.2632 69.0385C12.1212 72.6638 10.1108 74.9155 7.60172 75.3819C5.09266 75.8451 2.4099 74.4619 0.0488119 71.4832C-2.28011 68.5496 -4.03001 64.4032 -4.87923 59.8129C-5.72845 55.2226 -5.57726 50.7256 -4.4514 47.1518C-3.30946 43.5265 -1.299 41.2748 1.20684 40.8084C1.5253 40.7505 1.84375 40.7215 2.16864 40.7215ZM6.64634 74.9863C6.93907 74.9863 7.22857 74.9605 7.51808 74.9058C12.3754 74.0084 14.9327 65.7349 13.2149 56.4643C11.6033 47.7469 6.77501 41.2041 2.16864 41.2041C1.87592 41.2041 1.58641 41.2298 1.29691 41.2845C-3.56037 42.1819 -6.11767 50.4554 -4.39993 59.726C-2.78835 68.4434 2.03998 74.9863 6.64634 74.9863Z" fill="#231F20"/>
<path d="M12.0234 74.6928L12.062 75.1786H12.0202L6.81871 75.4681L6.79297 74.9856L8.07645 74.9148L12.0234 74.6928Z" fill="#231F20"/>
<path d="M8.8043 40.3486L8.83004 40.8344L1.83042 41.2107L1.80469 40.7282L1.84972 40.725L8.8043 40.3486Z" fill="#231F20"/>
<path d="M15.3582 72.1843H11.3984V72.67H15.3582V72.1843Z" fill="#231F20"/>
<path d="M13.0529 68.7306L13.0273 69.2156L17.2226 69.4369L17.2482 68.9519L13.0529 68.7306Z" fill="#231F20"/>
<path d="M13.9189 64.2773L13.8984 64.7626L18.4461 64.954L18.4665 64.4687L13.9189 64.2773Z" fill="#231F20"/>
<path d="M18.7157 60.2151H13.8906V60.7009H18.7157V60.2151Z" fill="#231F20"/>
<path d="M18.2046 55.3912L13.3555 55.7235L13.3887 56.2081L18.2378 55.8758L18.2046 55.3912Z" fill="#231F20"/>
<path d="M17.1371 51.2689L12.2617 51.6397L12.2986 52.1241L17.1739 51.7532L17.1371 51.2689Z" fill="#231F20"/>
<path d="M15.343 47.1704L10.6172 47.8211L10.6834 48.3023L15.4093 47.6516L15.343 47.1704Z" fill="#231F20"/>
<path d="M12.4141 43.1224L8.14062 44.1721L8.25649 44.6438L12.53 43.5941L12.4141 43.1224Z" fill="#231F20"/>
<path d="M348.456 92.5305C344.056 89.99 344.37 81.2079 349.158 72.9152C353.946 64.6225 361.394 59.9593 365.794 62.4998C370.195 65.0403 369.88 73.8223 365.093 82.1151C360.305 90.4078 352.856 95.0709 348.456 92.5305Z" fill="#CDFF00"/>
<path d="M339.141 41.5975C339.141 41.5975 339.131 41.5911 339.128 41.5879L332.173 41.2147C327.908 43.222 324.115 48.9799 322.771 56.253C321.085 65.3724 323.839 73.6427 328.979 75.5599L332.907 75.7786C332.994 75.7593 333.077 75.7368 333.164 75.711C337.96 74.3922 342.431 68.2032 343.918 60.1678C345.442 51.9329 343.345 44.3961 339.137 41.5975H339.141Z" fill="#CDFF00"/>
<path d="M332.124 40.9702L332.07 40.996C327.595 43.0997 323.851 49.0732 322.532 56.2111C320.834 65.3853 323.571 73.8035 328.895 75.7882L328.937 75.8043H328.982L332.935 76.023L332.97 76.0134C333.048 75.9941 333.125 75.9748 333.202 75.9555L333.234 75.9458C335.637 75.2864 338.034 73.3853 339.986 70.5964C341.99 67.7367 343.434 64.1468 344.161 60.2128C345.673 52.0519 343.663 44.3156 339.278 41.3981L339.143 41.6007L339.275 41.3981L339.192 41.353L332.124 40.9734V40.9702ZM329.027 75.3186C326.614 74.4018 324.668 71.9957 323.542 68.5313C322.391 64.9928 322.201 60.647 323.005 56.2948C324.292 49.3338 327.904 43.5211 332.218 41.456L339.047 41.8227C343.248 44.6566 345.152 52.1709 343.679 60.1195C342.254 67.8204 337.918 74.122 333.128 75.4633L333.096 75.473C333.025 75.4923 332.954 75.5116 332.884 75.5277L329.027 75.3154V75.3186Z" fill="#231F20"/>
<path d="M333.427 75.7714C328.431 74.8473 325.793 66.465 327.535 57.0491C329.277 47.6332 334.739 40.7493 339.735 41.6735C344.731 42.5976 347.369 50.9799 345.628 60.3958C343.886 69.8117 338.424 76.6956 333.427 75.7714Z" fill="#CDFF00"/>
<path d="M338.831 41.3431C336.609 41.3431 334.302 42.7295 332.237 45.3286C329.908 48.2623 328.158 52.4087 327.309 56.999C326.46 61.5893 326.611 66.0863 327.737 69.6601C328.879 73.2853 330.889 75.5371 333.398 76.0035C335.907 76.4667 338.59 75.0835 340.951 72.1048C343.28 69.1711 345.03 65.0247 345.879 60.4345C346.728 55.8442 346.577 51.3472 345.451 47.7734C344.309 44.1481 342.299 41.8964 339.793 41.43C339.475 41.3721 339.156 41.3431 338.831 41.3431ZM334.354 75.6078C334.061 75.6078 333.771 75.5821 333.482 75.5274C328.625 74.6299 326.067 66.3565 327.785 57.0858C329.397 48.3685 334.225 41.8256 338.831 41.8256C339.124 41.8256 339.414 41.8514 339.703 41.906C344.56 42.8035 347.118 51.077 345.4 60.3476C343.788 69.065 338.96 75.6078 334.354 75.6078Z" fill="#231F20"/>
<path d="M328.977 75.3144L328.938 75.8001H328.98L334.181 76.0897L334.207 75.6071L332.924 75.5364L328.977 75.3144Z" fill="#231F20"/>
<path d="M332.196 40.9702L332.17 41.4559L339.17 41.8323L339.195 41.3498L339.15 41.3466L332.196 40.9702Z" fill="#231F20"/>
<path d="M325.642 72.8058H329.602V73.2916H325.642V72.8058Z" fill="#231F20"/>
<path d="M327.947 69.3521L327.973 69.8372L323.777 70.0585L323.752 69.5735L327.947 69.3521Z" fill="#231F20"/>
<path d="M327.081 64.8989L327.102 65.3842L322.554 65.5756L322.533 65.0903L327.081 64.8989Z" fill="#231F20"/>
<path d="M322.284 60.8367H327.109V61.3224H322.284V60.8367Z" fill="#231F20"/>
<path d="M322.795 56.0128L327.645 56.3451L327.611 56.8297L322.762 56.4974L322.795 56.0128Z" fill="#231F20"/>
<path d="M323.863 51.8904L328.738 52.2613L328.701 52.7456L323.826 52.3748L323.863 51.8904Z" fill="#231F20"/>
<path d="M325.657 47.792L330.383 48.4427L330.317 48.9239L325.591 48.2732L325.657 47.792Z" fill="#231F20"/>
<path d="M328.586 43.744L332.859 44.7936L332.744 45.2653L328.47 44.2157L328.586 43.744Z" fill="#231F20"/>
</g>
<defs>
<clipPath id="clip0_2939_105577">
<rect width="342" height="101" fill="white"/>
</clipPath>
</defs>
</svg>
