<svg width="574" height="241" viewBox="0 0 574 241" fill="none" xmlns="http://www.w3.org/2000/svg">
<path fill-rule="evenodd" clip-rule="evenodd" d="M536.266 231.069H545.501L545.501 221.834H554.736V214.446V212.599L554.736 212.599H563.97V203.364L554.736 203.364V201.517V194.13H545.501V184.895H274V201.517H274V214.446H274V231.069L536.266 231.069Z" fill="url(#paint0_linear_2279_47770)"/>
<g filter="url(#filter0_f_2279_47770)">
<path fill-rule="evenodd" clip-rule="evenodd" d="M545.53 231.105H536.296V231.105H274.029L274.029 214.482V201.554L274.029 184.931L536.296 184.931L545.53 184.931L545.53 194.166L554.765 194.166V201.554V203.401L564 203.401V212.635L554.765 212.635V214.482V221.87L545.53 221.87L545.53 231.105L545.53 231.105Z" fill="url(#paint1_linear_2279_47770)"/>
</g>
<path fill-rule="evenodd" clip-rule="evenodd" d="M272.266 56.0688H281.501L281.501 46.8342H290.736V39.4461V37.5994L290.736 37.5992H299.97V28.3644L290.736 28.3645V26.5174V19.1297H281.501V9.89515H10V26.5174H10V39.4461H10V56.0688L272.266 56.0688Z" fill="url(#paint2_linear_2279_47770)"/>
<g filter="url(#filter1_f_2279_47770)">
<path fill-rule="evenodd" clip-rule="evenodd" d="M281.53 56.1047H272.296V56.1047H10.0293L10.0293 39.4822V26.5536L10.0293 9.93105L272.296 9.93105L281.53 9.93105L281.53 19.1658L290.765 19.1658V26.5536V28.4006L300 28.4005V37.6353L290.765 37.6353V39.4822V46.87L281.53 46.87L281.53 56.1047L281.53 56.1047Z" fill="url(#paint3_linear_2279_47770)"/>
</g>
<defs>
<filter id="filter0_f_2279_47770" x="264.246" y="175.148" width="309.537" height="65.7402" filterUnits="userSpaceOnUse" color-interpolation-filters="sRGB">
<feFlood flood-opacity="0" result="BackgroundImageFix"/>
<feBlend mode="normal" in="SourceGraphic" in2="BackgroundImageFix" result="shape"/>
<feGaussianBlur stdDeviation="4.89164" result="effect1_foregroundBlur_2279_47770"/>
</filter>
<filter id="filter1_f_2279_47770" x="0.246011" y="0.147744" width="309.537" height="65.7403" filterUnits="userSpaceOnUse" color-interpolation-filters="sRGB">
<feFlood flood-opacity="0" result="BackgroundImageFix"/>
<feBlend mode="normal" in="SourceGraphic" in2="BackgroundImageFix" result="shape"/>
<feGaussianBlur stdDeviation="4.89164" result="effect1_foregroundBlur_2279_47770"/>
</filter>
<linearGradient id="paint0_linear_2279_47770" x1="350.772" y1="208.233" x2="559.657" y2="207.982" gradientUnits="userSpaceOnUse">
<stop offset="0.123444" stop-color="#CDDCE4" stop-opacity="0"/>
<stop offset="1" stop-color="#D7FF00"/>
</linearGradient>
<linearGradient id="paint1_linear_2279_47770" x1="332.222" y1="208.018" x2="566.683" y2="208.018" gradientUnits="userSpaceOnUse">
<stop offset="0.301262" stop-color="#CDDCE4" stop-opacity="0"/>
<stop offset="0.917394" stop-color="#D7FF00"/>
</linearGradient>
<linearGradient id="paint2_linear_2279_47770" x1="86.7719" y1="33.2337" x2="295.657" y2="32.982" gradientUnits="userSpaceOnUse">
<stop offset="0.123444" stop-color="#CDDCE4" stop-opacity="0"/>
<stop offset="1" stop-color="#D7FF00"/>
</linearGradient>
<linearGradient id="paint3_linear_2279_47770" x1="68.2223" y1="33.0179" x2="302.683" y2="33.0179" gradientUnits="userSpaceOnUse">
<stop offset="0.301262" stop-color="#CDDCE4" stop-opacity="0"/>
<stop offset="0.917394" stop-color="#D7FF00"/>
</linearGradient>
</defs>
</svg>
