<svg width="41" height="41" viewBox="0 0 41 41" fill="none" xmlns="http://www.w3.org/2000/svg">
<g clip-path="url(#clip0_1446_14759)">
<g filter="url(#filter0_di_1446_14759)">
<path d="M30.5 40.0127H10.5C7.18629 40.0127 4.5 37.3264 4.5 34.0127V6.0127C4.5 2.69899 7.18629 0.0126953 10.5 0.0126953H21.0147C22.606 0.0126953 24.1321 0.644837 25.2574 1.77006L34.7426 11.2553C35.8679 12.3806 36.5 13.9067 36.5 15.498V34.0127C36.5 37.3264 33.8137 40.0127 30.5 40.0127Z" fill="white"/>
<path d="M30.5 39.2627H10.5C7.60051 39.2627 5.25 36.9122 5.25 34.0127V6.0127C5.25 3.1132 7.60051 0.762695 10.5 0.762695H21.0147C22.4071 0.762695 23.7425 1.31582 24.727 2.30039L34.2123 11.7857C35.1969 12.7702 35.75 14.1056 35.75 15.498V34.0127C35.75 36.9122 33.3995 39.2627 30.5 39.2627Z" stroke="#CDD0D5" stroke-width="1.5"/>
</g>
<path d="M23.5 1.0127V9.0127C23.5 11.2218 25.2909 13.0127 27.5 13.0127H35.5" stroke="#CDD0D5" stroke-width="1.5"/>
<g filter="url(#filter1_i_1446_14759)">
<mask id="path-4-inside-1_1446_14759" fill="white">
<path d="M0.5 22.0127C0.5 19.8036 2.29086 18.0127 4.5 18.0127H24.5C26.7091 18.0127 28.5 19.8036 28.5 22.0127V30.0127C28.5 32.2218 26.7091 34.0127 24.5 34.0127H4.5C2.29086 34.0127 0.5 32.2218 0.5 30.0127V22.0127Z"/>
</mask>
<path d="M0.5 22.0127C0.5 19.8036 2.29086 18.0127 4.5 18.0127H24.5C26.7091 18.0127 28.5 19.8036 28.5 22.0127V30.0127C28.5 32.2218 26.7091 34.0127 24.5 34.0127H4.5C2.29086 34.0127 0.5 32.2218 0.5 30.0127V22.0127Z" fill="#DF1C41"/>
<path d="M-0.5 22.0127C-0.5 19.2513 1.73858 17.0127 4.5 17.0127H24.5C27.2614 17.0127 29.5 19.2513 29.5 22.0127H27.5C27.5 20.3558 26.1569 19.0127 24.5 19.0127H4.5C2.84315 19.0127 1.5 20.3558 1.5 22.0127H-0.5ZM28.5 34.0127H0.5H28.5ZM4.5 34.0127C1.73858 34.0127 -0.5 31.7741 -0.5 29.0127V22.0127C-0.5 19.2513 1.73858 17.0127 4.5 17.0127V19.0127C2.84315 19.0127 1.5 20.3558 1.5 22.0127V30.0127C1.5 32.2218 2.84315 34.0127 4.5 34.0127ZM24.5 17.0127C27.2614 17.0127 29.5 19.2513 29.5 22.0127V29.0127C29.5 31.7741 27.2614 34.0127 24.5 34.0127C26.1569 34.0127 27.5 32.2218 27.5 30.0127V22.0127C27.5 20.3558 26.1569 19.0127 24.5 19.0127V17.0127Z" fill="black" fill-opacity="0.08" mask="url(#path-4-inside-1_1446_14759)"/>
<path d="M4.28906 30.0127V22.0127H7.28906C7.90365 22.0127 8.41927 22.1273 8.83594 22.3564C9.25521 22.5856 9.57161 22.9007 9.78516 23.3018C10.0013 23.7002 10.1094 24.1533 10.1094 24.6611C10.1094 25.1742 10.0013 25.6299 9.78516 26.0283C9.56901 26.4268 9.25 26.7406 8.82812 26.9697C8.40625 27.1963 7.88672 27.3096 7.26953 27.3096H5.28125V26.1182H7.07422C7.43359 26.1182 7.72786 26.0557 7.95703 25.9307C8.1862 25.8057 8.35547 25.6338 8.46484 25.415C8.57682 25.1963 8.63281 24.945 8.63281 24.6611C8.63281 24.3773 8.57682 24.1273 8.46484 23.9111C8.35547 23.695 8.1849 23.527 7.95313 23.4072C7.72396 23.2848 7.42839 23.2236 7.06641 23.2236H5.73828V30.0127H4.28906ZM14.2991 30.0127H11.5882V22.0127H14.3538C15.1481 22.0127 15.8304 22.1729 16.4007 22.4932C16.9736 22.8109 17.4137 23.2679 17.721 23.8643C18.0283 24.4606 18.1819 25.1742 18.1819 26.0049C18.1819 26.8382 18.027 27.5544 17.7171 28.1533C17.4098 28.7523 16.9658 29.2119 16.385 29.5322C15.8069 29.8525 15.1116 30.0127 14.2991 30.0127ZM13.0374 28.7588H14.2288C14.7861 28.7588 15.2509 28.6572 15.6233 28.4541C15.9957 28.2484 16.2757 27.9424 16.4632 27.5361C16.6507 27.1273 16.7444 26.6169 16.7444 26.0049C16.7444 25.3929 16.6507 24.8851 16.4632 24.4814C16.2757 24.0752 15.9983 23.7718 15.6311 23.5713C15.2665 23.3682 14.8134 23.2666 14.2718 23.2666H13.0374V28.7588ZM19.7789 30.0127V22.0127H24.9039V23.2275H21.2281V25.3994H24.5523V26.6143H21.2281V30.0127H19.7789Z" fill="white"/>
</g>
</g>
<defs>
<filter id="filter0_di_1446_14759" x="2.5" y="-3.9873" width="36" height="47" filterUnits="userSpaceOnUse" color-interpolation-filters="sRGB">
<feFlood flood-opacity="0" result="BackgroundImageFix"/>
<feColorMatrix in="SourceAlpha" type="matrix" values="0 0 0 0 0 0 0 0 0 0 0 0 0 0 0 0 0 0 127 0" result="hardAlpha"/>
<feOffset dy="1"/>
<feGaussianBlur stdDeviation="1"/>
<feComposite in2="hardAlpha" operator="out"/>
<feColorMatrix type="matrix" values="0 0 0 0 0.894118 0 0 0 0 0.898039 0 0 0 0 0.905882 0 0 0 0.24 0"/>
<feBlend mode="normal" in2="BackgroundImageFix" result="effect1_dropShadow_1446_14759"/>
<feBlend mode="normal" in="SourceGraphic" in2="effect1_dropShadow_1446_14759" result="shape"/>
<feColorMatrix in="SourceAlpha" type="matrix" values="0 0 0 0 0 0 0 0 0 0 0 0 0 0 0 0 0 0 127 0" result="hardAlpha"/>
<feOffset dy="-4"/>
<feGaussianBlur stdDeviation="2"/>
<feComposite in2="hardAlpha" operator="arithmetic" k2="-1" k3="1"/>
<feColorMatrix type="matrix" values="0 0 0 0 0.813571 0 0 0 0 0.82 0 0 0 0 0.826429 0 0 0 0.32 0"/>
<feBlend mode="normal" in2="shape" result="effect2_innerShadow_1446_14759"/>
</filter>
<filter id="filter1_i_1446_14759" x="0.5" y="18.0127" width="28" height="20" filterUnits="userSpaceOnUse" color-interpolation-filters="sRGB">
<feFlood flood-opacity="0" result="BackgroundImageFix"/>
<feBlend mode="normal" in="SourceGraphic" in2="BackgroundImageFix" result="shape"/>
<feColorMatrix in="SourceAlpha" type="matrix" values="0 0 0 0 0 0 0 0 0 0 0 0 0 0 0 0 0 0 127 0" result="hardAlpha"/>
<feOffset dy="4"/>
<feGaussianBlur stdDeviation="2"/>
<feComposite in2="hardAlpha" operator="arithmetic" k2="-1" k3="1"/>
<feColorMatrix type="matrix" values="0 0 0 0 1 0 0 0 0 1 0 0 0 0 1 0 0 0 0.08 0"/>
<feBlend mode="normal" in2="shape" result="effect1_innerShadow_1446_14759"/>
</filter>
<clipPath id="clip0_1446_14759">
<rect width="40" height="40" fill="white" transform="translate(0.5 0.0126953)"/>
</clipPath>
</defs>
</svg>
