<svg width="40" height="40" viewBox="0 0 40 40" fill="none" xmlns="http://www.w3.org/2000/svg">
<g clip-path="url(#clip0_2688_21263)">
<g filter="url(#filter0_di_2688_21263)">
<path d="M30 40H10C6.68629 40 4 37.3137 4 34V6C4 2.68629 6.68629 0 10 0H20.5147C22.106 0 23.6321 0.632142 24.7574 1.75736L34.2426 11.2426C35.3679 12.3679 36 13.894 36 15.4853V34C36 37.3137 33.3137 40 30 40Z" fill="white"/>
<path d="M30 39.25H10C7.10051 39.25 4.75 36.8995 4.75 34V6C4.75 3.10051 7.10051 0.75 10 0.75H20.5147C21.9071 0.75 23.2425 1.30312 24.227 2.28769L33.7123 11.773C34.6969 12.7575 35.25 14.0929 35.25 15.4853V34C35.25 36.8995 32.8995 39.25 30 39.25Z" stroke="#CDD0D5" stroke-width="1.5"/>
</g>
<path d="M23 1V9C23 11.2091 24.7909 13 27 13H35" stroke="#CDD0D5" stroke-width="1.5"/>
<g filter="url(#filter1_i_2688_21263)">
<mask id="path-4-inside-1_2688_21263" fill="white">
<path d="M0 22C0 19.7909 1.79086 18 4 18H26C28.2091 18 30 19.7909 30 22V30C30 32.2091 28.2091 34 26 34H4C1.79086 34 0 32.2091 0 30V22Z"/>
</mask>
<path d="M0 22C0 19.7909 1.79086 18 4 18H26C28.2091 18 30 19.7909 30 22V30C30 32.2091 28.2091 34 26 34H4C1.79086 34 0 32.2091 0 30V22Z" fill="#F2AE40"/>
<path d="M-1 22C-1 19.2386 1.23858 17 4 17H26C28.7614 17 31 19.2386 31 22H29C29 20.3431 27.6569 19 26 19H4C2.34315 19 1 20.3431 1 22H-1ZM30 34H0H30ZM4 34C1.23858 34 -1 31.7614 -1 29V22C-1 19.2386 1.23858 17 4 17V19C2.34315 19 1 20.3431 1 22V30C1 32.2091 2.34315 34 4 34ZM26 17C28.7614 17 31 19.2386 31 22V29C31 31.7614 28.7614 34 26 34C27.6569 34 29 32.2091 29 30V22C29 20.3431 27.6569 19 26 19V17Z" fill="black" fill-opacity="0.08" mask="url(#path-4-inside-1_2688_21263)"/>
<path d="M8.13672 24.1992C8.10026 23.8581 7.94661 23.5924 7.67578 23.4023C7.40755 23.2122 7.05859 23.1172 6.62891 23.1172C6.32682 23.1172 6.06771 23.1628 5.85156 23.2539C5.63542 23.3451 5.47005 23.4687 5.35547 23.625C5.24089 23.7812 5.18229 23.9596 5.17969 24.1602C5.17969 24.3268 5.21745 24.4714 5.29297 24.5937C5.37109 24.7161 5.47656 24.8203 5.60938 24.9062C5.74219 24.9896 5.88932 25.0599 6.05078 25.1172C6.21224 25.1745 6.375 25.2227 6.53906 25.2617L7.28906 25.4492C7.59115 25.5195 7.88151 25.6146 8.16016 25.7344C8.44141 25.8542 8.69271 26.0052 8.91406 26.1875C9.13802 26.3698 9.3151 26.5898 9.44531 26.8477C9.57552 27.1055 9.64063 27.4076 9.64063 27.7539C9.64063 28.2227 9.52083 28.6354 9.28125 28.9922C9.04167 29.3464 8.69531 29.6237 8.24219 29.8242C7.79167 30.0221 7.24609 30.1211 6.60547 30.1211C5.98307 30.1211 5.44271 30.0247 4.98438 29.832C4.52865 29.6393 4.17188 29.3581 3.91406 28.9883C3.65885 28.6185 3.52083 28.168 3.5 27.6367H4.92578C4.94661 27.9154 5.03255 28.1471 5.18359 28.332C5.33464 28.5169 5.53125 28.6549 5.77344 28.7461C6.01823 28.8372 6.29167 28.8828 6.59375 28.8828C6.90885 28.8828 7.1849 28.8359 7.42188 28.7422C7.66146 28.6458 7.84896 28.513 7.98438 28.3437C8.11979 28.1719 8.1888 27.9714 8.19141 27.7422C8.1888 27.5339 8.1276 27.362 8.00781 27.2266C7.88802 27.0885 7.72005 26.974 7.50391 26.8828C7.29036 26.7891 7.04036 26.7057 6.75391 26.6328L5.84375 26.3984C5.1849 26.2292 4.66406 25.9727 4.28125 25.6289C3.90104 25.2826 3.71094 24.8229 3.71094 24.25C3.71094 23.7786 3.83854 23.3659 4.09375 23.0117C4.35156 22.6576 4.70182 22.3828 5.14453 22.1875C5.58724 21.9896 6.08854 21.8906 6.64844 21.8906C7.21615 21.8906 7.71354 21.9896 8.14063 22.1875C8.57031 22.3828 8.90755 22.6549 9.15234 23.0039C9.39714 23.3503 9.52344 23.7487 9.53125 24.1992H8.13672ZM12.2229 22L14.305 28.2969H14.387L16.4651 22H18.0589L15.2386 30H13.4495L10.6331 22H12.2229ZM24.2623 24.5547C24.1972 24.3437 24.1073 24.1549 23.9927 23.9883C23.8808 23.819 23.7453 23.6745 23.5865 23.5547C23.4302 23.4349 23.2505 23.3451 23.0474 23.2852C22.8443 23.2227 22.6229 23.1914 22.3834 23.1914C21.9537 23.1914 21.5709 23.2995 21.2349 23.5156C20.899 23.7318 20.6347 24.0495 20.442 24.4687C20.2518 24.8854 20.1568 25.3932 20.1568 25.9922C20.1568 26.5964 20.2518 27.1081 20.442 27.5273C20.6321 27.9466 20.8964 28.2656 21.2349 28.4844C21.5735 28.7005 21.9667 28.8086 22.4146 28.8086C22.8209 28.8086 23.1724 28.7305 23.4693 28.5742C23.7688 28.418 23.9992 28.1966 24.1607 27.9102C24.3222 27.6211 24.4029 27.2826 24.4029 26.8945L24.731 26.9453H22.5591V25.8125H25.8052V26.7734C25.8052 27.4583 25.6594 28.0508 25.3677 28.5508C25.0761 29.0508 24.675 29.4362 24.1646 29.707C23.6542 29.9753 23.0683 30.1094 22.4068 30.1094C21.6698 30.1094 21.0227 29.944 20.4654 29.6133C19.9107 29.2799 19.4771 28.8073 19.1646 28.1953C18.8547 27.5807 18.6998 26.8516 18.6998 26.0078C18.6998 25.362 18.7909 24.7852 18.9732 24.2773C19.1581 23.7695 19.4159 23.3385 19.7466 22.9844C20.0774 22.6276 20.4654 22.3568 20.9107 22.1719C21.356 21.9844 21.8404 21.8906 22.3638 21.8906C22.8065 21.8906 23.2193 21.9557 23.6021 22.0859C23.9849 22.2135 24.3248 22.3958 24.6216 22.6328C24.9211 22.8698 25.1672 23.151 25.3599 23.4766C25.5526 23.8021 25.6789 24.1615 25.7388 24.5547H24.2623Z" fill="white"/>
</g>
</g>
<defs>
<filter id="filter0_di_2688_21263" x="2" y="-4" width="36" height="47" filterUnits="userSpaceOnUse" color-interpolation-filters="sRGB">
<feFlood flood-opacity="0" result="BackgroundImageFix"/>
<feColorMatrix in="SourceAlpha" type="matrix" values="0 0 0 0 0 0 0 0 0 0 0 0 0 0 0 0 0 0 127 0" result="hardAlpha"/>
<feOffset dy="1"/>
<feGaussianBlur stdDeviation="1"/>
<feComposite in2="hardAlpha" operator="out"/>
<feColorMatrix type="matrix" values="0 0 0 0 0.894118 0 0 0 0 0.898039 0 0 0 0 0.905882 0 0 0 0.24 0"/>
<feBlend mode="normal" in2="BackgroundImageFix" result="effect1_dropShadow_2688_21263"/>
<feBlend mode="normal" in="SourceGraphic" in2="effect1_dropShadow_2688_21263" result="shape"/>
<feColorMatrix in="SourceAlpha" type="matrix" values="0 0 0 0 0 0 0 0 0 0 0 0 0 0 0 0 0 0 127 0" result="hardAlpha"/>
<feOffset dy="-4"/>
<feGaussianBlur stdDeviation="2"/>
<feComposite in2="hardAlpha" operator="arithmetic" k2="-1" k3="1"/>
<feColorMatrix type="matrix" values="0 0 0 0 0.813571 0 0 0 0 0.82 0 0 0 0 0.826429 0 0 0 0.32 0"/>
<feBlend mode="normal" in2="shape" result="effect2_innerShadow_2688_21263"/>
</filter>
<filter id="filter1_i_2688_21263" x="0" y="18" width="30" height="20" filterUnits="userSpaceOnUse" color-interpolation-filters="sRGB">
<feFlood flood-opacity="0" result="BackgroundImageFix"/>
<feBlend mode="normal" in="SourceGraphic" in2="BackgroundImageFix" result="shape"/>
<feColorMatrix in="SourceAlpha" type="matrix" values="0 0 0 0 0 0 0 0 0 0 0 0 0 0 0 0 0 0 127 0" result="hardAlpha"/>
<feOffset dy="4"/>
<feGaussianBlur stdDeviation="2"/>
<feComposite in2="hardAlpha" operator="arithmetic" k2="-1" k3="1"/>
<feColorMatrix type="matrix" values="0 0 0 0 1 0 0 0 0 1 0 0 0 0 1 0 0 0 0.08 0"/>
<feBlend mode="normal" in2="shape" result="effect1_innerShadow_2688_21263"/>
</filter>
<clipPath id="clip0_2688_21263">
<rect width="40" height="40" fill="white"/>
</clipPath>
</defs>
</svg>
