<svg xmlns="http://www.w3.org/2000/svg" width="24" height="24" viewBox="0 0 24 24" fill="none">
  <path d="M20.1004 9.3V20.0937C20.1012 20.2119 20.0788 20.3291 20.0343 20.4386C19.9898 20.5481 19.9242 20.6478 19.8412 20.7319C19.7583 20.8161 19.6595 20.8831 19.5506 20.9291C19.4418 20.9751 19.3249 20.9992 19.2067 21H4.79409C4.55722 21 4.33004 20.906 4.16247 20.7386C3.99489 20.5712 3.90063 20.3441 3.90039 20.1072V3.8928C3.90039 3.4095 4.30269 3 4.79859 3H13.8004V8.4C13.8004 8.63869 13.8952 8.86761 14.064 9.0364C14.2328 9.20518 14.4617 9.3 14.7004 9.3H20.1004ZM20.1004 7.5H15.6004V3.0027L20.1004 7.5ZM8.40039 7.5V9.3H11.1004V7.5H8.40039ZM8.40039 11.1V12.9H15.6004V11.1H8.40039ZM8.40039 14.7V16.5H15.6004V14.7H8.40039Z" fill="#0A0D14"/>
</svg>