<svg xmlns="http://www.w3.org/2000/svg" width="50" height="50" viewBox="0 0 50 50" fill="none">
  <circle cx="25" cy="25" r="25" fill="#0899CD"/>
  <path fill-rule="evenodd" clip-rule="evenodd" d="M12.9703 12.9689C9.66286 16.2858 7.98085 20.277 7.91797 24.9411L7.91954 24.9426C7.92426 24.5826 7.93998 24.2274 7.96356 23.8753C8.028 23.8781 8.09212 23.886 8.15534 23.8988L15.5294 11.1093C15.4791 11.0527 15.4367 10.9898 15.4005 10.9269C16.1441 10.4035 16.9175 9.94918 17.7208 9.56248C17.7633 9.63337 17.7991 9.70811 17.8277 9.7857H32.5916C32.6202 9.70814 32.656 9.63341 32.6985 9.56248C33.509 9.95444 34.2856 10.4129 35.0203 10.9332C34.9841 10.9931 34.9431 11.0498 34.8977 11.103L42.2639 23.8988C42.3266 23.8861 42.3902 23.8783 42.4541 23.8753C42.4703 24.0971 42.4823 24.3192 42.4902 24.5414C42.4969 24.741 42.5006 24.9418 42.5013 25.1438C42.501 24.943 42.4973 24.7421 42.4902 24.5414C42.3388 20.0493 40.6526 16.1914 37.4317 12.9705C34.063 9.60178 29.9884 7.91663 25.2096 7.91663C20.4308 7.91663 16.3516 9.60178 12.9703 12.9689ZM15.4084 39.4896C14.5385 38.8745 13.7233 38.1855 12.9719 37.4304C9.92695 34.3855 8.25909 30.7652 7.96513 26.5712C8.029 26.5687 8.09258 26.5613 8.15534 26.5492L15.5294 39.3214C15.4844 39.374 15.4439 39.4302 15.4084 39.4896ZM37.4317 37.4304C40.486 34.3855 42.1602 30.7668 42.4541 26.5712C42.3881 26.568 42.3252 26.5602 42.2624 26.5492L34.8898 39.3214C34.9335 39.3723 34.9739 39.4258 35.0109 39.4818C35.855 38.886 36.6614 38.2022 37.4317 37.4304ZM25.2096 42.5C28.5595 42.5 31.5651 41.67 34.2217 40.0084C33.7234 40.3181 33.2141 40.601 32.6906 40.8525C32.6514 40.7876 32.6182 40.7192 32.5916 40.6482H17.8277C17.8004 40.7192 17.7667 40.7876 17.7271 40.8525C17.3262 40.6608 16.9332 40.4517 16.5465 40.2237C19.1198 41.7407 22.0075 42.5 25.2096 42.5ZM41.4732 24.3563L41.4727 24.3569L34.3208 11.9597V23.9507C34.5057 24.0213 34.673 24.1313 34.8112 24.273C34.9528 24.4107 35.0627 24.5775 35.1335 24.7619H41.228C41.2844 24.6132 41.3673 24.476 41.4727 24.3569L41.4732 24.3579V24.3563ZM41.4732 26.087C41.3677 25.9678 41.2846 25.8303 41.228 25.6815H35.1335C35.0628 25.8663 34.9529 26.0337 34.8112 26.1719C34.6729 26.3131 34.5056 26.4225 34.3208 26.4926V38.471L41.4732 26.087ZM9.19126 24.7634C9.13471 24.6145 9.05163 24.4771 8.94604 24.3579L16.0985 11.9597V23.9523C15.9136 24.0229 15.7462 24.1328 15.608 24.2745C15.4666 24.4123 15.3566 24.5791 15.2858 24.7634H9.19126ZM17.8292 10.7037C17.8251 10.7147 17.8198 10.7253 17.8135 10.7352L27.423 19.0587C27.6956 18.8994 28.017 18.8452 28.3269 18.9063L32.8384 11.1093C32.7334 10.9896 32.6504 10.8523 32.5932 10.7037H17.8292ZM17.8292 24.7634C17.7585 24.5791 17.6485 24.4123 17.507 24.2745C17.3688 24.1329 17.2014 24.0229 17.0165 23.9523V11.9597L24.1769 24.3421C24.0733 24.4671 23.9934 24.6098 23.9411 24.7634H17.8292ZM29.3554 20.7113L29.3549 20.7125V20.7109L29.3554 20.7113ZM33.2062 24.0435L29.3554 20.7113C29.4116 20.5571 29.4397 20.394 29.4382 20.2299C29.4419 19.9131 29.3301 19.6057 29.1238 19.3653L33.4059 11.9613V23.9507C33.3368 23.9759 33.27 24.0069 33.2062 24.0435ZM26.8351 19.7488C26.7727 19.9015 26.7412 20.065 26.7423 20.2299C26.7423 20.56 26.8492 20.8492 27.0646 21.096L25.4486 23.8831C25.2919 23.8519 25.1305 23.8519 24.9738 23.8831L18.3181 12.381L26.8335 19.7488H26.8351ZM26.2456 24.3437C26.3511 24.468 26.4336 24.6101 26.4892 24.7634V24.765H32.5932C32.5993 24.755 32.6045 24.7445 32.6089 24.7336L28.7576 21.4026C28.4849 21.5619 28.1635 21.6161 27.8537 21.555L26.2456 24.3437ZM32.9154 26.1735C33.0536 26.3152 33.221 26.4251 33.4059 26.4957V38.471L26.2456 26.0666C26.3436 25.9529 26.4212 25.8231 26.4751 25.683H32.5932C32.6638 25.8679 32.7738 26.0352 32.9154 26.1735ZM25.4486 26.5335C25.2968 26.5591 25.1421 26.5617 24.9896 26.5413L23.3657 29.352C23.5721 29.5924 23.6839 29.8998 23.6801 30.2166C23.6812 30.3813 23.6524 30.5448 23.5952 30.6992L32.1027 38.0576L25.4486 26.5335ZM32.6089 39.6971C32.6045 39.708 32.5992 39.7185 32.5932 39.7286H17.8292C17.775 39.5798 17.6946 39.4419 17.5919 39.3214L22.094 31.5402C22.4038 31.6014 22.7253 31.5471 22.9979 31.3877L32.6089 39.6971ZM21.6648 29.0439C21.9374 28.8843 22.2589 28.8301 22.5687 28.8914L24.1847 26.0807C24.0794 25.9581 24.0008 25.8245 23.9473 25.683H17.8292C17.825 25.694 17.8197 25.7045 17.8135 25.7145L21.6648 29.0439ZM21.0754 29.734L21.0749 29.7352L17.2162 26.403C17.1524 26.4391 17.0856 26.4696 17.0165 26.4942V38.4789L21.3064 31.0812C21.0911 30.8344 20.9842 30.5467 20.9842 30.2166C20.9824 30.0517 21.0132 29.8881 21.0749 29.7352L21.0754 29.7356V29.734ZM16.0985 26.4957C15.9136 26.4251 15.7463 26.3151 15.608 26.1735C15.4664 26.0352 15.3565 25.8679 15.2858 25.683H9.19126C9.13468 25.8319 9.0516 25.9693 8.94604 26.0886L16.0985 38.471V26.4957Z" fill="white"/>
</svg>