<svg xmlns="http://www.w3.org/2000/svg" width="24" height="24" viewBox="0 0 24 24" fill="none">
  <path d="M11.9998 12.5274L15.8185 16.3452L14.545 17.6187L12.8998 15.9735V21H11.0998V15.9717L9.45461 17.6187L8.18111 16.3452L11.9998 12.5274ZM11.9998 3C13.5451 3.00007 15.0365 3.568 16.1904 4.59581C17.3443 5.62361 18.0803 7.03962 18.2584 8.5746C19.3782 8.87998 20.3552 9.56919 21.0184 10.5218C21.6816 11.4744 21.989 12.6297 21.8869 13.786C21.7847 14.9422 21.2794 16.0257 20.4594 16.8472C19.6394 17.6687 18.5567 18.1759 17.4007 18.2802V16.4676C17.8149 16.4085 18.2131 16.2674 18.5721 16.0527C18.9312 15.8379 19.2439 15.5539 19.4919 15.217C19.74 14.8801 19.9184 14.4972 20.0169 14.0906C20.1153 13.6839 20.1318 13.2618 20.0653 12.8488C19.9989 12.4357 19.8508 12.0401 19.6298 11.6849C19.4087 11.3297 19.1191 11.0221 18.7779 10.78C18.4367 10.538 18.0506 10.3663 17.6424 10.2751C17.2341 10.1838 16.8117 10.1748 16.3999 10.2486C16.5409 9.5924 16.5332 8.91297 16.3776 8.2601C16.222 7.60722 15.9223 6.99743 15.5004 6.47538C15.0786 5.95333 14.5454 5.53225 13.9397 5.24298C13.3341 4.9537 12.6714 4.80357 12.0003 4.80357C11.3291 4.80357 10.6664 4.9537 10.0608 5.24298C9.45515 5.53225 8.92189 5.95333 8.50007 6.47538C8.07825 6.99743 7.77854 7.60722 7.62291 8.2601C7.46728 8.91297 7.45966 9.5924 7.60061 10.2486C6.7795 10.0944 5.93076 10.2727 5.24112 10.7443C4.55147 11.2159 4.0774 11.9421 3.92321 12.7632C3.76901 13.5843 3.94731 14.433 4.41889 15.1227C4.89047 15.8123 5.6167 16.2864 6.43781 16.4406L6.59981 16.4676V18.2802C5.44371 18.1761 4.36097 17.669 3.54083 16.8476C2.72068 16.0261 2.2153 14.9426 2.11301 13.7863C2.01073 12.6301 2.31804 11.4747 2.98124 10.522C3.64444 9.56934 4.62134 8.88005 5.74121 8.5746C5.91914 7.03954 6.65507 5.62342 7.80903 4.59558C8.96298 3.56774 10.4545 2.99988 11.9998 3Z" fill="#525866"/>
</svg>