<svg xmlns="http://www.w3.org/2000/svg" width="26" height="26" viewBox="0 0 26 26" fill="none">
  <g filter="url(#filter0_d_1111_4696)">
    <path fill-rule="evenodd" clip-rule="evenodd" d="M15.7144 4.4467L14.3257 3.05806C13.5935 2.32582 12.4063 2.32582 11.6741 3.05806L10.2854 4.4467H8.3216C7.28607 4.4467 6.4466 5.28616 6.4466 6.3217V8.28553L5.05796 9.67417C4.32573 10.4064 4.32573 11.5936 5.05796 12.3258L6.4466 13.7145V15.6783C6.4466 16.7138 7.28607 17.5533 8.3216 17.5533H10.2854L11.6741 18.9419C12.4063 19.6742 13.5935 19.6742 14.3257 18.9419L15.7144 17.5533H17.6782C18.7137 17.5533 19.5532 16.7138 19.5532 15.6783V13.7145L20.9418 12.3258C21.6741 11.5936 21.6741 10.4064 20.9418 9.67417L19.5532 8.28553V6.3217C19.5532 5.28616 18.7137 4.4467 17.6782 4.4467H15.7144ZM15.0135 5.51364C15.1308 5.63085 15.2897 5.6967 15.4555 5.6967H17.6782C18.0234 5.6967 18.3032 5.97652 18.3032 6.3217V8.54441C18.3032 8.71018 18.3691 8.86915 18.4863 8.98636L20.058 10.5581C20.302 10.8021 20.302 11.1979 20.058 11.4419L18.4863 13.0136C18.3691 13.1308 18.3032 13.2898 18.3032 13.4556V15.6783C18.3032 16.0235 18.0234 16.3033 17.6782 16.3033H15.4555C15.2897 16.3033 15.1308 16.3691 15.0135 16.4864L13.4418 18.0581C13.1978 18.3021 12.802 18.3021 12.558 18.0581L10.9863 16.4864C10.8691 16.3691 10.7101 16.3033 10.5443 16.3033H8.3216C7.97643 16.3033 7.6966 16.0235 7.6966 15.6783V13.4556C7.6966 13.2898 7.63076 13.1308 7.51355 13.0136L5.94185 11.4419C5.69777 11.1979 5.69777 10.8021 5.94185 10.5581L7.51355 8.98636C7.63076 8.86915 7.6966 8.71018 7.6966 8.54441V6.3217C7.6966 5.97652 7.97643 5.6967 8.3216 5.6967H10.5443C10.7101 5.6967 10.8691 5.63085 10.9863 5.51364L12.558 3.94194C12.802 3.69786 13.1978 3.69786 13.4418 3.94194L15.0135 5.51364Z" fill="white"/>
    <path d="M15.4555 5.6966C15.2897 5.6966 15.1308 5.63076 15.0135 5.51355L13.4418 3.94185C13.1978 3.69777 12.802 3.69777 12.558 3.94185L10.9863 5.51355C10.8691 5.63076 10.7101 5.6966 10.5443 5.6966H8.3216C7.97643 5.6966 7.6966 5.97643 7.6966 6.3216V8.54432C7.6966 8.71008 7.63076 8.86905 7.51355 8.98626L5.94185 10.558C5.69777 10.802 5.69777 11.1978 5.94185 11.4418L7.51355 13.0135C7.63076 13.1308 7.6966 13.2897 7.6966 13.4555V15.6782C7.6966 16.0234 7.97643 16.3032 8.3216 16.3032H10.5443C10.7101 16.3032 10.8691 16.3691 10.9863 16.4863L12.558 18.058C12.802 18.302 13.1978 18.302 13.4418 18.058L15.0135 16.4863C15.1308 16.3691 15.2897 16.3032 15.4555 16.3032H17.6782C18.0234 16.3032 18.3032 16.0234 18.3032 15.6782V13.4555C18.3032 13.2897 18.3691 13.1308 18.4863 13.0135L20.058 11.4418C20.302 11.1978 20.302 10.802 20.058 10.558L18.4863 8.98626C18.3691 8.86905 18.3032 8.71008 18.3032 8.54432V6.3216C18.3032 5.97643 18.0234 5.6966 17.6782 5.6966H15.4555Z" fill="#35B9E9"/>
    <path fill-rule="evenodd" clip-rule="evenodd" d="M16.3582 9.35866L12.1662 13.5506L10.0576 11.442L10.9415 10.5581L12.1662 11.7828L15.4743 8.47478L16.3582 9.35866Z" fill="white"/>
  </g>
  <defs>
    <filter id="filter0_d_1111_4696" x="-1" y="-1" width="28" height="28" filterUnits="userSpaceOnUse" color-interpolation-filters="sRGB">
      <feFlood flood-opacity="0" result="BackgroundImageFix"/>
      <feColorMatrix in="SourceAlpha" type="matrix" values="0 0 0 0 0 0 0 0 0 0 0 0 0 0 0 0 0 0 127 0" result="hardAlpha"/>
      <feOffset dy="2"/>
      <feGaussianBlur stdDeviation="2"/>
      <feColorMatrix type="matrix" values="0 0 0 0 0.105882 0 0 0 0 0.109804 0 0 0 0 0.113725 0 0 0 0.04 0"/>
      <feBlend mode="normal" in2="BackgroundImageFix" result="effect1_dropShadow_1111_4696"/>
      <feBlend mode="normal" in="SourceGraphic" in2="effect1_dropShadow_1111_4696" result="shape"/>
    </filter>
  </defs>
</svg>