<svg xmlns="http://www.w3.org/2000/svg" width="26" height="26" viewBox="0 0 26 26" fill="none">
  <g filter="url(#filter0_d_1111_9733)">
    <path fill-rule="evenodd" clip-rule="evenodd" d="M15.7153 4.4467L14.3267 3.05806C13.5945 2.32582 12.4073 2.32582 11.6751 3.05806L10.2864 4.4467H8.32258C7.28705 4.4467 6.44758 5.28616 6.44758 6.3217V8.28553L5.05894 9.67417C4.32671 10.4064 4.32671 11.5936 5.05894 12.3258L6.44758 13.7145V15.6783C6.44758 16.7138 7.28705 17.5533 8.32258 17.5533H10.2864L11.6751 18.9419C12.4073 19.6742 13.5945 19.6742 14.3267 18.9419L15.7153 17.5533H17.6792C18.7147 17.5533 19.5542 16.7138 19.5542 15.6783V13.7145L20.9428 12.3258C21.6751 11.5936 21.6751 10.4064 20.9428 9.67417L19.5542 8.28553V6.3217C19.5542 5.28616 18.7147 4.4467 17.6792 4.4467H15.7153ZM15.0145 5.51364C15.1317 5.63085 15.2907 5.6967 15.4565 5.6967H17.6792C18.0244 5.6967 18.3042 5.97652 18.3042 6.3217V8.54441C18.3042 8.71018 18.37 8.86915 18.4872 8.98636L20.0589 10.5581C20.303 10.8021 20.303 11.1979 20.0589 11.4419L18.4872 13.0136C18.37 13.1308 18.3042 13.2898 18.3042 13.4556V15.6783C18.3042 16.0235 18.0244 16.3033 17.6792 16.3033H15.4565C15.2907 16.3033 15.1317 16.3691 15.0145 16.4864L13.4428 18.0581C13.1987 18.3021 12.803 18.3021 12.5589 18.0581L10.9872 16.4864C10.87 16.3691 10.7111 16.3033 10.5453 16.3033H8.32258C7.9774 16.3033 7.69758 16.0235 7.69758 15.6783V13.4556C7.69758 13.2898 7.63173 13.1308 7.51452 13.0136L5.94282 11.4419C5.69875 11.1979 5.69875 10.8021 5.94282 10.5581L7.51452 8.98636C7.63173 8.86915 7.69758 8.71018 7.69758 8.54441V6.3217C7.69758 5.97652 7.9774 5.6967 8.32258 5.6967H10.5453C10.7111 5.6967 10.87 5.63085 10.9872 5.51364L12.5589 3.94194C12.803 3.69786 13.1987 3.69786 13.4428 3.94194L15.0145 5.51364Z" fill="white"/>
    <path d="M15.4545 5.6966C15.2888 5.6966 15.1298 5.63076 15.0126 5.51355L13.4409 3.94185C13.1968 3.69777 12.8011 3.69777 12.557 3.94185L10.9853 5.51355C10.8681 5.63076 10.7091 5.6966 10.5433 5.6966H8.32063C7.97545 5.6966 7.69563 5.97643 7.69563 6.3216V8.54432C7.69563 8.71008 7.62978 8.86905 7.51257 8.98626L5.94087 10.558C5.69679 10.802 5.69679 11.1978 5.94087 11.4418L7.51257 13.0135C7.62978 13.1308 7.69563 13.2897 7.69563 13.4555V15.6782C7.69563 16.0234 7.97545 16.3032 8.32063 16.3032H10.5433C10.7091 16.3032 10.8681 16.3691 10.9853 16.4863L12.557 18.058C12.8011 18.302 13.1968 18.302 13.4409 18.058L15.0126 16.4863C15.1298 16.3691 15.2888 16.3032 15.4545 16.3032H17.6772C18.0224 16.3032 18.3022 16.0234 18.3022 15.6782V13.4555C18.3022 13.2897 18.3681 13.1308 18.4853 13.0135L20.057 11.4418C20.3011 11.1978 20.3011 10.802 20.057 10.558L18.4853 8.98626C18.3681 8.86905 18.3022 8.71008 18.3022 8.54432V6.3216C18.3022 5.97643 18.0224 5.6966 17.6772 5.6966H15.4545Z" fill="#35B9E9"/>
    <path fill-rule="evenodd" clip-rule="evenodd" d="M16.3591 9.35866L12.1672 13.5506L10.0586 11.442L10.9425 10.5581L12.1672 11.7828L15.4753 8.47478L16.3591 9.35866Z" fill="white"/>
  </g>
  <defs>
    <filter id="filter0_d_1111_9733" x="-1" y="-1" width="28" height="28" filterUnits="userSpaceOnUse" color-interpolation-filters="sRGB">
      <feFlood flood-opacity="0" result="BackgroundImageFix"/>
      <feColorMatrix in="SourceAlpha" type="matrix" values="0 0 0 0 0 0 0 0 0 0 0 0 0 0 0 0 0 0 127 0" result="hardAlpha"/>
      <feOffset dy="2"/>
      <feGaussianBlur stdDeviation="2"/>
      <feColorMatrix type="matrix" values="0 0 0 0 0.105882 0 0 0 0 0.109804 0 0 0 0 0.113725 0 0 0 0.04 0"/>
      <feBlend mode="normal" in2="BackgroundImageFix" result="effect1_dropShadow_1111_9733"/>
      <feBlend mode="normal" in="SourceGraphic" in2="effect1_dropShadow_1111_9733" result="shape"/>
    </filter>
  </defs>
</svg>